<svg width="422" height="92" viewBox="0 0 422 92" xmlns="http://www.w3.org/2000/svg" fill="none"><path fill="#DE643A" d="M0 0h422v92h-422z"/><mask id="a" maskUnits="userSpaceOnUse" x="0" y="0" width="422" height="92"><rect width="422" height="92" rx="6" fill="#DE643A"/></mask><path d="M184.222 71.602l-33.849-12.871c3.059-.735 5.772-1.589 7.788-2.512 11.922-5.397 17.292-19.519 11.968-31.473-5.171-11.615-19.78-17.183-31.377-11.931-6.402 2.892-25.92 17.156-29.031 30.458l-.77-.293c6.502-12.013 1.404-35.637-1.458-42.052-5.178-11.63-19.795-17.176-31.377-11.932-11.922 5.397-17.292 19.519-11.979 31.469.904 2.034 2.364 4.474 4.162 7.056l-33.848-12.871c-5.895-2.242-12.525.735-14.766 6.63l-10.17 26.745c-1.123 2.953.362 6.26 3.315 7.383l5.349 2.034-24.408 64.188c-2.241 5.894.735 12.524 6.63 14.766l128.375 48.816c5.895 2.241 12.525-.735 14.766-6.63l24.408-64.188 5.349 2.034c2.953 1.123 6.261-.362 7.383-3.315l10.171-26.745c2.241-5.895-.736-12.525-6.63-14.766zm-103.39-72.18c3.001-1.357 6.335-1.46 9.394-.297 3.049 1.159 5.471 3.452 6.813 6.46 4.452 9.995 4.574 31.25 1.101 32.88 0 0-.584.182-2.113-.4-7.392-2.811-18.582-15.858-21.427-22.254-2.766-6.219.033-13.579 6.232-16.389zm-17.526 148.65l-58.839-22.374 24.408-64.188 58.839 22.374-24.408 64.188zm28.476-74.886l-69.537-26.442 8.136-21.396 61.578 23.416 7.959 3.027-8.136 21.396zm51.686-49.946c5.999-2.702 13.526.172 16.207 6.163 2.766 6.219-.033 13.579-6.232 16.389-6.376 2.89-23.408 5.205-30.8 2.394-1.53-.582-1.849-1.095-1.856-1.11-1.501-3.522 12.712-19.325 22.681-23.837zm-10.626 151.274l-58.838-22.374 24.408-64.188 58.838 22.374-24.408 64.188zm39.174-70.818l-69.536-26.442 8.136-21.396 7.959 3.027 61.578 23.416-8.137 21.396z" fill="#fff" opacity=".2" mask="url(#a)"/></svg>