<svg width="422" height="92" viewBox="0 0 422 92" xmlns="http://www.w3.org/2000/svg" fill="none"><path fill="#44D558" d="M0 0h422v92h-422z"/><g clip-path="url(#a)" fill="#fff" opacity=".2"><path d="M422.001 24.351v13.995l-7.117 11.896c-1.888 3.079-5.229 4.898-8.715 4.898-1.743 0-3.486-.42-5.084-1.259l-52-29.109c-2.324-1.259-4.067-3.359-4.648-5.878-.726-2.519-.436-5.178.871-7.417l6.972-11.476h8.425l-9.006 14.975c-.435.7-.435 1.399-.29 2.099.145.7.726 1.26 1.307 1.679l52.145 28.969c.727.42 1.453.42 2.179.28.727-.14 1.308-.7 1.743-1.259l13.218-22.392zM386.559 24.211c3.369 0 6.1-2.632 6.1-5.878s-2.731-5.878-6.1-5.878c-3.37 0-6.101 2.632-6.101 5.878s2.731 5.878 6.101 5.878z"/></g><g opacity=".2" fill="#fff"><path d="M9.8 36.1c-1.9 0-3.4 1.4-3.4 3.3s1.4 3.4 3.3 3.4c9 .2 17.6-3.1 24.2-9.3 6.6-6.2 10.3-14.6 10.5-23.6 0-1.9-1.4-3.4-3.3-3.4s-3.4 1.4-3.4 3.3c-.2 7.2-3.2 14-8.4 18.9-5.4 4.9-12.3 7.6-19.5 7.4zM45.5 45.9c9.9-9.3 15.5-22 15.8-35.5 0-1.9-1.4-3.4-3.3-3.4s-3.4 1.4-3.4 3.3c-.3 11.6-5.2 22.6-13.7 30.7-8.6 8.1-19.7 12.4-31.5 12.1-1.9 0-3.4 1.4-3.4 3.3s1.4 3.4 3.3 3.4c13.4.4 26.3-4.6 36.2-13.9zM27.3 9.4c0-1.8-1.4-3.4-3.3-3.4s-3.4 1.4-3.4 3.3c-.1 2.8-1.1 5.1-3.1 7-2 1.9-4.5 2.8-7.2 2.8-1.9 0-3.4 1.4-3.4 3.3s1.4 3.4 3.3 3.4c4.5.1 8.7-1.5 12-4.6 3.2-3.2 5-7.2 5.1-11.8z"/></g><defs><clipPath id="a"><path fill="#fff" d="M344 0h78v55h-78z"/></clipPath></defs></svg>