<svg width="422" height="93" viewBox="0 0 422 93" xmlns="http://www.w3.org/2000/svg" fill="none"><path fill="#D9407B" d="M0 .532h422v92h-422z"/><mask id="a" maskUnits="userSpaceOnUse" x="0" y="1" width="422" height="92"><path fill="#D9407B" d="M0 1h422v92h-422z"/></mask><g opacity=".2" fill="#fff" mask="url(#a)"><path d="M420.565 113.838c4.705-9.059 8.81-19.742 11.815-30.291 2.784-10.165 4.66-20.085 4.853-28.416.16-31.374-16.542-36.133-36.68-41.59-6.346-1.864-13.186-3.756-19.666-6.72l-1.921-1.106c-5.816-4.117-10.886-9.083-15.683-13.637-14.937-14.486-27.325-26.737-54.492-10.66-7.109 4.348-14.94 10.839-22.143 18.459-7.616 7.894-14.795 16.806-20.269 25.422-6.026 9.577-9.159 17.238-9.922 23.45-.542 5.828.872 10.48 4.242 13.956 3.097 3.063 7.545 5.112 13.07 5.736 9.263 1.241 21.669-.312 34.658-3.321 9.275-2.334 22.077 1.201 33.22 7.618 11.142 6.417 20.625 15.716 23.262 24.909 3.916 12.745 8.8 24.255 14.522 31.644 3.423 4.273 7.318 7.284 11.521 8.425 4.506 1.06 9.321.251 14.311-3.527 4.879-3.585 9.933-10.14 15.302-20.351zm-20.285 13.9c-2.702 2.026-5.124 2.678-7.377 2.148-2.445-.641-4.913-2.574-7.323-5.497-5.175-6.562-9.622-17.053-13.103-28.779-3.096-11.504-13.865-22.567-26.737-29.98-12.871-7.413-27.845-11.175-39.32-8.574-12.081 2.764-23.498 4.376-31.468 3.111-3.738-.617-6.759-1.59-8.43-3.575-1.589-1.683-2.241-4.105-1.845-7.458.565-4.535 3.227-10.933 8.7-19.549 5.142-8.04 11.908-16.679 19.302-24.188 6.871-7.044 13.986-13.179 20.571-17.062 21.519-12.934 32.044-2.78 44.432 9.471 5.07 4.967 10.333 10.044 16.725 14.492l.384.221 2.113 1.217.385.221c7.248 3.407 14.28 5.41 21.121 7.303 16.703 4.758 30.879 8.573 30.492 33.677-.053 7.644-1.679 16.686-4.433 26.355-2.976 10.054-6.75 20.161-11.234 28.835-4.705 9.059-8.903 14.572-12.955 17.61zM347.427 21.832c-.925-2.835-2.456-5.508-5.035-7.249 1.246-2.608 1.532-5.769.799-8.494l-.082-.303c-.896-3.33-2.922-6.032-5.996-7.802-3.073-1.77-6.73-2.085-9.757-1.27-2.725.733-5.508 2.456-7.249 5.035-2.8-1.357-5.769-1.532-8.686-.909l-.303.081c-3.33.896-6.032 2.922-7.802 5.996-1.77 3.074-2.085 6.73-1.27 9.757.815 3.027 2.456 5.508 5.227 7.359-1.357 2.8-1.642 5.962-.717 8.797.897 3.33 2.922 6.032 5.996 7.802 3.074 1.77 6.73 2.085 9.758 1.27 2.835-.925 5.507-2.456 7.248-5.035 2.801 1.357 5.962 1.642 8.797.717 3.33-.896 6.032-2.922 7.802-5.996 1.77-3.074 2.085-6.73 1.27-9.758zm-10.998 7.992c-1.211.326-2.393.157-3.546-.507l-2.689-1.549c-1.921-1.106-4.535-.565-5.752 1.548l-1.439 2.497c-.663 1.153-1.601 1.892-2.812 2.218-1.211.326-2.393.157-3.545-.507-1.153-.664-1.892-1.601-2.218-2.812-.326-1.211-.157-2.393.507-3.546l1.549-2.69c1.106-1.921.565-4.535-1.549-5.752l-2.689-1.549c-1.153-.664-1.892-1.601-2.218-2.812-.244-.908-.268-2.201.396-3.353.664-1.153 1.601-1.892 2.812-2.218l.303-.081c1.101-.134 2.282.035 3.243.588l2.69 1.549c1.921 1.106 4.535.565 5.752-1.548l1.549-2.69c.664-1.153 1.601-1.892 2.812-2.218 1.211-.326 2.393-.157 3.545.507 1.153.664 1.892 1.601 2.218 2.812l.082.303c.134 1.1-.035 2.282-.589 3.243l-1.548 2.69c-1.107 1.921-.566 4.535 1.548 5.752l2.689 1.549c1.153.664 1.892 1.601 2.218 2.812.326 1.211.157 2.393-.507 3.546s-1.601 1.892-2.812 2.218zM397.977 52.221c3.714 2.139 8.458.862 10.597-2.852 2.138-3.713.862-8.458-2.852-10.596-3.714-2.139-8.458-.862-10.596 2.852-2.139 3.714-.862 8.458 2.851 10.596zM382.267 79.502c3.713 2.139 8.457.862 10.596-2.852 2.138-3.713.862-8.458-2.852-10.596-3.713-2.139-8.458-.862-10.596 2.852-2.139 3.713-.862 8.458 2.852 10.596zM376.482 58.007c3.714 2.139 8.458.862 10.597-2.852 2.138-3.714.861-8.458-2.852-10.596-3.714-2.139-8.458-.862-10.596 2.852-2.139 3.714-.862 8.458 2.851 10.596zM403.761 73.717c3.713 2.139 8.457.862 10.596-2.852 2.138-3.714.862-8.458-2.852-10.596-3.713-2.139-8.457-.862-10.596 2.852-2.139 3.714-.862 8.458 2.852 10.596z"/></g></svg>