<svg xmlns="http://www.w3.org/2000/svg"><defs><clipPath id="clip0"><path d="M0 0h27v27H0z"/></clipPath></defs><symbol id="icon_appstore" viewBox="0 0 42 42"><path d="M26.23 15.57a4.08 4.08 0 011.95-3.43 4.22 4.22 0 00-1.44-1.28 4.17 4.17 0 00-1.86-.5c-1.39-.15-2.73.83-3.44.83s-1.81-.82-3-.79a4.4 4.4 0 00-3.7 2.25c-1.6 2.77-.41 6.84 1.12 9.07.77 1.1 1.67 2.32 2.84 2.28s1.57-.73 3-.73 1.77.73 3 .7 2-1.1 2.75-2.21a9 9 0 001.25-2.55 4 4 0 01-2.41-3.64zM24 8.89A4 4 0 0024.89 6a4.13 4.13 0 00-2.65 1.37 4 4 0 00-.75 1.3 3.9 3.9 0 00-.19 1.48 3.43 3.43 0 001.48-.32A3.52 3.52 0 0024 8.89z"/><path d="M34 42H8a8 8 0 01-8-8V8a8 8 0 018-8h26a8 8 0 018 8v26a8 8 0 01-8 8zM8 1a7 7 0 00-7 7v26a7 7 0 007 7h26a7 7 0 007-7V8a7 7 0 00-7-7z"/><path d="M7.17 35H8l.36-1.09h1.5l.32 1.09H11l-1.5-4.26h-.83zm1.35-1.72l.38-1.14c.07-.24.17-.66.17-.66s.1.42.17.66l.38 1.14zm2.92 2.92h.76v-1.3a1.61 1.61 0 000-.26 1.11 1.11 0 00.88.43 1.44 1.44 0 001.4-1.6c0-.95-.53-1.6-1.35-1.6a1.12 1.12 0 00-1 .51v-.44h-.69zm.73-2.71c0-.68.38-1 .78-1s.75.38.75 1-.34 1-.76 1a.85.85 0 01-.77-1zm2.95 2.71h.76v-1.3a1.61 1.61 0 000-.26 1.08 1.08 0 00.88.43 1.44 1.44 0 001.4-1.6c0-.95-.53-1.6-1.36-1.6a1.1 1.1 0 00-1 .51 1.21 1.21 0 000-.21v-.23h-.7zm.74-2.71c0-.68.37-1 .77-1s.76.38.76 1-.35 1-.77 1a.84.84 0 01-.76-1zm4.25 1a2.09 2.09 0 001.46.58A1.27 1.27 0 0023 33.81c0-1.35-2-1.15-2-1.94 0-.3.25-.49.64-.49a1.49 1.49 0 01.94.37l.34-.63a1.88 1.88 0 00-1.25-.45 1.3 1.3 0 00-1.45 1.23c0 1.33 2 1.16 2 2 0 .29-.24.49-.63.49a1.68 1.68 0 01-1-.45zm3.62-.61A1.12 1.12 0 0025 35h.24v-.66h-.14a.55.55 0 01-.61-.58v-1.17h.7V32h-.7v-.87h-.74V32h-.41v.61h.39zm1.875-.41c0 .942.75 1.602 1.68 1.602.93 0 1.68-.66 1.68-1.602 0-.936-.75-1.602-1.686-1.602-.924 0-1.674.666-1.674 1.602zm.774 0c0-.564.408-.954.906-.954.498 0 .912.39.912.954 0 .57-.414.954-.912.954-.498 0-.906-.384-.906-.954zM29.59 35h.77v-1.24c0-.57.27-1.11.9-1.11h.18v-.75h-.14a1.06 1.06 0 00-1 .79 1.21 1.21 0 000-.21v-.54h-.74zm2.14-1.53a1.57 1.57 0 001.65 1.6 1.91 1.91 0 001.23-.44l-.3-.54a1.4 1.4 0 01-.87.33.87.87 0 01-.92-.81h2.11a2.64 2.64 0 000-.29 1.33 1.33 0 00-1.36-1.45 1.52 1.52 0 00-1.54 1.6zm.81-.38a.74.74 0 01.74-.65.6.6 0 01.61.65z"/></symbol><symbol id="icon_arr-right" viewBox="0 0 12 10"><path fill-rule="evenodd" clip-rule="evenodd" d="M5.454 8.833L6.692 10l5.307-5-5.307-5-1.238 1.167 3.184 3H0v1.667h8.638l-3.184 3z"/></symbol><symbol id="icon_blood" viewBox="0 0 16 16"><path d="M7.6.2L2.8 7.9c-1 1.6-1.1 3.7 0 5.4 1.6 2.6 5.3 3.5 8.2 2 2.9-1.5 3.9-4.8 2.2-7.4L8.4.2c-.2-.3-.6-.3-.8 0z"/></symbol><symbol id="icon_calendar" viewBox="0 0 13 13"><path d="M11.917 1.219h-1.76V.406a.406.406 0 10-.813 0v.813H6.906V.406a.406.406 0 10-.812 0v.813H3.656V.406a.406.406 0 10-.812 0v.813h-1.76C.484 1.219 0 1.703 0 2.302v9.614C0 12.515.485 13 1.083 13h10.834c.598 0 1.083-.485 1.083-1.084V2.302c0-.599-.485-1.083-1.083-1.083zm.27 10.697a.27.27 0 01-.27.271H1.083a.271.271 0 01-.27-.27V2.301c0-.15.121-.27.27-.27h1.76v.812a.406.406 0 10.813 0V2.03h2.438v.813a.406.406 0 10.812 0V2.03h2.438v.813a.406.406 0 10.812 0V2.03h1.76c.15 0 .271.122.271.27v9.615z"/><path d="M4.469 4.875H2.844v1.219h1.625V4.875zm0 2.031H2.844v1.219h1.625V6.906zm0 2.032H2.844v1.218h1.625V8.937zm2.844 0H5.688v1.218h1.625V8.937zm0-2.032H5.688v1.219h1.625V6.906zm0-2.031H5.688v1.219h1.625V4.875zm2.843 4.063H8.531v1.218h1.625V8.937zm0-2.032H8.531v1.219h1.625V6.906zm0-2.031H8.531v1.219h1.625V4.875z"/></symbol><symbol id="icon_check" viewBox="0 0 13 10"><path d="M11.013 0l-6.5 6.206-2.526-2.412L0 5.69 4.513 10 13 1.897 11.013 0z"/></symbol><symbol id="icon_city" viewBox="0 0 16 15"><g id="Слой_2"><g id="Слой_1-2"><path d="M9 7V0H0v15h16V7zm-1 7H1V1h7v13zm7 0H9V8h6z"/><path d="M2 2h2v1H2zm3 0h2v1H5zM2 5h2v1H2zm3 0h2v1H5zM2 8h2v1H2zm0 3h2v1H2zm3-3h2v1H5zm0 3h2v1H5zm5-2h1v1h-1zm3 0h1v1h-1zm-3 2h1v1h-1zm3 0h1v1h-1z"/></g></g></symbol><symbol id="icon_clock" viewBox="0 0 12 12"><path d="M6 0a6 6 0 100 12A6 6 0 006 0zm2.594 7.141H6.05l-.025-.002L6 7.14a.415.415 0 01-.415-.415V2.49a.415.415 0 01.83 0v3.821h2.179a.415.415 0 010 .83z"/></symbol><symbol id="icon_close" viewBox="0 0 11 11"><path d="M11 1.077L9.923 0 5.615 4.308 1.307 0 .23 1.077l4.308 4.308L.23 9.692l1.077 1.077 4.308-4.307 4.308 4.307L11 9.692 6.692 5.385 11 1.077z"/></symbol><symbol id="icon_closed" viewBox="0 0 16 16"><path d="M0 8c0 4.411 3.589 8 8 8s8-3.589 8-8-3.589-8-8-8-8 3.589-8 8zm14.703 0A6.71 6.71 0 018 14.703a6.672 6.672 0 01-4.256-1.53l9.43-9.43A6.672 6.672 0 0114.703 8zM8 1.297c1.615 0 3.098.574 4.256 1.53l-9.43 9.43A6.672 6.672 0 011.297 8 6.71 6.71 0 018 1.297z"/></symbol><symbol id="icon_copy" viewBox="0 0 25 31"><path d="M16.952 5.421H2.54a2.452 2.452 0 00-2.45 2.45V28.55A2.452 2.452 0 002.54 31h14.412a2.452 2.452 0 002.45-2.45V7.872a2.46 2.46 0 00-2.45-2.45zm.73 23.122c0 .406-.33.736-.737.736H2.534a.737.737 0 01-.736-.736V7.872c0-.406.33-.736.736-.736h14.411c.407 0 .737.33.737.736v20.67z"/><path d="M22.463 0H8.053a2.452 2.452 0 00-2.451 2.45c0 .477.38.858.857.858a.854.854 0 00.857-.857c0-.407.33-.737.736-.737h14.411c.407 0 .737.33.737.737v20.677c0 .406-.33.736-.737.736a.853.853 0 00-.857.857c0 .476.381.857.857.857a2.452 2.452 0 002.45-2.45V2.45A2.452 2.452 0 0022.464 0z"/></symbol><symbol id="icon_edit" viewBox="0 0 16 16"><path d="M14.964 1.036a3.529 3.529 0 00-4.995 0L.812 10.189a.458.458 0 00-.13.262l-.678 5.025a.459.459 0 00.13.386.465.465 0 00.324.136c.02 0 .04 0 .061-.003l3.028-.41a.46.46 0 10-.123-.913l-2.427.327.473-3.504 3.689 3.688a.451.451 0 00.648 0l9.157-9.153A3.51 3.51 0 0016 3.53c0-.944-.368-1.83-1.036-2.495zM10.147 2.16l1.537 1.537-8.356 8.356-1.537-1.538 8.356-8.355zm-4.66 12.047l-1.504-1.503 8.356-8.356 1.503 1.504-8.356 8.355zm8.996-9.013l-3.678-3.679A2.604 2.604 0 0112.468.92a2.605 2.605 0 012.612 2.61c0 .617-.21 1.197-.596 1.664z"/></symbol><symbol id="icon_fb" viewBox="0 0 8 16"><path d="M7.699.003L5.78 0C3.624 0 2.231 1.546 2.231 3.938v1.816H.302C.135 5.754 0 5.9 0 6.08v2.63c0 .18.135.326.302.326h1.929v6.638c0 .18.135.326.302.326H5.05c.167 0 .302-.146.302-.326V9.036h2.256c.167 0 .302-.146.302-.326l.001-2.63a.344.344 0 00-.088-.231.29.29 0 00-.214-.096H5.352V4.214c0-.74.163-1.115 1.054-1.115l1.293-.001c.167 0 .302-.146.302-.326V.329c0-.18-.135-.326-.301-.326z"/></symbol><symbol id="icon_feedback" viewBox="0 0 17 16"><g id="Слой_2"><path d="M17 6c0-3.32-3.81-6-8.5-6S0 2.7 0 6c0 2.26 1.72 4.26 4.5 5.3v4.2a.51.51 0 00.3.46.45.45 0 00.2.04.46.46 0 00.33-.13L9.72 12C13.88 11.56 17 9 17 6zm-7.54 5h-.29L5.5 14.39V11a.43.43 0 010-.11v-.08a.35.35 0 000-.08l-.06-.08h-.07l-.1-.06C2.63 9.66 1 7.9 1 6c0-2.75 3.36-5 7.5-5S16 3.25 16 6c0 2.54-2.81 4.68-6.54 5z" id="Слой_1-2"/></g></symbol><symbol id="icon_flag" viewBox="0 0 14.5 16"><g id="Слой_2"><path d="M10.21 5L14.35.85a.48.48 0 000-.7A.47.47 0 0014 0H0v16h1v-6h13a.47.47 0 00.35-.15.48.48 0 000-.7zM1 1h11.79L9.15 4.65a.48.48 0 000 .7L12.79 9H1z" id="Слой_1-2"/></g></symbol><symbol id="icon_gift" viewBox="0 0 16 15"><g id="Слой_2"><path d="M16 3h-3V1.67A1.67 1.67 0 0011.33 0 3.33 3.33 0 008 3a3.33 3.33 0 00-3.3-3A1.67 1.67 0 003 1.67V3H0v5h1v7h14V8h1zm-4.67-2a.67.67 0 01.67.67V3H9a2.35 2.35 0 012.33-2zM4 1.67A.67.67 0 014.67 1 2.35 2.35 0 017 3H4zM1 4h4v3H1zm4 10H2V8h3zm5 0H6V4h4v10zm4 0h-3V8h3zm1-7h-4V4h4z" id="Слой_1-2"/></g></symbol><symbol id="icon_googleplay" viewBox="0 0 42 42"><g id="Слой_2"><g id="Слой_1-2"><path d="M26.57 19.68l-1.93-1.9-7.09 7zm0-5.17l-9-5.1 7.09 7zm2.83 3.54a1.25 1.25 0 000-1.92l-1.89-1.08-2.11 2 2.11 2zm-13.7 7.13l8.24-8.09L15.7 9a1.24 1.24 0 00-.7 1.12v13.94a1.24 1.24 0 00.7 1.12z"/><path d="M34 42H8a8 8 0 01-8-8V8a8 8 0 018-8h26a8 8 0 018 8v26a8 8 0 01-8 8zM8 1a7 7 0 00-7 7v26a7 7 0 007 7h26a7 7 0 007-7V8a7 7 0 00-7-7z"/><path d="M4.12 32.86a2.1 2.1 0 002.09 2.21 1.84 1.84 0 001.24-.45V35h.66v-2.24H6.76v.66h.66v.5a1.6 1.6 0 01-1.07.44 1.42 1.42 0 01-1.43-1.52 1.38 1.38 0 011.46-1.46 1.89 1.89 0 011.14.4l.38-.57a2.41 2.41 0 00-1.58-.54 2.15 2.15 0 00-2.2 2.19zm4.55.61a1.6 1.6 0 001.68 1.6 1.6 1.6 0 100-3.2 1.6 1.6 0 00-1.68 1.6zm.77 0a.91.91 0 11.91 1 .91.91 0 01-.91-1zm3.03 0a1.6 1.6 0 001.68 1.6 1.6 1.6 0 100-3.2 1.6 1.6 0 00-1.68 1.6zm.77 0a.91.91 0 11.91 1 .91.91 0 01-.91-1zm3.57 1.94l-.24.59a2.58 2.58 0 001.1.26 1.44 1.44 0 001.61-1.45v-2.87h-.72v.25a.38.38 0 000 .08 1.11 1.11 0 00-.91-.4 1.36 1.36 0 00-1.35 1.52 1.4 1.4 0 001.37 1.55 1 1 0 00.86-.43v.36c0 .54-.4.74-.87.74a1.93 1.93 0 01-.85-.2zm.25-2c0-.52.26-.85.72-.85s.76.18.76.88-.35.9-.71.9-.77-.44-.77-.97zm3.04.64c0 .87.52 1 .94 1h.24v-.66h-.11c-.2 0-.32-.08-.32-.42v-3.23h-.75zm1.55-.58a1.57 1.57 0 001.65 1.6 2 2 0 001.23-.44l-.3-.54a1.45 1.45 0 01-.88.33.87.87 0 01-.92-.81h2.11a2.64 2.64 0 000-.29 1.32 1.32 0 00-1.35-1.45 1.51 1.51 0 00-1.54 1.6zm.8-.38a.74.74 0 01.74-.65.6.6 0 01.61.65zM26.8 35h.78v-1.47h.87a1.32 1.32 0 001.35-1.4 1.3 1.3 0 00-1.35-1.39H26.8zm.78-2.14v-1.45h.74a.66.66 0 01.7.72.67.67 0 01-.72.73zm2.81 1.19c0 .87.52 1 .94 1h.24v-.66h-.12c-.19 0-.31-.08-.31-.42v-3.23h-.75zm1.5.1a.93.93 0 001 .92 1.11 1.11 0 001-.55V35h.7v-1.91a1.13 1.13 0 00-1.27-1.22 2.06 2.06 0 00-1.2.38l.28.54a1.58 1.58 0 01.86-.29.5.5 0 01.57.54h-.13c-.7.04-1.81.2-1.81 1.11zm.75-.06c0-.43.65-.49 1-.49h.13v.09a.78.78 0 01-.7.8.42.42 0 01-.43-.4zm2.57 1.4l-.25.57a1.15 1.15 0 001.74-.6l1.36-3.52h-.83l-.6 1.78c-.05.16-.1.4-.1.4s-.06-.25-.12-.42l-.64-1.76h-.87l1.29 3-.11.27a.6.6 0 01-.54.4.66.66 0 01-.33-.12z"/></g></g></symbol><symbol id="icon_heart" viewBox="0 0 12 10"><path d="M12 3.117C12 1.395 10.549 0 8.759 0A3.262 3.262 0 006 1.489 3.264 3.264 0 003.24 0C1.45 0 0 1.396 0 3.117a3.06 3.06 0 001.112 2.347l4.592 4.418a.429.429 0 00.592 0l4.592-4.418A3.056 3.056 0 0012 3.117z"/></symbol><symbol id="icon_home" viewBox="0 0 15 15"><path d="M14.748 6.68l-1.267-1.154V1.698a.441.441 0 00-.441-.442H9.99a.441.441 0 00-.442.442v.245L8.018.548a.766.766 0 00-1.036 0L.252 6.681a.764.764 0 00-.2.846.764.764 0 00.718.492h1.075v6.144c0 .243.197.44.441.44h3.689a.441.441 0 00.441-.44v-3.73h2.168v3.73c0 .243.197.44.441.44h3.689a.441.441 0 00.44-.44V8.019h1.076c.32 0 .602-.193.717-.492a.764.764 0 00-.199-.846zm-2.034.456a.441.441 0 00-.441.441v6.145H9.466v-3.73a.441.441 0 00-.44-.442H5.974a.441.441 0 00-.441.441v3.73H2.727V7.578a.441.441 0 00-.441-.44H1.062L7.5 1.27l2.192 1.998a.441.441 0 00.739-.326v-.803h2.168V5.72a.44.44 0 00.144.326l1.195 1.09h-1.224z"/></symbol><symbol id="icon_info" viewBox="0 0 15 15"><g id="Слой_2"><g id="Слой_1-2"><path d="M7.5 0A7.5 7.5 0 1015 7.5 7.5 7.5 0 007.5 0zm0 14A6.5 6.5 0 1114 7.5 6.51 6.51 0 017.5 14z"/><path d="M7 6h1v5H7zm0-2h1v1H7z"/></g></g></symbol><symbol id="icon_inst" viewBox="0 0 16 16"><path d="M11.585 0H4.416A4.42 4.42 0 00.001 4.415v7.169a4.42 4.42 0 004.415 4.415h7.169A4.42 4.42 0 0016 11.584V4.415A4.42 4.42 0 0011.585 0zm2.996 11.585a3 3 0 01-2.996 2.996H4.416a3 3 0 01-2.996-2.996V4.416A3 3 0 014.416 1.42h7.169a3 3 0 012.996 2.996v7.169zm-6.58-7.708A4.128 4.128 0 003.878 8a4.128 4.128 0 004.123 4.123A4.128 4.128 0 0012.124 8a4.128 4.128 0 00-4.123-4.123zm0 6.826A2.707 2.707 0 015.298 8a2.706 2.706 0 012.703-2.703A2.706 2.706 0 0110.704 8a2.707 2.707 0 01-2.703 2.703zm4.296-8.029a1.043 1.043 0 00-1.041 1.041c0 .274.112.542.306.736.193.193.462.305.735.305.274 0 .542-.112.736-.305a1.05 1.05 0 00.305-.736c0-.274-.111-.543-.305-.736a1.046 1.046 0 00-.736-.305z"/></symbol><symbol id="icon_like" viewBox="0 0 27 27"><g clip-path="url(#clip0)"><path d="M25.834 18.356c.553-.706.818-1.463.784-2.242-.034-.858-.417-1.53-.734-1.942.367-.915.509-2.355-.717-3.473-.897-.818-2.422-1.185-4.534-1.084-1.485.068-2.727.345-2.777.356h-.006c-.282.051-.582.113-.887.18-.022-.36.04-1.258.706-3.28.79-2.405.745-4.246-.147-5.476C16.585.102 15.09 0 14.65 0c-.424 0-.813.175-1.09.497-.627.728-.553 2.072-.474 2.693-.746 1.999-2.835 6.9-4.602 8.26a.572.572 0 00-.09.08c-.52.547-.87 1.14-1.107 1.66a2.33 2.33 0 00-1.118-.283H2.724a2.35 2.35 0 00-2.349 2.349v9.175a2.35 2.35 0 002.349 2.349h3.444c.502 0 .971-.158 1.355-.43l1.327.159c.203.028 3.817.485 7.526.412.672.05 1.304.079 1.892.079 1.01 0 1.891-.079 2.625-.237 1.728-.367 2.908-1.101 3.506-2.18a3.456 3.456 0 00.384-2.162c1.124-1.016 1.322-2.14 1.282-2.93a3.814 3.814 0 00-.231-1.135zm-23.11 6.9a.825.825 0 01-.825-.825v-9.18c0-.458.373-.825.825-.825h3.444c.457 0 .824.373.824.824v9.175a.825.825 0 01-.824.825H2.724v.005zm21.664-7.56a.759.759 0 00-.102.92c0 .005.232.4.26.942.04.74-.316 1.395-1.061 1.954a.77.77 0 00-.26.87c0 .005.243.75-.152 1.456-.379.678-1.22 1.163-2.496 1.434-1.022.22-2.41.26-4.116.125h-.08c-3.63.079-7.3-.396-7.34-.401h-.005l-.57-.068c.034-.158.05-.328.05-.497v-9.18c0-.243-.039-.48-.107-.7.102-.38.384-1.22 1.05-1.937 2.536-2.01 5.014-8.792 5.122-9.085a.715.715 0 00.034-.378c-.096-.633-.063-1.406.073-1.638.3.006 1.107.09 1.592.762.576.797.554 2.22-.068 4.105-.948 2.874-1.027 4.387-.276 5.054.372.333.87.35 1.23.22.345-.08.673-.147.983-.198l.074-.017c1.733-.378 4.838-.61 5.917.373.914.835.265 1.942.192 2.06a.755.755 0 00.135.983c.006.006.599.565.627 1.316.022.502-.215 1.016-.706 1.524z"/></g></symbol><symbol id="icon_logo" viewBox="0 0 95 49"><path d="M8.476 46.786c-.6-.165-1.2-.37-1.787-.573-1.174-.433-2.323-.956-3.37-1.63a11.666 11.666 0 01-1.48-1.135 7.913 7.913 0 01-.333-.318l-.076-.077c-.026-.025-.039-.05-.064-.089l-.14-.19c-.09-.115-.166-.23-.256-.358.728.052 1.455.064 2.183.052a23.981 23.981 0 002.706-.23c1.8-.255 3.562-.739 5.209-1.503a13.957 13.957 0 002.323-1.414c.179-.14.357-.28.536-.433l.498-.46a2.4 2.4 0 00.179-.19l-.613-.688a16.34 16.34 0 01-.587-.7c-.192-.243-.358-.523-.511-.778-.013-.013-.013-.026-.026-.038-.05.114-.102.242-.153.37-.178.229-.357.445-.6.61a1.19 1.19 0 01-.268.128c-.14.038-.28.013-.421-.013a5.662 5.662 0 01-.664-.19c-.102-.039-.217-.077-.306-.154-1.213-1.452-3.88-5.197-2.234-8.433l-.69-.918a8.809 8.809 0 00-.919 1.16c-.919 1.401-1.595 7.083 4.366 8.803.013 0 .013.013.026.013-.23.216-.37.56-.6.764-.37.344-.83.573-1.29.79-2.77 1.35-5.642 2.726-8.744 2.968l.728.039c-.09.012-.166.012-.255.025-.128-.013-.243-.013-.37-.025l-.013.063-.46.038c.14.039.294.077.434.102l-.026.191c-.012 0-.025 0-.025-.012-.013-.013 0 0 0 0h.013l.012.012c.026.013.039.051.064.064.051.051.09.115.14.179.09.127.18.242.282.382l.153.204c.025.038.05.063.076.102a.638.638 0 01.09.102c.115.114.23.229.357.33.485.434.996.816 1.545 1.16 1.085.688 2.26 1.198 3.472 1.605 1.2.408 2.438.714 3.702.905 1.25.19 2.515.293 3.779.344-1.252-.14-2.515-.268-3.754-.523a27.636 27.636 0 01-1.838-.433zm51.164-7.211l-.038-5.681c0-1.045-.383-1.937-1.123-2.676-.74-.739-1.647-1.096-2.694-1.096l-1.902.013c-1.047 0-1.94.382-2.68 1.121-.741.74-1.099 1.644-1.099 2.688l.039 5.682c0 1.045.383 1.937 1.123 2.676.74.739 1.647 1.096 2.694 1.096l1.25-.013.447.943 3.128-.013-.766-1.618a4.01 4.01 0 00.51-.433 3.672 3.672 0 001.111-2.689zm-2.91.37l-.6-1.3-3.128.013.894 1.886a.914.914 0 01-.6-.28.938.938 0 01-.294-.663v-.943l-.025-4.739c0-.255.09-.484.28-.675a.9.9 0 01.664-.28l1.902-.013c.256 0 .486.089.677.28.191.191.28.408.28.663l.04 5.681c-.026.14-.052.268-.09.37zm9.752-5.147l.026 4.74a.93.93 0 01-.28.675.9.9 0 01-.665.28h-.944a.927.927 0 01-.677-.28.895.895 0 01-.28-.663l-.026-4.74-2.847-.916.038 5.681c0 1.045.383 1.937 1.124 2.676.74.739 1.646 1.096 2.693 1.096h.945c1.047 0 1.94-.383 2.68-1.122.741-.739 1.098-1.643 1.098-2.688l-.038-5.682-2.847.943zm12.357 2.765c0-1.045-.383-1.937-1.123-2.676-.74-.739-1.647-1.095-2.694-1.095h-.945c-1.046 0-1.94.382-2.68 1.12-.74.74-1.098 1.644-1.098 2.689l.013 1.898c0 1.045.383 1.936 1.123 2.675.74.74 1.647 1.096 2.693 1.096h.945c1.047 0 1.94-.382 2.68-1.121.511-.51.843-1.108.996-1.77l-2.744-.905c0 .254-.09.484-.28.675a.9.9 0 01-.665.28h-.944a.927.927 0 01-.677-.28.895.895 0 01-.28-.663l2.846-.012 2.847-.013-.013-1.898zm-5.694.038c0-.255.09-.484.281-.675a.899.899 0 01.664-.28h.945c.255 0 .485.088.676.28a.89.89 0 01.281.662l-2.847.013zm14.068.599c-.74-.319-1.698-.548-2.847-.663-1.162-.114-1.736-.267-1.736-.471 0-.191.09-.357.28-.484a1.16 1.16 0 01.665-.191h.944c.255 0 .485.076.677.229.191.153.28.331.28.522l2.732-1.21c-.166-.854-.561-1.44-1.187-1.745-.625-.306-1.468-.46-2.515-.446h-.944c-1.047 0-1.94.254-2.681.751-.74.484-1.098 1.198-1.098 2.115.013 1.108.383 1.835 1.124 2.153.74.319 1.697.548 2.846.663 1.162.114 1.736.267 1.736.471 0 .191-.089.357-.28.484a1.16 1.16 0 01-.664.191H83.6a1 1 0 01-.664-.23c-.191-.152-.28-.33-.28-.521l-2.732 1.21c.166.853.561 1.44 1.187 1.745.625.306 1.468.459 2.515.446h.944c1.047 0 1.94-.255 2.681-.752.74-.484 1.098-1.197 1.098-2.114-.026-1.109-.396-1.835-1.136-2.153zm7.761 2.114l-1.902.013a.927.927 0 01-.677-.28.895.895 0 01-.28-.663l-.013-2.84 2.846-.013-.012-2.841-2.847.012-.013-2.84-2.846-.93.05 9.465c0 1.045.383 1.937 1.124 2.675.74.74 1.647 1.096 2.693 1.096L95 43.155l-.026-2.84zm-46.3 1.733c-.306-.675-.689-1.3-1.11-1.898a13.73 13.73 0 00-1.417-1.682c-.523-.522-1.06-1.02-1.647-1.452a19.929 19.929 0 00-1.825-1.236 21.62 21.62 0 00-1.94-1.02c-1.303-.598-2.541-1.299-3.613-2.229a9.623 9.623 0 01-1.443-1.529 8.286 8.286 0 01-1.034-1.821c-.28-.65-.498-1.325-.702-2.013-.217-.688-.434-1.389-.753-2.064a5.655 5.655 0 00-.587-.956c-.115-.152-.243-.293-.37-.433-.128-.14-.281-.255-.422-.382-.574-.471-1.225-.866-1.927-1.108a4.582 4.582 0 00-.817-.23c.242-.05.485-.114.727-.178.294-.076.575-.153.868-.242 1.315-.408 2.605-.93 3.753-1.707.575-.382 1.111-.828 1.532-1.376.281-.357.498-.79.613-1.236a2.96 2.96 0 00.077-.675c-.026.688-.345 1.325-.792 1.822-.434.51-.983.917-1.557 1.261-1.162.688-2.438 1.16-3.74 1.503a26.81 26.81 0 01-1.8.408c0 .217 0 .433-.026.65a5.592 5.592 0 01-.357 1.516 6.14 6.14 0 01-.766 1.35 8.373 8.373 0 01-.907.994c.268.357.537.726.805 1.083.536.688 1.097 1.35 1.697 1.987.294.306.588.612.894.905.945.892 1.979 1.707 3.115 2.331l-.026-.013a9.1 9.1 0 00.83.472c.28.14.562.267.855.395.575.255 1.162.458 1.75.662.586.204 1.186.37 1.786.523.268.076.536.127.804.19.422.23.856.447 1.29.65.65.306 1.276.65 1.89 1.007.612.37 1.212.764 1.773 1.185a15.949 15.949 0 013.039 2.968c.42.56.817 1.16 1.136 1.796.166.319.306.637.434.969.09.242.178.51.242.764-.038-.013-.063-.013-.102-.025a3.677 3.677 0 00-.37-.051 4.466 4.466 0 00-.715 0c-.472.025-.945.102-1.404.178-.932.178-1.838.42-2.732.7-1.787.549-3.536 1.236-5.26 1.963a92.217 92.217 0 012.63-.969 51.01 51.01 0 012.668-.853 24.77 24.77 0 012.72-.637c.459-.077.919-.128 1.378-.153.23 0 .46 0 .69.025.114.013.216.026.331.051a.763.763 0 01.153.051.215.215 0 00.064.026l.026.012c.013 0 .025.013.013.013l.23-.114c-.052-.383-.154-.727-.256-1.083a6.794 6.794 0 00-.396-1.045zm-17.182-18.41c.013 0 .013.014.026.014.127.114.255.242.37.356.09.09.166.179.242.268l-.638-.637zm7.098 10.639h.064a.267.267 0 01.076.05l-.14-.05z"/><path d="M16.748 21.765a2.187 2.187 0 01-.089-.268c-.715-.14-1.43-.318-2.132-.522-1.276-.382-2.54-.866-3.638-1.567-.549-.357-1.06-.752-1.442-1.236-.396-.47-.639-1.032-.639-1.605.013-.56.243-1.12.639-1.605.383-.484.893-.88 1.442-1.236 1.098-.7 2.362-1.185 3.638-1.567 2.566-.764 5.272-1.057 7.979-1.108.676 0 1.353 0 2.03.038.676.038 1.352.09 2.016.153.677.076 1.34.165 2.004.28.664.128 1.328.268 1.979.446 1.302.344 2.579.815 3.74 1.503.575.344 1.124.752 1.558 1.262.447.496.753 1.133.791 1.822.013-.688-.255-1.364-.69-1.899-.42-.548-.957-.994-1.531-1.376-1.149-.764-2.438-1.286-3.753-1.707-.306-.089-.626-.178-.945-.267-.395-2.663-1.174-6.192-2.731-8.664l-.78-1.108 1.035 1.02 4.34-1.631s-6.766-2.383-9.906.51c-.957.878-3.178 5.031-5.08 8.79a29.685 29.685 0 012.374-.128 36.258 36.258 0 014.072.179c.613.063 1.213.14 1.825.242a37.037 37.037 0 00-2.361-.115c-.69 0-1.379 0-2.068.038-.69.038-1.379.09-2.055.179-1.366.165-2.732.407-4.073.79-1.327.382-2.655.879-3.855 1.643-.6.382-1.174.828-1.646 1.401a3.448 3.448 0 00-.537.854 3.059 3.059 0 00-.293 1.274c.013.803.357 1.554.83 2.115.472.586 1.046 1.019 1.646 1.401.6.382 1.239.688 1.877.956.65.267 1.302.497 1.978.675.856.242 1.711.433 2.58.573-.933.497-2.069 1.312-3.41 2.65-.714.051-2.45.128-4.2 1.121.103.102.192.204.294.319l.307.356c1.94-.356 4.289 3.224 5.693 2.943 1.468-.293 2.221-4.79 2.375-5.835a12.36 12.36 0 01-.473-.662 6.783 6.783 0 01-.715-1.427zM14.731 35.13c.039.063.064.101.102.152a.567.567 0 00.103.14c.038.051.076.09.114.14.154.179.332.344.537.523.127.114.28.23.434.356l.102-.152c.115-.192.217-.395.332-.6.05-.101.115-.19.153-.292l.14-.306c.294-.599.498-1.236.664-1.873.013-.025.026-.063.038-.089.09-.23.166-.459.256-.688-.051.064-.09.127-.14.178.012-.025.012-.063.025-.089l-.039.102c-.893 1.083-2.131 1.376-3.153 1.911.077.14.154.268.217.395l.115.191zm2.247-.829l-.051.128c-.051.114-.115.242-.166.356.077-.153.153-.318.217-.484zm-.421.905l-.064.127c-.013.013-.026.038-.038.051a.816.816 0 00.102-.178zm5.119 13.058c-.55-.943-4.545-8.88-5.094-9.848-.727-1.312-1.8-1.554-2.553-2.84-.357-.6-.65-1.237-.944-1.874-.051.026-.09.064-.14.09a2.224 2.224 0 01-.69.242c.332.739.664 1.477 1.072 2.178.779 1.338 2.336 2.37 2.617 3.899.243 1.299 4.187 7.363 4.557 8a1.29 1.29 0 001.175.153zM7.596 25.345l-.345.84c.88 1.237 2.004 2.74 2.86 3.95.076.026.153.064.216.102.064.026.115.064.154.077.102.038.217.05.332.05.114 0 .23-.012.331-.05.039-.013.064-.026.102-.039.013 0 .039-.012.052-.012-.69-1.364-1.711-3.287-3.702-4.918zm3.217 5.453a1.91 1.91 0 01-.46-.064c-.191-.064-.408-.23-.6-.23a.332.332 0 00-.255.128c-.204.242-.064.56.178.713.064.039.115.039.09.128-.038.178-.217.28-.217.459 0 .114.05.216.14.28.09.076.217.102.307.178.089.09.127.217.191.319a.594.594 0 00.472.255c.039 0 .077 0 .102-.013-.012 0 .09.178.09.19a1 1 0 00.191.217c.205.179.473.242.74.268.052 0 .103.013.154.013a1.7 1.7 0 00.791-.204c.14-.077.447-.28.32-.471-.052-.077-.154-.102-.243-.102h-.089c-.14.012-.281.038-.434.038h-.051c-.18-.013-.37-.09-.55-.128.358-.063.83-.28.754-.624-.038-.166-.192-.204-.358-.204-.089 0-.178.013-.255.013-.102.013-.204.013-.306.013a1.55 1.55 0 01-.256-.026c-.14-.038-.549-.28-.268-.407.064-.026.14-.026.205-.039.165 0 .344-.012.51-.063a.636.636 0 00.383-.319c.064-.153.038-.357-.102-.458a.37.37 0 00-.23-.064.42.42 0 00-.127.013c-.128.025-.23.076-.358.114a1.34 1.34 0 01-.46.077zM3.46 22.351a4.43 4.43 0 01-.587.013c-.217-.013-.447-.026-.664-.051a11.979 11.979 0 01-.664-.102l2.834 3.02 2.157.93a220 220 0 01-1.455-1.784 208.26 208.26 0 01-1.621-2.026zm2.195-3.911c-.14.293-.28.599-.421.892l-.46.955c-.153.319-.319.625-.472.943-.14.268-.268.535-.408.815.485.701.97 1.414 1.455 2.115.46.688 1.43 2.09 1.43 2.09.408-.93.83-1.848 1.25-2.765L5.656 18.44zm-3.74.267l.408.612c.268.408.51.828.74 1.261.154.28.307.574.46.854l.306-.459c.192-.293.383-.586.588-.879.191-.293.395-.586.6-.879.191-.28.383-.548.574-.828-.421-.076-.842-.166-1.264-.242-.434-.09-.868-.178-1.302-.28-.702-.153-1.404-.319-2.106-.485.191.23.383.472.562.727.153.19.293.395.434.598zm.293 2.982c.217-.026.447-.039.664-.039h.102c-.153-.242-.319-.484-.485-.726a20.677 20.677 0 01-.766-1.261l-.345-.65c-.102-.216-.217-.433-.319-.662a2.533 2.533 0 00-.127-.268c.038.459.076.918.115 1.363.025.42.063.841.089 1.262l.064 1.146.012.013c.115-.026.217-.051.332-.076.217-.039.447-.077.664-.102z"/><path d="M27.765 23.498c.153-.433.255-.88.293-1.338.077-.917-.127-1.847-.472-2.726a9.8 9.8 0 00-.625-1.274 5.933 5.933 0 00-.383-.6c-.039-.05-.064-.088-.102-.14a1.343 1.343 0 01-.077.306 1.417 1.417 0 01-.23.434 1.76 1.76 0 01-.345.344H25.8a8.98 8.98 0 00-2.03-.727 6.39 6.39 0 00-2.144-.114 5.68 5.68 0 00-2.03.662c-.625.344-1.2.79-1.647 1.338l-.485.599.345-.688c.038-.09.09-.166.128-.255.038-.09.076-.178.102-.267.064-.179.076-.37.076-.561 0-.191-.025-.37-.09-.548a1.837 1.837 0 00-.165-.395 4.484 4.484 0 00-.817 1.147c-.23.458-.345.968-.345 1.478s.102 1.019.294 1.503a6.6 6.6 0 00.715 1.363c.293.433.625.828.983 1.21.178.192.37.37.561.548.09.09.205.191.294.293.09.115.179.217.255.344.294.484.447 1.032.498 1.58a5.54 5.54 0 01-.038 1.3c.166-.052.332-.09.485-.154l.383-.152.191-.077.18-.089.37-.178c.114-.064.229-.14.344-.217l.179-.102.166-.127c.102-.09.217-.166.319-.255a5.764 5.764 0 001.085-1.21c.153-.217.28-.459.408-.701.051-.127.115-.242.154-.37.05-.127.089-.254.114-.369l.154-.599.319.51.191.306c.051.102.115.203.153.318.102.217.154.459.192.7.025.205.025.409 0 .612a7.715 7.715 0 001.442-1.44c.294-.381.524-.79.677-1.222zm-3.932-3.733a3.4 3.4 0 01-.715-.153 3.622 3.622 0 01-.676-.318 4.524 4.524 0 01-.307-.217c-.025-.013-.038-.038-.064-.051a3.033 3.033 0 01-.268.178 5.247 5.247 0 01-.536.268 4.35 4.35 0 01-1.149.306c.154-.128.307-.242.46-.37l.46-.344c.153-.114.293-.216.433-.331.14-.115.269-.23.37-.331l.218-.255.255.268.102.101.115.102a8.07 8.07 0 00.804.548c.192.102.383.217.587.319.103.05.205.102.32.152.102.052.217.09.319.153-.243 0-.485 0-.728-.025zm17.77 7.351l1.225.05.383.944 3.051.127-.664-1.605a4.87 4.87 0 00.524-.408c.753-.688 1.148-1.541 1.187-2.573l.23-5.542c.038-1.02-.281-1.911-.97-2.663-.69-.752-1.545-1.146-2.58-1.185l-1.85-.076c-1.021-.038-1.915.28-2.668.968-.753.688-1.15 1.542-1.187 2.574l-.23 5.541c-.038 1.02.28 1.911.97 2.663.69.739 1.545 1.134 2.579 1.185zm-.74-4.663l.19-4.612a.907.907 0 01.294-.637.864.864 0 01.664-.242l1.851.077a.91.91 0 01.638.293.86.86 0 01.243.662l-.23 5.542a.758.758 0 01-.076.344l-.537-1.287-3.038-.14.779 1.886a.857.857 0 01-.575-.306.922.922 0 01-.255-.663l.051-.917zm12.062 5.122c1.021.038 1.915-.28 2.668-.969.753-.688 1.149-1.541 1.187-2.573l.23-5.542-2.808.803-.192 4.611a.907.907 0 01-.294.637.864.864 0 01-.663.242l-.92-.038a.91.91 0 01-.638-.293.86.86 0 01-.242-.662l.191-4.612-2.732-1.032-.23 5.542c-.038 1.019.281 1.91.97 2.662.69.752 1.545 1.147 2.58 1.185l.893.038zm8.325.344l.918.038c1.021.038 1.915-.28 2.668-.969a3.453 3.453 0 001.047-1.681l-2.63-1.007a.907.907 0 01-.293.637.864.864 0 01-.664.242l-.92-.038a.91.91 0 01-.638-.293.86.86 0 01-.242-.662l2.77.114 2.77.115.077-1.847c.038-1.02-.281-1.911-.97-2.663-.69-.752-1.545-1.146-2.58-1.185l-.918-.038c-1.022-.038-1.915.28-2.668.968-.753.688-1.15 1.542-1.187 2.574l-.077 1.847c-.038 1.02.28 1.911.97 2.663a3.532 3.532 0 002.566 1.184zm-.397-6.218a.864.864 0 01.664-.242l.92.038a.91.91 0 01.638.294.86.86 0 01.242.662l-2.77-.115a.973.973 0 01.306-.637zm11.336 3.912a1.14 1.14 0 01-.664.152l-.92-.038c-.255-.012-.472-.089-.638-.255a.667.667 0 01-.255-.522l-2.719 1.058c.115.84.473 1.426 1.073 1.758.6.33 1.404.51 2.438.547l.919.039c1.021.038 1.902-.153 2.642-.6.74-.445 1.136-1.12 1.162-2.012.05-1.083-.281-1.796-.996-2.153-.702-.344-1.621-.612-2.744-.777-1.124-.166-1.685-.344-1.673-.535a.55.55 0 01.294-.459c.191-.115.408-.166.664-.153l.919.038c.255.013.472.09.638.255a.667.667 0 01.255.523l2.72-1.058c-.115-.84-.473-1.427-1.073-1.758-.6-.331-1.404-.51-2.438-.548l-.92-.038c-1.02-.038-1.901.153-2.642.599-.74.446-1.136 1.12-1.161 2.013-.051 1.082.28 1.796.996 2.153.702.344 1.62.611 2.744.777 1.123.165 1.685.344 1.672.535 0 .191-.102.344-.293.459zm8.156-3.517l-.166.242-.255-.165-3.013-1.937-.025-.012 1.519 7.032c.293 1.389 1.047 2.459 2.234 3.223 1.187.765 2.476.994 3.855.7l2.502-.534-.804-3.758-2.502.535a1.212 1.212 0 01-.958-.179 1.255 1.255 0 01-.561-.802l-.805-3.746 3.753-.803-.804-3.745-1.647.357.026.089-.064.089-2.285 3.414zm-5.579-7.236c.281.013.55.038.83.064.268.038.55.063.817.114.064.013.14.026.205.051l-.434-1.095c-.23-.56-.434-1.134-.613-1.72a45.138 45.138 0 01-.498-1.758c-.013-.077-.038-.153-.051-.23-.064.536-.115 1.058-.179 1.593-.127.98-.268 1.962-.421 2.93.013.013.013.026.025.051h.32z"/><path d="M78.227 14.81c-.243.292-.486.598-.715.904l1.276 2.968c.383.917.766 1.847 1.15 2.765l.088.063 2.183-3.006-1.583-6.727c-.51.675-1.034 1.338-1.557 2l-.842 1.032zM76.3 12.019c.216.573.42 1.147.587 1.733l.37 1.21c.178-.178.37-.357.549-.535a31.4 31.4 0 01.931-.93c.613-.599 1.213-1.198 1.839-1.784-1.021-.382-2.017-.815-3.013-1.236a203.54 203.54 0 01-2.413-1.082c.154.318.307.624.447.942.243.548.473 1.122.702 1.682zm3.42 9.287c-.434-.815-.856-1.643-1.277-2.458l-1.468-2.905c-.242-.038-.485-.076-.727-.127-.269-.064-.537-.14-.792-.217-.243-.076-.472-.166-.715-.255a507.858 507.858 0 002.655 4.345l2.324 1.617z"/></symbol><symbol id="icon_mail" viewBox="0 0 15 11"><g id="Слой_2"><path d="M0 0v11h15V0zm7.5 6.32L1.74 1h11.52zm0 1.36L9.3 6l4 4H1.71l4-4zm6.5-6v7.63l-4-4zM5 5.33l-4 4V1.68zM14 10z" id="Слой_1-2"/></g></symbol><symbol id="icon_map" viewBox="0 0 14 18"><g id="Слой_2"><g id="Слой_1-2"><path d="M14 9.57V7A7 7 0 000 7v2.67l.05.09v.06l6.5 8a.51.51 0 00.78 0l6.5-8v-.06l.05-.1s.12-.06.12-.09zm-7 7.14L1 9.32V7a6 6 0 0112 0v2.32z"/><path d="M7 4.5A2.5 2.5 0 109.5 7 2.5 2.5 0 007 4.5zm0 4A1.5 1.5 0 118.5 7 1.5 1.5 0 017 8.5z"/></g></g></symbol><symbol id="icon_mask" viewBox="0 0 15.99 16"><g id="Слой_2"><path d="M16 4.43a16 16 0 00-.48-3.92.68.68 0 00-.33-.43.71.71 0 00-.32-.08h-.22A21.37 21.37 0 018 1a21.5 21.5 0 01-6.65-1h-.22a.68.68 0 00-.66.51A16.51 16.51 0 000 4.43C0 10.82 3.58 16 8 16s8-5.18 8-11.57zM3.2 5.87c0-.57.68-1 1.52-1A1.77 1.77 0 016.23 6.4c0 .58-.68.51-1.51.51s-1.52-.47-1.52-1zM8 13.81a3.3 3.3 0 01-3.28-3.32 3.1 3.1 0 01.09-.69l.11-.13a.19.19 0 01.18 0 4.56 4.56 0 002.9.92 4.57 4.57 0 002.9-.88.19.19 0 01.18 0 .16.16 0 01.11.13 3.1 3.1 0 01.09.69A3.3 3.3 0 018 13.81zM9.76 6.4a1.77 1.77 0 011.51-1.57c.84 0 1.52.47 1.52 1s-.68 1-1.52 1-1.51.17-1.51-.42z" id="Слой_1-2"/></g></symbol><symbol id="icon_phone" viewBox="0 0 20 20"><path d="M10 0C4.478 0 0 4.478 0 10s4.478 10 10 10c5.523 0 10-4.478 10-10S15.523 0 10 0zm5.28 14.591l-.8.801c-.143.143-.562.232-.575.232a9.45 9.45 0 01-6.764-2.765 9.46 9.46 0 01-2.766-6.787c0-.001.092-.408.234-.55l.801-.8c.293-.295.856-.428 1.25-.296l.169.057c.393.131.805.566.914.966l.403 1.479c.108.401-.038.973-.331 1.266l-.535.534a5.679 5.679 0 003.993 3.995l.535-.535c.294-.295.865-.441 1.266-.333l1.478.405c.4.11.835.52.967.913l.056.17c.13.394-.001.956-.294 1.248z"/></symbol><symbol id="icon_planet" viewBox="0 0 42 31"><path d="M40.301 20.988c-1.03-1.078-2.525-2.277-4.449-3.57.819-6.465-2.599-12.98-8.77-15.709A14.513 14.513 0 0015.78 1.49a14.753 14.753 0 00-6.014 4.395c-2.237-.547-4.116-.84-5.592-.872-.803-.018-3.246-.07-3.987 1.658-.766 1.785.806 3.992 4.946 6.944.398.284.815.571 1.249.859-.413 6.164 2.969 12.214 8.856 14.817 1.895.838 3.9 1.258 5.908 1.258 1.822 0 3.646-.346 5.394-1.039a14.753 14.753 0 005.431-3.724c2.346.588 4.455.936 6.106.936.924 0 1.705-.109 2.303-.346.87-.345 1.261-.903 1.436-1.31.738-1.721-.958-3.496-1.515-4.079zM7.58 9.501c-.32.746-.576 1.505-.769 2.27-3.189-2.237-4.156-3.598-4.318-4.085.354-.147 1.74-.502 5.783.397-.254.457-.487.93-.696 1.418zm18.06 17.701a12.087 12.087 0 01-9.414-.182c-4.479-1.981-7.22-6.354-7.408-11.012 2.894 1.729 6.301 3.475 9.938 5.084 3.394 1.501 7.07 2.901 10.464 3.93a12.352 12.352 0 01-3.58 2.181zm6.842-6.688c-.38.886-.85 1.712-1.402 2.47-3.416-.961-7.358-2.406-11.337-4.166-3.982-1.761-7.711-3.708-10.731-5.594.168-.923.441-1.841.826-2.738.371-.864.906-1.78 1.44-2.522a12.305 12.305 0 015.402-4.166 12.178 12.178 0 014.493-.865c1.673 0 3.343.35 4.921 1.048 6.247 2.763 9.113 10.179 6.387 16.533zm1.139 3.117a15.303 15.303 0 001.663-3.602c3.408 2.399 4.089 3.672 4.222 4.035-.464.209-2.107.414-5.884-.433zm-14.065-9.938c2.151 0 3.901-1.774 3.901-3.954s-1.75-3.953-3.901-3.953c-2.15 0-3.9 1.774-3.9 3.953 0 2.18 1.75 3.954 3.9 3.954zm0-5.425c.794 0 1.44.66 1.44 1.472 0 .811-.646 1.472-1.44 1.472-.794 0-1.44-.66-1.44-1.472 0-.812.646-1.472 1.44-1.472z"/></symbol><symbol id="icon_returned" viewBox="0 0 16 16"><path d="M9.616 14.318a6.76 6.76 0 01-.4.086.632.632 0 00-.253 1.143c.137.094.31.137.488.105.159-.03.319-.064.476-.102a.634.634 0 00.469-.77.643.643 0 00-.78-.462zm4.756-8.504a.634.634 0 00.24.319.65.65 0 00.573.084c.337-.11.52-.47.408-.802a7.777 7.777 0 00-.167-.452.646.646 0 00-.836-.354c-.33.13-.49.5-.358.825a6.4 6.4 0 01.14.38zm-2.665 7.598a6.916 6.916 0 01-.349.213.63.63 0 00-.05 1.068.651.651 0 00.693.03c.14-.079.28-.164.415-.252a.63.63 0 00.182-.879.648.648 0 00-.891-.18zm4.287-5.826a.64.64 0 00-.668-.61.638.638 0 00-.617.66c.005.134.006.27.003.403a.631.631 0 00.273.533c.101.07.223.113.356.116a.64.64 0 00.657-.62c.004-.16.002-.322-.004-.482zm-1.726 4.157a.649.649 0 00-.9.127 6.729 6.729 0 01-.257.316.629.629 0 00.12.93.65.65 0 00.86-.108c.105-.121.208-.248.305-.376a.629.629 0 00-.128-.889zm.945-2.293a.645.645 0 00-.806.415c-.04.128-.086.256-.134.382a.63.63 0 00.372.819.646.646 0 00.83-.367 8.02 8.02 0 00.16-.454.633.633 0 00-.422-.795zM6.81 14.41a6.705 6.705 0 01-1.65-.518l-.018-.01a7.079 7.079 0 01-.366-.182l-.002-.001a6.857 6.857 0 01-.64-.395C1.11 11.202.382 7.064 2.514 4.08a6.64 6.64 0 011.65-1.62l.023-.015a6.794 6.794 0 017.533-.061l-.503.716c-.14.2-.053.345.191.323l2.183-.193c.245-.021.391-.23.326-.463L13.33.683c-.065-.233-.233-.261-.373-.062l-.504.718A8.031 8.031 0 006.024.246H6.02l-.023.007A7.937 7.937 0 001.6 3.161l-.027.033a7.484 7.484 0 00-.278.396l-.018.03A7.743 7.743 0 00.008 8.234v.016c.007.16.02.32.038.48 0 .01.003.02.005.03a7.795 7.795 0 002.307 4.726l.008.008c0 .002.002.002.003.003a8.078 8.078 0 004.214 2.162.642.642 0 00.746-.513.635.635 0 00-.519-.737z"/><path d="M7.606 2.765a.517.517 0 00-.521.514v5.114l4.742 2.418a.525.525 0 00.701-.22.51.51 0 00-.223-.692l-4.18-2.13v-4.49a.517.517 0 00-.52-.514z"/></symbol><symbol id="icon_ruble" viewBox="0 0 12 12"><path d="M6.751 3.99H5.492v1.517h1.26a.76.76 0 000-1.517z"/><path d="M10.242 1.759a5.995 5.995 0 00-8.484 0 5.995 5.995 0 000 8.483 5.995 5.995 0 008.484 0 5.995 5.995 0 000-8.483zM6.75 6.493H5.49v.516H6.5a.493.493 0 010 .986H5.49v.508a.493.493 0 01-.985 0v-.508h-.508a.493.493 0 110-.986h.508v-.516h-.508a.493.493 0 110-.985h.508v-2.01c0-.272.22-.493.493-.493H6.75c.961 0 1.744.783 1.744 1.744 0 .962-.783 1.744-1.744 1.744z"/></symbol><symbol id="icon_search" viewBox="0 0 19 19"><path d="M18.393 17.306l-4.522-4.703a7.646 7.646 0 001.8-4.932C15.67 3.441 12.229 0 7.999 0 3.77 0 .33 3.441.33 7.671S3.77 15.342 8 15.342a7.589 7.589 0 004.395-1.388l4.557 4.74c.19.197.446.306.72.306a1.002 1.002 0 00.721-1.694zM7.999 2.001a5.676 5.676 0 015.67 5.67A5.676 5.676 0 018 13.341a5.676 5.676 0 01-5.67-5.67A5.676 5.676 0 018 2.001z"/></symbol><symbol id="icon_share" viewBox="0 0 29 29"><path d="M22.98 18.63a5.19 5.19 0 00-4.107 2.024l-7.967-4.45a5.203 5.203 0 00.29-1.71 5.08 5.08 0 00-.296-1.716l7.96-4.444a5.177 5.177 0 004.113 2.035 5.192 5.192 0 005.185-5.184A5.189 5.189 0 0022.973 0a5.189 5.189 0 00-5.184 5.185c0 .602.102 1.18.295 1.716l-7.955 4.444a5.16 5.16 0 00-4.112-2.036 5.192 5.192 0 00-5.185 5.185c0 2.86 2.33 5.185 5.19 5.185a5.186 5.186 0 004.12-2.042l7.96 4.45a5.161 5.161 0 00-.301 1.728A5.192 5.192 0 0022.985 29a5.189 5.189 0 005.185-5.185c0-2.86-2.33-5.184-5.19-5.184zm0-16.998a3.562 3.562 0 013.558 3.559 3.562 3.562 0 01-3.558 3.558 3.562 3.562 0 01-3.56-3.558 3.566 3.566 0 013.56-3.56zM6.023 18.052a3.562 3.562 0 01-3.56-3.558 3.562 3.562 0 013.56-3.559 3.562 3.562 0 013.558 3.559 3.566 3.566 0 01-3.558 3.559zm16.957 9.316a3.562 3.562 0 01-3.56-3.559 3.562 3.562 0 013.56-3.558 3.562 3.562 0 013.558 3.558 3.562 3.562 0 01-3.558 3.56z"/></symbol><symbol id="icon_sheldue" viewBox="0 0 16 16"><g id="Слой_2"><g id="Слой_1-2"><path d="M13 0H3a3 3 0 00-3 3v10a3 3 0 003 3h10a3 3 0 003-3V3a3 3 0 00-3-3zm2 13a2 2 0 01-2 2H3a2 2 0 01-2-2V4h14zM1 3a2 2 0 012-2h10a2 2 0 012 2z"/><path d="M4.85 7.9a1.71 1.71 0 00.25-.32v3.53H3.87V12h3.47v-.89H6.11V6.32h-.9L3.78 7.69l.61.64zm5.22 4.2c1.55 0 2-1.32 2-2.95s-.5-2.93-2-2.93S8 7.52 8 9.15s.51 2.95 2.07 2.95zm0-4.92c.77 0 1 .87 1 2s-.23 2-1 2-1-.88-1-2 .22-2 1-2z"/></g></g></symbol><symbol id="icon_star" viewBox="0 0 10 10"><path d="M5.236.165l1.272 3.157 3.257.293c.226.02.318.316.146.472L7.441 6.33l.74 3.338c.052.232-.188.415-.382.291L5 8.19 2.202 9.96c-.195.123-.434-.06-.383-.29l.74-3.34L.09 4.087c-.171-.155-.08-.451.146-.471l3.257-.294L4.764.165a.252.252 0 01.472 0z"/></symbol><symbol id="icon_ta" viewBox="0 0 22 13"><path d="M13.482.201c.614.085 1.215.237 1.809.417 1.037.314 2.016.751 2.936 1.318a.455.455 0 00.225.064c1.081.004 2.162.003 3.242.004l.261.014-.001.035-.152.228c-.367.554-.68 1.133-.865 1.773-.02.069-.024.126.023.194.962 1.361 1.27 2.854.867 4.465-.353 1.412-1.175 2.513-2.424 3.293-.893.557-1.88.823-2.934.829a5.195 5.195 0 01-1.316-.166 5.533 5.533 0 01-2.702-1.57l-.295-.326-1.178 1.729-1.159-1.705-.039.02-.023.024c-.901 1.047-2.034 1.689-3.414 1.904a5.402 5.402 0 01-2.274-.126 5.438 5.438 0 01-2.681-1.645A5.302 5.302 0 01.072 8.217c-.189-.976.041-1.916.099-2.145a5.4 5.4 0 01.858-1.833l.025-.158C.891 3.493.61 2.958.281 2.445l-.276-.376v-.044l.055.006 3.318-.001.143-.045A12 12 0 015.996.802 13.666 13.666 0 017.917.289C8.55.169 9.185.084 9.828.042c1.567-.119 2.819.045 3.652.16zm-1.387 7.192c0 2.391 1.971 4.345 4.391 4.336 2.43-.009 4.392-1.907 4.39-4.325-.002-2.492-2.055-4.365-4.484-4.316-2.398.049-4.275 1.952-4.297 4.305zM5.508 3.071c-2.363-.02-4.423 1.921-4.382 4.394.038 2.306 1.969 4.261 4.431 4.24 2.407-.02 4.342-1.955 4.346-4.299.004-2.407-1.955-4.336-4.395-4.336zm.218-1.128c1.335.08 2.507.538 3.498 1.425.989.885 1.568 1.989 1.778 3.288.216-1.283.78-2.377 1.751-3.253.972-.877 2.129-1.338 3.441-1.435-1.558-.682-3.201-.971-4.892-1.004-1.922-.037-3.791.242-5.576.979zm10.751 2.722c1.503-.002 2.721 1.19 2.721 2.668 0 1.484-1.197 2.631-2.609 2.684-1.577.059-2.839-1.177-2.838-2.678.001-1.518 1.272-2.7 2.726-2.675zM18.25 7.34a1.76 1.76 0 00-1.766-1.749c-.984 0-1.786.78-1.79 1.742-.004.958.802 1.754 1.777 1.757.977.004 1.779-.787 1.779-1.75zM5.448 4.665C6.95 4.663 8.17 5.858 8.166 7.336c-.004 1.496-1.202 2.618-2.589 2.681-1.583.071-2.861-1.171-2.858-2.68.003-1.528 1.283-2.697 2.729-2.672zm1.771 2.669c-.003-.971-.8-1.744-1.795-1.743-.96.002-1.764.799-1.762 1.748.002.96.806 1.749 1.784 1.751.972.002 1.776-.795 1.774-1.757zm9.26-.882c.498 0 .907.402.902.889a.897.897 0 01-.896.885c-.505 0-.91-.392-.909-.879a.889.889 0 01.903-.896zM5.445 6.444c.506 0 .912.397.914.894a.906.906 0 01-.912.897.89.89 0 01-.912-.901c0-.501.397-.889.91-.89z"/></symbol><symbol id="icon_time" viewBox="0 0 16 16"><path d="M8 0C3.6 0 0 3.6 0 8s3.6 8 8 8 8-3.6 8-8-3.6-8-8-8zm3.5 9.5H8.1c-.4 0-.7-.2-.7-.5V3.3c0-.3.3-.5.6-.5s.6.2.6.6v5.1h2.9c.3-.1.5.2.5.5s-.2.5-.5.5z"/></symbol><symbol id="icon_train" viewBox="0 0 12 12"><path d="M6 0C3.112 0 .75.316.75 2.526v6c0 1.2 1.05 2.21 2.297 2.21l-.984.947v.316h7.875v-.316l-.984-.947c1.247 0 2.297-1.01 2.297-2.21v-6C11.251.315 8.888 0 6.001 0zM3.047 9.474c-.525 0-.984-.442-.984-.947 0-.505.459-.947.984-.947.525 0 .984.442.984.947 0 .505-.459.947-.984.947zm2.297-3.789H2.063V2.527h3.281v3.158zm3.609 3.789c-.525 0-.984-.442-.984-.947 0-.505.459-.947.984-.947.525 0 .984.442.984.947 0 .505-.459.947-.984.947zm.984-3.789H6.656V2.527h3.281v3.158z"/></symbol><symbol id="icon_user-lk" viewBox="0 0 49 65"><path d="M24.495 31.668c7.14 0 12.928-7.086 12.928-15.826 0-8.742-1.9-15.827-12.928-15.827S11.566 7.1 11.566 15.84s5.789 15.827 12.93 15.827zM.077 55.836c-.002-.533-.005-.15 0 0zm48.837.412c.007-.146.002-1.012 0 0z"/><path d="M48.888 55.196c-.24-15.227-2.213-19.566-17.311-22.312 0 0-2.126 2.73-7.08 2.73-4.954 0-7.08-2.73-7.08-2.73C2.484 35.6.39 39.875.116 54.701c-.022 1.211-.033 1.275-.037 1.134.001.264.002.75.002 1.6 0 0 3.595 7.304 24.417 7.304 20.822 0 24.417-7.304 24.417-7.304l.001-1.183c-.004.087-.012-.082-.027-1.056z"/></symbol><symbol id="icon_user" viewBox="0 0 14 14"><path d="M7.138 8a4 4 0 100-8 4 4 0 000 8zM7 7.275c-3.866 0-7 3.011-7 6.725h14c0-3.714-3.134-6.725-7-6.725z"/></symbol><symbol id="icon_vk" viewBox="0 0 20 12"><path d="M19.894 10.536l-.068-.133c-.347-.639-1.01-1.423-1.989-2.353l-.021-.021-.01-.01-.011-.011h-.011c-.444-.433-.726-.724-.843-.873-.216-.284-.264-.571-.146-.863.083-.22.396-.685.937-1.395l.677-.905c1.201-1.633 1.722-2.676 1.562-3.13l-.062-.106c-.042-.064-.149-.122-.323-.176-.174-.053-.396-.062-.667-.027L15.92.554a.378.378 0 00-.208.005l-.135.032-.052.027-.041.032-.115.112-.104.186a17.672 17.672 0 01-1.114 2.395c-.257.44-.493.822-.708 1.145a5.494 5.494 0 01-.541.713 3.66 3.66 0 01-.396.367c-.118.092-.208.131-.271.117l-.177-.043a.705.705 0 01-.234-.261 1.192 1.192 0 01-.12-.415l-.036-.431.005-.511.01-.447c0-.27.005-.563.015-.878l.026-.75.01-.586c0-.206-.012-.367-.037-.484a1.714 1.714 0 00-.109-.341.58.58 0 00-.213-.256 1.21 1.21 0 00-.349-.144C10.658.053 10.19.007 9.62 0 8.329-.014 7.499.071 7.131.256a1.42 1.42 0 00-.396.319c-.125.156-.142.241-.052.255.417.064.712.216.885.458l.063.128c.049.092.097.256.146.49.049.234.08.493.094.777.035.518.035.962 0 1.331s-.068.657-.099.862a1.716 1.716 0 01-.141.5l-.125.234-.052.053a.77.77 0 01-.281.053c-.097 0-.215-.05-.354-.149a2.484 2.484 0 01-.432-.41c-.149-.174-.318-.417-.505-.729s-.382-.681-.583-1.107l-.167-.309c-.104-.199-.246-.488-.427-.868s-.34-.747-.479-1.102a.699.699 0 00-.25-.341L3.924.669 3.757.578l-.24-.069L.664.53C.372.53.175.598.07.732L.028.796l-.031.17c0 .078.021.174.063.287a35.458 35.458 0 001.359 2.896c.489.93.915 1.679 1.276 2.246a26.55 26.55 0 001.104 1.608c.375.504.623.827.744.969l.286.319.26.255c.167.17.411.374.734.612s.68.472 1.073.703a5.71 5.71 0 001.369.564 4.63 4.63 0 001.52.176h1.198c.243-.021.427-.1.552-.234l.041-.053.078-.197c.024-.089.037-.186.037-.293-.007-.305.016-.58.068-.825.052-.245.111-.429.177-.554.066-.124.141-.229.224-.314l.177-.154.083-.037c.167-.057.363-.002.588.165.226.167.437.373.635.618s.436.52.713.825c.278.305.521.532.729.682l.208.128c.139.085.32.163.542.234.222.071.416.089.583.053l2.666-.042c.264 0 .469-.045.614-.133.146-.089.232-.186.26-.293a.841.841 0 00.005-.362l-.073-.282z"/></symbol><symbol id="icon_vkminiapp" viewBox="0 0 42 42"><g id="Слой_2"><g id="Слой_1-2"><path d="M30.89 22.52a.81.81 0 00-.06-.13 10.58 10.58 0 00-2-2.35 11.36 11.36 0 01-.85-.87.83.83 0 01-.14-.86 7.76 7.76 0 01.93-1.39l.68-.9c1.2-1.63 1.72-2.68 1.56-3.13l-.06-.1a.55.55 0 00-.32-.18 1.79 1.79 0 00-.67 0h-3a.52.52 0 00-.21 0h-.18a.56.56 0 00-.11.11.57.57 0 00-.1.19 17.55 17.55 0 01-1.12 2.39c-.26.44-.49.82-.71 1.14a4.72 4.72 0 01-.54.71 3.17 3.17 0 01-.39.37.42.42 0 01-.27.12h-.18a.78.78 0 01-.24-.27 1.33 1.33 0 01-.21-.37 3.73 3.73 0 010-.43V13.4a2.87 2.87 0 000-.48 1.35 1.35 0 00-.11-.34.61.61 0 00-.21-.26 1.42 1.42 0 00-.35-.14 6.68 6.68 0 00-1.41-.18 6.65 6.65 0 00-2.49.26 1.28 1.28 0 00-.39.32c-.13.15-.15.24 0 .25a1.25 1.25 0 01.88.46l.06.13a2 2 0 01.15.48 4.64 4.64 0 01.09.78 7.33 7.33 0 010 1.33c0 .37-.07.65-.1.86a1.49 1.49 0 01-.14.5 1.88 1.88 0 01-.12.23l-.05.06a.93.93 0 01-.29.05.66.66 0 01-.35-.15 2.68 2.68 0 01-.43-.41 5.51 5.51 0 01-.51-.73c-.18-.31-.38-.68-.58-1.1l-.22-.32-.42-.87c-.18-.38-.34-.74-.48-1.1a.74.74 0 00-.23-.33h-.05a.65.65 0 00-.17-.09l-.24-.07h-2.85a.76.76 0 00-.6.2v.07A.34.34 0 0011 13a.93.93 0 00.06.29c.42 1 .87 2 1.36 2.89s.92 1.67 1.28 2.24.73 1.1 1.1 1.6.62.83.75 1 .21.25.28.32l.26.26a6.32 6.32 0 00.74.61c.32.23.68.47 1.07.7a5.53 5.53 0 001.37.56 4.49 4.49 0 001.52.18H22a.81.81 0 00.55-.24v-.05a.81.81 0 00.08-.2 1.29 1.29 0 000-.29 4.11 4.11 0 01.07-.82 2 2 0 01.18-.56 1.44 1.44 0 01.22-.31c.09-.08.14-.14.18-.15h.08a.65.65 0 01.59.16 3.73 3.73 0 01.64.62c.19.25.43.52.71.82a4.87 4.87 0 00.73.69l.21.12a2.29 2.29 0 00.54.24 1.09 1.09 0 00.58.05h2.67a1.15 1.15 0 00.61-.14.48.48 0 00.26-.29.85.85 0 000-.36 1.24 1.24 0 00-.01-.42z"/><path d="M34 42H8a8 8 0 01-8-8V8a8 8 0 018-8h26a8 8 0 018 8v26a8 8 0 01-8 8zM8 1a7 7 0 00-7 7v26a7 7 0 007 7h26a7 7 0 007-7V8a7 7 0 00-7-7z"/><path d="M9.07 35h.78l.15-2.38v-.67s.14.42.23.67l.77 1.65h.67l.69-1.65c.1-.25.24-.66.24-.66a5.07 5.07 0 000 .66l.15 2.38h.77l-.34-4.26h-.83l-.84 2.11c-.09.25-.21.62-.21.62s-.11-.37-.21-.62l-.84-2.11h-.83zm5.19-3.58H15v-.68h-.76zm0 3.58H15v-3.06h-.76zm1.58 0h.76v-1.43a.92.92 0 01.88-1c.38 0 .48.26.48.63V35h.76v-2c0-.81-.39-1.16-1.07-1.16a1.18 1.18 0 00-1.08.65v-.58h-.73zm3.67-3.58h.76v-.68h-.76zm0 3.58h.76v-3.06h-.76zM22 35h.8l.36-1.09h1.49l.41 1.09h.79l-1.5-4.26h-.81zm1.35-1.72l.38-1.14c.07-.24.17-.66.17-.66s.1.42.17.66l.38 1.14zM26.41 35h.78v-1.47h.87a1.32 1.32 0 001.35-1.4 1.3 1.3 0 00-1.35-1.39h-1.65zm.78-2.14v-1.45h.74a.66.66 0 01.7.72.67.67 0 01-.72.73zM30.11 35h.77v-1.47h.87a1.32 1.32 0 001.36-1.4 1.31 1.31 0 00-1.36-1.39h-1.64zm.77-2.14v-1.45h.74a.66.66 0 01.7.72.67.67 0 01-.71.73z"/></g></g></symbol><symbol id="icon_warning" viewBox="0 0 12 12"><path d="M10.245 1.756a6.01 6.01 0 00-8.49 0 6.01 6.01 0 000 8.49A5.982 5.982 0 006 12a5.982 5.982 0 004.245-1.756 6.01 6.01 0 000-8.489zM6 10.003a.5.5 0 110-1.001.5.5 0 010 1zM6.5 7.5a.5.5 0 11-1 0v-5a.5.5 0 111 0v5.002z"/></symbol><symbol id="icon_yt" viewBox="0 0 20 13"><path d="M19.15 1.226C18.608.333 18.019.168 16.82.106 15.623.031 12.611 0 10.002 0 7.388 0 4.376.031 3.18.105 1.984.169 1.394.332.846 1.226.287 2.118 0 3.655 0 6.36v.008c0 2.694.287 4.242.846 5.124.548.893 1.136 1.055 2.333 1.13 1.197.065 4.21.103 6.824.103 2.609 0 5.62-.038 6.819-.102 1.199-.075 1.787-.237 2.33-1.131.564-.883.849-2.431.849-5.124v-.009c0-2.706-.285-4.243-.85-5.135zM7.5 9.834V2.892l6.25 3.471L7.5 9.834z"/></symbol></svg>