<svg width="31" height="37" viewBox="0 0 31 37" fill="none" xmlns="http://www.w3.org/2000/svg">
<path d="M15.5 15C17.433 15 19 12.0899 19 8.5C19 4.91015 17.433 2 15.5 2C13.567 2 12 4.91015 12 8.5C12 12.0899 13.567 15 15.5 15Z" fill="#AEC2CC"/>
<path d="M12.1018 8.49946C12.1018 5.79786 13.431 3.39171 15.4994 1.83486C13.974 0.686847 12.0467 0 9.94851 0C5.00708 0 1 3.806 1 8.49946C1 13.1929 5.00708 16.9989 9.94851 16.9989C12.0456 16.9989 13.974 16.3121 15.4994 15.164C13.431 13.6072 12.1018 11.2021 12.1018 8.49946Z" fill="#9AAEB8"/>
<path d="M21.0504 0C18.9533 0 17.025 0.686847 15.4995 1.83486C17.5691 3.39171 18.8971 5.79786 18.8971 8.49946C18.8971 11.2011 17.5679 13.6072 15.4995 15.164C17.025 16.3121 18.9522 16.9989 21.0504 16.9989C25.993 16.9989 29.9989 13.1929 29.9989 8.49946C29.9989 3.806 25.993 0 21.0504 0Z" fill="#C2D6E0"/>
<g clip-path="url(#clip0)">
<path d="M30.9998 36.839C30.2258 36.839 29.4519 36.839 28.6659 36.839C28.5807 36.4296 28.4892 36.0287 28.4165 35.6244C28.3868 35.4566 28.333 35.3915 28.1454 35.3943C27.2095 35.4063 26.2737 35.4035 25.3378 35.396C25.196 35.3949 25.1399 35.4417 25.097 35.5702C24.9683 35.9551 24.827 36.3365 24.6829 36.7163C24.6634 36.7677 24.5982 36.8385 24.5542 36.839C23.7104 36.8465 22.8672 36.8442 21.9989 36.8442C22.1568 36.4639 22.3067 36.1007 22.4588 35.7387C23.5462 33.1484 24.6342 30.5582 25.7222 27.9674C25.9579 27.4067 26.3109 27.1714 26.9189 27.1714C27.5962 27.1714 28.2735 27.1714 28.9679 27.1714C29.0354 27.4872 29.1041 27.7984 29.1693 28.1102C29.7047 30.6701 30.2384 33.2301 30.775 35.79C30.8436 36.1178 30.9249 36.4433 31.0004 36.7699C30.9998 36.7934 30.9998 36.8162 30.9998 36.839ZM27.9452 33.4043C27.6963 32.2136 27.4509 31.0396 27.2055 29.865C27.1952 29.8633 27.1855 29.861 27.1752 29.8593C26.7479 31.0367 26.32 32.2136 25.8876 33.4043C26.5866 33.4043 27.2553 33.4043 27.9452 33.4043Z" fill="#9AAEB8"/>
<path d="M20.8332 27C21.141 27.0571 21.4516 27.1039 21.7565 27.1742C22.0345 27.2381 22.3074 27.3278 22.6031 27.4117C22.4538 28.1078 22.3085 28.7868 22.1661 29.4515C21.7759 29.3373 21.403 29.2059 21.0197 29.1214C20.4952 29.0061 19.958 28.9621 19.4335 29.1077C19.2201 29.1671 19.0045 29.2807 18.8363 29.4246C18.5486 29.6707 18.5446 30.0254 18.8197 30.284C19.0096 30.4622 19.2339 30.609 19.4587 30.7437C19.9695 31.0504 20.5055 31.317 21.0014 31.6442C21.586 32.0297 22.0122 32.5602 22.1014 33.2768C22.2599 34.5445 21.7903 35.5433 20.7234 36.2497C20.0524 36.6939 19.2933 36.8921 18.5022 36.9657C17.3976 37.0685 16.3154 36.9446 15.26 36.5986C15.189 36.5751 15.1204 36.5466 15.0512 36.518C15.0306 36.5095 15.0128 36.4946 14.9814 36.4752C15.1307 35.7786 15.28 35.0802 15.4333 34.363C15.6129 34.4412 15.7822 34.52 15.9544 34.5891C16.7787 34.9209 17.6305 35.0722 18.5125 34.9071C18.7419 34.8643 18.9764 34.7632 19.1709 34.6331C19.5931 34.3504 19.6337 33.8193 19.2493 33.4876C18.9965 33.2694 18.6927 33.1084 18.405 32.9331C17.9554 32.6595 17.4771 32.4266 17.0516 32.1205C16.5058 31.7282 16.1111 31.2051 16.0362 30.5096C15.9241 29.4686 16.3108 28.6229 17.1116 27.9662C17.8084 27.3946 18.6355 27.141 19.5164 27.0343C19.5656 27.0286 19.6131 27.0114 19.6612 27C20.0519 27 20.4426 27 20.8332 27Z" fill="#9AAEB8"/>
<path d="M11.7581 27.1798C11.6271 27.4945 11.5029 27.7948 11.3771 28.0946C10.1758 30.9549 8.97343 33.8141 7.77732 36.6767C7.72011 36.8132 7.65032 36.8492 7.51189 36.848C6.75395 36.8418 5.99544 36.8395 5.2375 36.8498C5.07676 36.852 5.02471 36.7955 4.98753 36.6516C4.34514 34.1516 3.69188 31.6539 3.05635 29.1522C2.93966 28.6931 2.70627 28.3796 2.26867 28.1871C1.56736 27.8788 0.839167 27.6623 0.096673 27.4865C0.0634953 27.4785 0.0308896 27.4699 0 27.4625C0.00343218 27.1724 0.00343217 27.1724 0.280295 27.1724C1.60683 27.1724 2.93337 27.1718 4.26048 27.1724C4.88971 27.1724 5.3439 27.5373 5.46288 28.1591C5.79981 29.9191 6.1293 31.6807 6.46222 33.4418C6.47652 33.5189 6.49311 33.5954 6.51542 33.7039C6.54974 33.6394 6.57376 33.6028 6.58921 33.5634C7.41293 31.4826 8.23723 29.4023 9.05694 27.3203C9.10156 27.2067 9.15705 27.1678 9.28004 27.169C10.0494 27.1753 10.8194 27.1718 11.5887 27.1724C11.6379 27.1724 11.6877 27.177 11.7581 27.1798Z" fill="#9AAEB8"/>
<path d="M10.7537 36.8446C11.447 33.6114 12.1351 30.401 12.825 27.1826C13.6641 27.1826 14.4936 27.1826 15.3385 27.1826C15.2338 27.6726 15.1314 28.1534 15.0284 28.6342C14.4587 31.2924 13.8872 33.9505 13.3244 36.6104C13.2855 36.7955 13.2197 36.8537 13.0275 36.8503C12.3388 36.8371 11.6495 36.8451 10.9602 36.8451C10.8984 36.8446 10.8366 36.8446 10.7537 36.8446Z" fill="#9AAEB8"/>
</g>
<defs>
<clipPath id="clip0">
<rect y="27" width="31" height="10" fill="white"/>
</clipPath>
</defs>
</svg>
