<svg width="62" height="71" viewBox="0 0 62 71" fill="none" xmlns="http://www.w3.org/2000/svg">
<path d="M26.6992 27.5L13.1992 49" stroke="#3E357F" stroke-width="3" stroke-miterlimit="10" stroke-linecap="round" stroke-linejoin="round"/>
<path d="M32.6994 30.7998L18.8994 52.5998" stroke="#3E357F" stroke-width="3" stroke-miterlimit="10" stroke-linecap="round" stroke-linejoin="round"/>
<path d="M44.7 12.8999L41 18.7999" stroke="#3E357F" stroke-width="3" stroke-miterlimit="10" stroke-linecap="round" stroke-linejoin="round"/>
<path d="M38.3996 9.1001L34.5996 15.0001" stroke="#3E357F" stroke-width="3" stroke-miterlimit="10" stroke-linecap="round" stroke-linejoin="round"/>
<path d="M20.2381 53.9596L11.2041 48.2266L1.45254 63.5928L10.4866 69.3259L20.2381 53.9596Z" stroke="#3E357F" stroke-width="3" stroke-miterlimit="10" stroke-linecap="round" stroke-linejoin="round"/>
<path d="M22.3 15.3002C22.3 14.8002 21.9 14.5002 21.5 14.5002H19.3C19.4 14.4002 19.4 14.2002 19.4 14.0002C19.4 13.8002 19.3 13.6002 19.2 13.4002H20.5C21 13.4002 21.3 13.0002 21.3 12.5002C21.3 12.0002 20.9 11.7002 20.5 11.7002H9.5C9 11.7002 8.7 12.1002 8.7 12.5002C8.7 13.0002 9.1 13.4002 9.5 13.4002H15.2C15.1 13.6002 15 13.8002 15 14.0002C15 14.2002 15 14.3002 15.1 14.5002H5.3C4.8 14.5002 4.5 14.9002 4.5 15.3002C4.5 15.8002 4.9 16.1002 5.3 16.1002H7.6C7.5 16.2002 7.4 16.4002 7.4 16.6002C7.4 16.8002 7.5 17.0002 7.6 17.1002H7.2C6.7 17.1002 6.4 17.5002 6.4 17.9002C6.4 18.4002 6.8 18.7002 7.2 18.7002H18.2C18.7 18.7002 19.1 18.3002 19.1 17.9002C19.1 17.4002 18.7 17.1002 18.2 17.1002H11.7C11.8 17.0002 11.9 16.8002 11.9 16.6002C11.9 16.4002 11.8 16.2002 11.7 16.1002H21.4C21.9 16.2002 22.3 15.8002 22.3 15.3002Z" fill="#F1F2F2"/>
<path d="M42.0223 19.6413L32.9883 13.9082L25.4335 25.8128L34.4675 31.5459L42.0223 19.6413Z" stroke="#EE3961" stroke-width="3" stroke-miterlimit="10" stroke-linecap="round" stroke-linejoin="round"/>
<path d="M47.5992 1.5L37.1992 6.1L47.8992 12.9L47.5992 1.5Z" stroke="#3E357F" stroke-width="3" stroke-miterlimit="10" stroke-linecap="round" stroke-linejoin="round"/>
<path d="M37.4999 16.7998C32.3999 13.5998 29.2999 8.3998 28.3999 2.7998C23.9999 4.1998 19.9999 7.0998 17.2999 11.2998C14.3999 15.7998 13.5999 20.9998 14.5999 25.8998C19.6999 24.5998 25.3999 25.2998 30.1999 28.3998C34.9999 31.4998 38.0999 36.2998 39.0999 41.4998C43.8999 40.2998 48.2999 37.2998 51.1999 32.7998C53.8999 28.5998 54.7999 23.6998 54.0999 19.0998C48.6999 20.6998 42.5999 19.9998 37.4999 16.7998Z" stroke="#EE3961" stroke-width="3" stroke-miterlimit="10" stroke-linecap="round" stroke-linejoin="round"/>
<path d="M43.5996 31.5998C44.0996 31.0998 44.5996 30.4998 45.0996 29.7998C45.5996 29.0998 45.8996 28.4998 46.2996 27.7998" stroke="#EE3961" stroke-width="3" stroke-miterlimit="10" stroke-linecap="round" stroke-linejoin="round"/>
<path d="M31.5992 61.4C31.5992 61.8 31.1992 62.2 30.7992 62.2H28.6992C28.7992 62.3 28.7992 62.5 28.7992 62.6C28.7992 62.8 28.6992 63 28.5992 63.1H29.7992C30.1992 63.1 30.5992 63.5 30.5992 63.9C30.5992 64.3 30.1992 64.7 29.7992 64.7H19.3992C18.9992 64.7 18.5992 64.3 18.5992 63.9C18.5992 63.5 18.9992 63.1 19.3992 63.1H24.7992C24.6992 63 24.5992 62.8 24.5992 62.6C24.5992 62.4 24.5992 62.3 24.6992 62.2H15.4992C15.0992 62.2 14.6992 61.8 14.6992 61.4C14.6992 61 15.0992 60.6 15.4992 60.6H17.6992C17.5992 60.5 17.4992 60.3 17.4992 60.1C17.4992 59.9 17.5992 59.7 17.6992 59.6H17.2992C16.8992 59.6 16.4992 59.2 16.4992 58.8C16.4992 58.4 16.8992 58 17.2992 58H27.6992C28.0992 58 28.4992 58.4 28.4992 58.8C28.4992 59.2 28.0992 59.6 27.6992 59.6H21.5992C21.6992 59.7 21.7992 59.9 21.7992 60.1C21.7992 60.3 21.6992 60.4 21.5992 60.6H30.7992C31.1992 60.6 31.5992 61 31.5992 61.4Z" fill="#F1F2F2"/>
<path d="M60.5921 11.1443C61.2875 10.2161 61.0988 8.89995 60.1706 8.20454C59.2424 7.50912 57.9263 7.69782 57.2308 8.62601C56.5354 9.5542 56.7241 10.8704 57.6523 11.5658C58.5805 12.2612 59.8967 12.0725 60.5921 11.1443Z" stroke="#F7941E" stroke-width="2" stroke-miterlimit="10" stroke-linecap="round" stroke-linejoin="round"/>
<path d="M47.2998 57.1001L50.8998 59.4001" stroke="#56BC77" stroke-width="2" stroke-miterlimit="10" stroke-linecap="round" stroke-linejoin="round"/>
<path d="M50.2 56.3999L48 60.0999" stroke="#56BC77" stroke-width="2" stroke-miterlimit="10" stroke-linecap="round" stroke-linejoin="round"/>
<path d="M4.09941 35.2998L7.79941 37.5998L3.89941 39.6998L4.09941 35.2998Z" stroke="#F7941E" stroke-miterlimit="10" stroke-linecap="round" stroke-linejoin="round"/>
</svg>
