<svg width="72" height="70" viewBox="0 0 72 70" fill="none" xmlns="http://www.w3.org/2000/svg">
<path d="M22.1996 59.4001C22.1996 60.0001 21.6996 60.4001 21.0996 60.4001H18.3996C18.4996 60.6001 18.5996 60.8001 18.5996 61.0001C18.5996 61.3001 18.4996 61.5001 18.2996 61.7001H19.8996C20.4996 61.7001 20.8996 62.2001 20.8996 62.8001C20.8996 63.4001 20.3996 63.8001 19.8996 63.8001H6.19961C5.59961 63.8001 5.09961 63.3001 5.09961 62.8001C5.09961 62.2001 5.59961 61.7001 6.19961 61.7001H13.2996C13.0996 61.5001 12.9996 61.2001 12.9996 61.0001C12.9996 60.8001 13.0996 60.6001 13.1996 60.4001H1.09961C0.499609 60.4001 0.0996094 59.9001 0.0996094 59.4001C0.0996094 58.8001 0.599609 58.4001 1.09961 58.4001H3.89961C3.79961 58.2001 3.69961 58.0001 3.69961 57.8001C3.69961 57.5001 3.79961 57.3001 3.99961 57.1001H3.39961C2.79961 57.1001 2.39961 56.6001 2.39961 56.1001C2.39961 55.6001 2.89961 55.1001 3.39961 55.1001H16.9996C17.5996 55.1001 18.0996 55.6001 18.0996 56.1001C18.0996 56.6001 17.5996 57.1001 16.9996 57.1001H8.99961C9.19961 57.3001 9.29961 57.5001 9.29961 57.8001C9.29961 58.0001 9.19961 58.2001 9.09961 58.4001H21.0996C21.6996 58.3001 22.1996 58.8001 22.1996 59.4001Z" fill="#F1F2F2"/>
<path d="M58.8996 67.3002C60.1699 67.3002 61.1996 66.2704 61.1996 65.0002C61.1996 63.7299 60.1699 62.7002 58.8996 62.7002C57.6294 62.7002 56.5996 63.7299 56.5996 65.0002C56.5996 66.2704 57.6294 67.3002 58.8996 67.3002Z" fill="#1C75BC"/>
<path d="M65.1998 47.0002C68.7344 47.0002 71.5998 43.6871 71.5998 39.6002C71.5998 35.5133 68.7344 32.2002 65.1998 32.2002C61.6652 32.2002 58.7998 35.5133 58.7998 39.6002C58.7998 43.6871 61.6652 47.0002 65.1998 47.0002Z" fill="#F2BC8B"/>
<path d="M6.4 47.0002C9.93462 47.0002 12.8 43.6871 12.8 39.6002C12.8 35.5133 9.93462 32.2002 6.4 32.2002C2.86538 32.2002 0 35.5133 0 39.6002C0 43.6871 2.86538 47.0002 6.4 47.0002Z" fill="#F2BC8B"/>
<path d="M10.8004 47.0002C14.335 47.0002 17.2004 43.6871 17.2004 39.6002C17.2004 35.5133 14.335 32.2002 10.8004 32.2002C7.26577 32.2002 4.40039 35.5133 4.40039 39.6002C4.40039 43.6871 7.26577 47.0002 10.8004 47.0002Z" fill="#E2AD81"/>
<path d="M60.9 47.0002C64.4346 47.0002 67.3 43.6871 67.3 39.6002C67.3 35.5133 64.4346 32.2002 60.9 32.2002C57.3654 32.2002 54.5 35.5133 54.5 39.6002C54.5 43.6871 57.3654 47.0002 60.9 47.0002Z" fill="#E2AD81"/>
<path d="M35.8002 69.2C52.1478 69.2 65.4002 55.9476 65.4002 39.6C65.4002 23.2524 52.1478 10 35.8002 10C19.4526 10 6.2002 23.2524 6.2002 39.6C6.2002 55.9476 19.4526 69.2 35.8002 69.2Z" fill="#FDD7AD"/>
<path d="M35.7998 15.7V2" stroke="#3E357F" stroke-width="4" stroke-miterlimit="10" stroke-linecap="round" stroke-linejoin="round"/>
<path d="M27.7998 16.2998V5.2998" stroke="#3E357F" stroke-width="4" stroke-miterlimit="10" stroke-linecap="round" stroke-linejoin="round"/>
<path d="M43.7998 16.5V8" stroke="#3E357F" stroke-width="4" stroke-miterlimit="10" stroke-linecap="round" stroke-linejoin="round"/>
<path d="M42.7 56.2998C41.2 58.4998 38.7 59.9998 35.8 59.9998C33 59.9998 30.5 58.5998 29 56.4998" stroke="#F2BC8B" stroke-width="4" stroke-miterlimit="10" stroke-linecap="round" stroke-linejoin="round"/>
<path d="M20.0996 32.9998C21.1996 31.6998 22.9996 30.7998 25.0996 30.7998C27.0996 30.7998 28.8996 31.5998 29.9996 32.8998" stroke="#F2BC8B" stroke-width="4" stroke-miterlimit="10" stroke-linecap="round" stroke-linejoin="round"/>
<path d="M42.5 32.9998C43.6 31.6998 45.4 30.7998 47.5 30.7998C49.5 30.7998 51.3 31.5998 52.4 32.8998" stroke="#F2BC8B" stroke-width="4" stroke-miterlimit="10" stroke-linecap="round" stroke-linejoin="round"/>
<path d="M9.09961 5L9.69961 9.9" stroke="#EE3961" stroke-width="2" stroke-miterlimit="10" stroke-linecap="round" stroke-linejoin="round"/>
<path d="M11.9 7.2002L7 7.8002" stroke="#EE3961" stroke-width="2" stroke-miterlimit="10" stroke-linecap="round" stroke-linejoin="round"/>
<path d="M52.9004 19.1C52.9004 19.5 53.2004 19.8 53.6004 19.8H55.5004C55.4004 19.9 55.4004 20 55.4004 20.2C55.4004 20.4 55.5004 20.6 55.6004 20.7H54.5004C54.1004 20.7 53.8004 21 53.8004 21.4C53.8004 21.8 54.1004 22.1 54.5004 22.1H63.9004C64.3004 22.1 64.6004 21.8 64.6004 21.4C64.6004 21 64.3004 20.7 63.9004 20.7H59.0004C59.1004 20.6 59.2004 20.4 59.2004 20.2C59.2004 20.1 59.2004 19.9 59.1004 19.8H67.4004C67.8004 19.8 68.1004 19.5 68.1004 19.1C68.1004 18.7 67.8004 18.4 67.4004 18.4H65.5004C65.6004 18.3 65.6004 18.1 65.6004 18C65.6004 17.8 65.5004 17.7 65.4004 17.5H65.8004C66.2004 17.5 66.5004 17.2 66.5004 16.8C66.5004 16.4 66.2004 16 65.8004 16H56.4004C56.0004 16 55.7004 16.3 55.7004 16.7C55.7004 17.1 56.0004 17.4 56.4004 17.4H62.0004C61.9004 17.5 61.8004 17.7 61.8004 17.9C61.8004 18.1 61.8004 18.2 61.9004 18.3H53.6004C53.2004 18.4 52.9004 18.7 52.9004 19.1Z" fill="#F1F2F2"/>
<path d="M5.40039 27.1002L9.80039 22.7002L11.4004 28.7002L5.40039 27.1002Z" stroke="#56BC77" stroke-width="2" stroke-miterlimit="10" stroke-linecap="round" stroke-linejoin="round"/>
<path d="M9.22222 65.2831C10.045 64.8308 10.3453 63.7972 9.89304 62.9745C9.44078 62.1517 8.40718 61.8514 7.58444 62.3037C6.76169 62.7559 6.46136 63.7895 6.91362 64.6123C7.36588 65.435 8.39947 65.7354 9.22222 65.2831Z" stroke="#F7941E" stroke-miterlimit="10"/>
</svg>
