<svg width="67" height="68" viewBox="0 0 67 68" fill="none" xmlns="http://www.w3.org/2000/svg">
<path d="M57.0996 8.40039L58.8996 10.2004" stroke="#00A79D" stroke-miterlimit="10" stroke-linecap="round" stroke-linejoin="round"/>
<path d="M2 22.1004C2 13.5004 9 6.40039 17.7 6.40039C26.4 6.40039 33.4 13.4004 33.4 22.1004" stroke="#EE3961" stroke-width="4" stroke-miterlimit="10" stroke-linecap="round" stroke-linejoin="round"/>
<path d="M44.5 50.2004C44.5 50.8004 45 51.2004 45.6 51.2004H48.3C48.2 51.4004 48.1 51.6004 48.1 51.8004C48.1 52.1004 48.2 52.3004 48.4 52.5004H46.8C46.2 52.5004 45.8 53.0004 45.8 53.6004C45.8 54.2004 46.3 54.6004 46.8 54.6004H60.5C61.1 54.6004 61.6 54.1004 61.6 53.6004C61.6 53.0004 61.1 52.5004 60.5 52.5004H53.4C53.6 52.3004 53.7 52.1004 53.7 51.8004C53.7 51.6004 53.6 51.4004 53.5 51.2004H65.6C66.2 51.2004 66.6 50.7004 66.6 50.2004C66.6 49.6004 66.1 49.2004 65.6 49.2004H62.8C62.9 49.0004 63 48.8004 63 48.6004C63 48.3004 62.9 48.1004 62.7 47.9004H63.3C63.9 47.9004 64.3 47.4004 64.3 46.9004C64.3 46.4004 63.8 45.9004 63.3 45.9004H49.6C49 45.9004 48.5 46.4004 48.5 46.9004C48.5 47.4004 49 47.9004 49.6 47.9004H57.6C57.4 48.1004 57.3 48.3004 57.3 48.6004C57.3 48.8004 57.4 49.0004 57.5 49.2004H45.5C44.9 49.1004 44.5 49.6004 44.5 50.2004Z" fill="#F1F2F2"/>
<path d="M33.4004 22.1004C33.4004 13.4004 40.4004 6.40039 49.1004 6.40039C57.8004 6.40039 64.8004 13.4004 64.8004 22.1004" stroke="#EE3961" stroke-width="4" stroke-miterlimit="10" stroke-linecap="round" stroke-linejoin="round"/>
<path d="M33.4 65.2002C33.4 65.2002 2.2 39.3002 2 22.2002" stroke="#3E357F" stroke-width="4" stroke-miterlimit="10" stroke-linecap="round" stroke-linejoin="round"/>
<path d="M33.4004 65.2002C33.4004 65.2002 64.6004 39.3002 64.8004 22.2002" stroke="#3E357F" stroke-width="4" stroke-miterlimit="10" stroke-linecap="round" stroke-linejoin="round"/>
<path d="M24.2996 38.3001H26.4996V32.6001C26.4996 32.3001 26.4996 31.9001 26.4996 31.9001C26.4996 31.9001 26.3996 32.1001 25.9996 32.5001L25.1996 33.3001L24.0996 32.1001L26.6996 29.6001H28.2996V38.3001H30.4996V39.9001H24.1996V38.3001H24.2996Z" fill="#EE3961"/>
<path d="M33.2992 34.3C32.6992 33.8 32.1992 33.2 32.1992 32.3C32.1992 30.9 33.1992 29.5 35.4992 29.5C37.3992 29.5 38.7992 30.6 38.7992 32.3C38.7992 33.5 37.8992 34.5 37.6992 34.9C38.4992 35.3 38.9992 36 38.9992 37C38.9992 38.6 37.6992 40.1 35.3992 40.1C33.1992 40.1 31.6992 38.7 31.6992 37C31.6992 35.5 32.8992 34.5 33.2992 34.3ZM35.3992 38.4C36.3992 38.4 37.0992 37.8 37.0992 36.9C37.0992 36 35.7992 35.6 34.5992 35C34.2992 35.2 33.5992 35.8 33.5992 36.7C33.5992 37.7 34.4992 38.4 35.3992 38.4ZM36.9992 32.4C36.9992 31.6 36.3992 31.1 35.3992 31.1C34.3992 31.1 33.9992 31.6 33.9992 32.3C33.9992 33.3 35.0992 33.7 36.2992 34.2C36.4992 33.9 36.9992 33.3 36.9992 32.4Z" fill="#EE3961"/>
<path d="M40.0996 34.3H42.1996V32H43.1996V34.3H45.2996V35.3H43.1996V37.6H42.1996V35.3H40.0996V34.3Z" fill="#EE3961"/>
<path d="M9.20039 46.7001C10.4706 46.7001 11.5004 45.6704 11.5004 44.4001C11.5004 43.1298 10.4706 42.1001 9.20039 42.1001C7.93014 42.1001 6.90039 43.1298 6.90039 44.4001C6.90039 45.6704 7.93014 46.7001 9.20039 46.7001Z" fill="#1C75BC"/>
<path d="M16.7 10.6001C16.7 11.0001 16.4 11.3001 16 11.3001H14.1C14.2 11.4001 14.2 11.5001 14.2 11.7001C14.2 11.9001 14.1 12.1001 14 12.2001H15.1C15.5 12.2001 15.8 12.5001 15.8 12.9001C15.8 13.3001 15.5 13.6001 15.1 13.6001H5.7C5.3 13.6001 5 13.3001 5 12.9001C5 12.5001 5.3 12.2001 5.7 12.2001H10.6C10.5 12.1001 10.4 11.9001 10.4 11.7001C10.4 11.6001 10.4 11.4001 10.5 11.3001H2.2C1.8 11.3001 1.5 11.0001 1.5 10.6001C1.5 10.2001 1.8 9.9001 2.2 9.9001H4.1C4 9.8001 4 9.6001 4 9.5001C4 9.3001 4.1 9.1001 4.2 9.0001H3.8C3.4 9.0001 3.1 8.7001 3.1 8.3001C3.1 7.9001 3.4 7.6001 3.8 7.6001H13.2C13.6 7.6001 13.9 7.9001 13.9 8.3001C13.9 8.7001 13.6 9.0001 13.2 9.0001H7.6C7.7 9.1001 7.8 9.3001 7.8 9.5001C7.8 9.7001 7.8 9.8001 7.7 9.9001H16C16.4 9.9001 16.7 10.2001 16.7 10.6001Z" fill="#F1F2F2"/>
<path d="M50.6 63.3001L51.6 58.6001L47 60.1001L50.6 63.3001Z" stroke="#EE3961" stroke-miterlimit="10" stroke-linecap="round" stroke-linejoin="round"/>
<path d="M61.1967 3.00647C61.649 2.18372 61.3487 1.15013 60.5259 0.697867C59.7032 0.245607 58.6696 0.545944 58.2173 1.36869C57.7651 2.19143 58.0654 3.22503 58.8881 3.67729C59.7109 4.12955 60.7445 3.82921 61.1967 3.00647Z" stroke="#F7941E" stroke-miterlimit="10"/>
</svg>
