<svg width="67" height="69" viewBox="0 0 67 69" fill="none" xmlns="http://www.w3.org/2000/svg">
<path d="M0 60.1999C0 60.5999 0.3 60.9999 0.8 60.9999H2.8C2.7 61.0999 2.7 61.2999 2.7 61.3999C2.7 61.5999 2.8 61.7999 2.9 61.8999H1.7C1.3 61.8999 0.9 62.2999 0.9 62.6999C0.9 63.0999 1.2 63.4999 1.7 63.4999H11.7C12.1 63.4999 12.5 63.0999 12.5 62.6999C12.5 62.2999 12.2 61.8999 11.7 61.8999H6.5C6.6 61.7999 6.7 61.5999 6.7 61.3999C6.7 61.1999 6.7 61.0999 6.6 60.9999H15.4C15.8 60.9999 16.2 60.6999 16.2 60.1999C16.2 59.7999 15.9 59.3999 15.4 59.3999H13.3C13.4 59.2999 13.4 59.0999 13.4 58.9999C13.4 58.7999 13.3 58.5999 13.2 58.4999H13.6C14 58.4999 14.4 58.1999 14.4 57.6999C14.4 57.2999 14.1 56.8999 13.6 56.8999H3.6C3.2 56.8999 2.8 57.1999 2.8 57.6999C2.8 58.0999 3.2 58.4999 3.6 58.4999H9.5C9.4 58.5999 9.3 58.7999 9.3 58.9999C9.3 59.1999 9.4 59.2999 9.4 59.3999H0.8C0.3 59.3999 0 59.6999 0 60.1999Z" fill="#F1F2F2"/>
<path d="M60.4738 64.3396C61.9309 62.3949 61.5355 59.6371 59.5908 58.1801C57.646 56.723 54.8883 57.1184 53.4312 59.0632C51.9741 61.0079 52.3695 63.7657 54.3143 65.2227C56.2591 66.6798 59.0168 66.2844 60.4738 64.3396Z" fill="#F1F2F2"/>
<path d="M32.8004 12.1001C20.2004 12.1001 9.90039 22.3001 9.90039 35.0001V63.5001C9.90039 65.6001 11.6004 67.3001 13.7004 67.3001H51.8004C53.9004 67.3001 55.6004 65.6001 55.6004 63.5001V34.9001C55.6004 22.3001 45.4004 12.1001 32.8004 12.1001Z" stroke="#3E357F" stroke-width="3" stroke-miterlimit="10" stroke-linecap="round" stroke-linejoin="round"/>
<path d="M56.2565 5.91504L48.8955 1.66504L42.3955 12.923L49.7565 17.173L56.2565 5.91504Z" stroke="#3E357F" stroke-width="3" stroke-miterlimit="10" stroke-linecap="round" stroke-linejoin="round"/>
<path d="M15.6722 17.1279L23.0332 12.8779L16.5332 1.61993L9.1722 5.86993L15.6722 17.1279Z" stroke="#3E357F" stroke-width="3" stroke-miterlimit="10" stroke-linecap="round" stroke-linejoin="round"/>
<path d="M9.2998 5.8999L9.9998 33.0999" stroke="#3E357F" stroke-width="3" stroke-miterlimit="10" stroke-linecap="round" stroke-linejoin="round"/>
<path d="M56.2004 5.8999L55.4004 31.3999" stroke="#3E357F" stroke-width="3" stroke-miterlimit="10" stroke-linecap="round" stroke-linejoin="round"/>
<path d="M43.3998 37H22.3998C19.8998 37 17.7998 39.1 17.7998 41.6V53.1C17.7998 55.6 19.8998 57.7 22.3998 57.7H43.3998C45.8998 57.7 47.9998 55.6 47.9998 53.1V41.6C47.9998 39 45.8998 37 43.3998 37Z" stroke="#EE3961" stroke-width="3" stroke-miterlimit="10" stroke-linecap="round" stroke-linejoin="round"/>
<path d="M39.7998 24H25.7998" stroke="#EE3961" stroke-width="3" stroke-miterlimit="10" stroke-linecap="round" stroke-linejoin="round"/>
<path d="M50.5996 28.5C50.5996 28.9 50.8996 29.2 51.2996 29.2H53.1996C53.0996 29.3 53.0996 29.5 53.0996 29.6C53.0996 29.8 53.1996 30 53.2996 30.1H52.1996C51.7996 30.1 51.4996 30.4 51.4996 30.9C51.4996 31.3 51.7996 31.6 52.1996 31.6H61.9996C62.3996 31.6 62.6996 31.3 62.6996 30.9C62.6996 30.5 62.3996 30.1 61.9996 30.1H56.8996C56.9996 30 57.0996 29.8 57.0996 29.6C57.0996 29.5 57.0996 29.3 56.9996 29.2H65.5996C65.9996 29.2 66.2996 28.9 66.2996 28.5C66.2996 28.1 65.9996 27.8 65.5996 27.8H63.5996C63.6996 27.7 63.6996 27.5 63.6996 27.4C63.6996 27.2 63.5996 27 63.4996 26.9H63.9996C64.3996 26.9 64.6996 26.6 64.6996 26.2C64.6996 25.8 64.3996 25.5 63.9996 25.5H54.2996C53.8996 25.5 53.4996 25.8 53.4996 26.2C53.4996 26.6 53.7996 26.9 54.2996 26.9H59.9996C59.8996 27 59.7996 27.2 59.7996 27.4C59.7996 27.6 59.7996 27.7 59.8996 27.8H51.2996C50.9996 27.7 50.5996 28 50.5996 28.5Z" fill="#F1F2F2"/>
<path d="M28 2.9L31.1 1L31.2 4.6L28 2.9Z" stroke="#56BC77" stroke-width="2" stroke-miterlimit="10" stroke-linecap="round" stroke-linejoin="round"/>
<path d="M39.7998 53.5L43.9998 56.1" stroke="#F7941E" stroke-width="2" stroke-miterlimit="10" stroke-linecap="round" stroke-linejoin="round"/>
<path d="M43.1996 52.7002L40.5996 56.9002" stroke="#F7941E" stroke-width="2" stroke-miterlimit="10" stroke-linecap="round" stroke-linejoin="round"/>
</svg>
