<svg width="72" height="64" viewBox="0 0 72 64" fill="none" xmlns="http://www.w3.org/2000/svg">
<path d="M36.7002 50.2001C36.7002 50.9001 37.2002 51.4001 37.9002 51.4001H41.0002C40.9002 51.6001 40.8002 51.8001 40.8002 52.1001C40.8002 52.4001 40.9002 52.7001 41.1002 52.9001H39.3002C38.6002 52.9001 38.1002 53.5001 38.1002 54.1001C38.1002 54.8001 38.6002 55.3001 39.3002 55.3001H55.0002C55.7002 55.3001 56.2002 54.7001 56.2002 54.1001C56.2002 53.4001 55.7002 52.9001 55.0002 52.9001H46.8002C47.0002 52.7001 47.1002 52.4001 47.1002 52.1001C47.1002 51.9001 47.0002 51.6001 46.9002 51.4001H60.8002C61.5002 51.4001 62.0002 50.9001 62.0002 50.2001C62.0002 49.5001 61.5002 49.0001 60.8002 49.0001H57.6002C57.7002 48.8001 57.8002 48.6001 57.8002 48.3001C57.8002 48.0001 57.7002 47.7001 57.5002 47.5001H58.1002C58.8002 47.5001 59.3002 47.0001 59.3002 46.3001C59.3002 45.6001 58.8002 45.1001 58.1002 45.1001H42.6002C41.9002 45.1001 41.4002 45.6001 41.4002 46.3001C41.4002 47.0001 42.0002 47.5001 42.6002 47.5001H51.8002C51.6002 47.7001 51.5002 48.0001 51.5002 48.3001C51.5002 48.6001 51.6002 48.8001 51.7002 49.0001H37.9002C37.2002 48.9001 36.7002 49.5001 36.7002 50.2001Z" fill="#F1F2F2"/>
<path d="M15.2998 3.8999C15.2998 4.1999 15.5998 4.4999 15.8998 4.4999H17.3998C17.2998 4.5999 17.2998 4.6999 17.2998 4.7999C17.2998 4.8999 17.3998 5.0999 17.4998 5.1999H16.5998C16.2998 5.1999 15.9998 5.4999 15.9998 5.7999C15.9998 6.0999 16.2998 6.3999 16.5998 6.3999H23.9998C24.2998 6.3999 24.5998 6.0999 24.5998 5.7999C24.5998 5.4999 24.2998 5.1999 23.9998 5.1999H20.0998C20.1998 5.0999 20.2998 4.9999 20.2998 4.7999C20.2998 4.6999 20.2998 4.5999 20.1998 4.4999H26.6998C26.9998 4.4999 27.2998 4.1999 27.2998 3.8999C27.2998 3.5999 26.9998 3.2999 26.6998 3.2999H25.1998C25.2998 3.1999 25.2998 3.0999 25.2998 2.9999C25.2998 2.8999 25.2998 2.6999 25.1998 2.5999H25.4998C25.7998 2.5999 26.0998 2.2999 26.0998 1.9999C26.0998 1.6999 25.7998 1.3999 25.4998 1.3999H18.0998C17.7998 1.3999 17.4998 1.6999 17.4998 1.9999C17.4998 2.2999 17.7998 2.5999 18.0998 2.5999H22.4998C22.3998 2.6999 22.3998 2.7999 22.3998 2.9999C22.3998 3.0999 22.3998 3.1999 22.4998 3.2999H15.9998C15.5998 3.2999 15.2998 3.5999 15.2998 3.8999Z" fill="#F1F2F2"/>
<path d="M69.8 11.6001H1.5V58.9001H69.8V11.6001Z" stroke="#3E357F" stroke-width="3" stroke-miterlimit="10" stroke-linecap="round" stroke-linejoin="round"/>
<path d="M45.1996 23.7998H26.0996V42.0998H45.1996V23.7998Z" stroke="#3E357F" stroke-width="3" stroke-miterlimit="10" stroke-linecap="round" stroke-linejoin="round"/>
<path d="M25.5 11.6H48.2V3.5C48.2 2.4 47.3 1.5 46.2 1.5H27.5C26.4 1.5 25.5 2.4 25.5 3.5V11.6Z" stroke="#3E357F" stroke-width="3" stroke-miterlimit="10" stroke-linecap="round" stroke-linejoin="round"/>
<path d="M1.5 31.1997H24.8" stroke="#3E357F" stroke-width="3" stroke-miterlimit="10" stroke-linecap="round" stroke-linejoin="round"/>
<path d="M46.2998 31.1997H69.7998" stroke="#3E357F" stroke-width="3" stroke-miterlimit="10" stroke-linecap="round" stroke-linejoin="round"/>
<path d="M37.3004 31.7998H33.9004V37.1998H37.3004V31.7998Z" fill="#EE3961"/>
<path d="M35.6996 34.1997C37.4117 34.1997 38.7996 32.8566 38.7996 31.1997C38.7996 29.5429 37.4117 28.1997 35.6996 28.1997C33.9875 28.1997 32.5996 29.5429 32.5996 31.1997C32.5996 32.8566 33.9875 34.1997 35.6996 34.1997Z" fill="#EE3961"/>
<path d="M14.2 52.2998H8V46.7998" stroke="#EE3961" stroke-width="3" stroke-miterlimit="10" stroke-linecap="round" stroke-linejoin="round"/>
<path d="M8.2998 23.4V17.5H13.9998" stroke="#EE3961" stroke-width="3" stroke-miterlimit="10" stroke-linecap="round" stroke-linejoin="round"/>
<path d="M57.2998 17.5H63.4998V23" stroke="#EE3961" stroke-width="3" stroke-miterlimit="10" stroke-linecap="round" stroke-linejoin="round"/>
<path d="M63.2996 46.3999V52.2999H57.5996" stroke="#EE3961" stroke-width="3" stroke-miterlimit="10" stroke-linecap="round" stroke-linejoin="round"/>
<path d="M12.3004 59.1997H6.90039V61.3997H12.3004V59.1997Z" stroke="#3E357F" stroke-width="3" stroke-miterlimit="10" stroke-linecap="round" stroke-linejoin="round"/>
<path d="M65.3004 59.1997H59.9004V61.3997H65.3004V59.1997Z" stroke="#3E357F" stroke-width="3" stroke-miterlimit="10" stroke-linecap="round" stroke-linejoin="round"/>
<path d="M64.5998 3.19971L63.7998 8.09971" stroke="#F7941E" stroke-width="2" stroke-miterlimit="10" stroke-linecap="round" stroke-linejoin="round"/>
<path d="M66.6002 6.09971L61.7002 5.19971" stroke="#F7941E" stroke-width="2" stroke-miterlimit="10" stroke-linecap="round" stroke-linejoin="round"/>
<path d="M18.0996 62.6998L19.1996 58.7998L21.9996 61.6998L18.0996 62.6998Z" stroke="#56BC77" stroke-width="2" stroke-miterlimit="10" stroke-linecap="round" stroke-linejoin="round"/>
<path d="M16.1 34.4998C17.2598 34.4998 18.2 33.5596 18.2 32.3998C18.2 31.24 17.2598 30.2998 16.1 30.2998C14.9402 30.2998 14 31.24 14 32.3998C14 33.5596 14.9402 34.4998 16.1 34.4998Z" fill="#1C75BC"/>
</svg>
