<svg width="75" height="66" viewBox="0 0 75 66" fill="none" xmlns="http://www.w3.org/2000/svg">
<path d="M70.5 34.9002C70.2 43.4002 62.1 50.4002 51.7 50.4002C41.3 50.4002 33.2 43.5002 32.9 34.9002C32.6 26.9002 30.5 3.2002 30.5 3.2002H73C73 3.2002 70.9 27.0002 70.5 34.9002Z" stroke="#3E357F" stroke-width="3" stroke-miterlimit="10" stroke-linecap="round" stroke-linejoin="round"/>
<path d="M59 30.6001C61.7 33.9001 60.9 38.6001 60.9 38.8001C60.8 39.6001 60.1 40.1001 59.3 40.1001H44.3C43.5 40.1001 42.9 39.6001 42.7 38.8001C42.7 38.6001 41.7 33.8001 44.5 30.5001C46.1 28.5001 48.5 27.6001 51.7 27.6001C54.9 27.7001 57.3 28.7001 59 30.6001ZM57.8 37.0001C57.8 35.8001 57.6 34.0001 56.5 32.7001C55.5 31.5001 53.9 30.9001 51.7 30.9001C49.5 30.9001 47.9 31.5001 46.9 32.7001C45.8 34.0001 45.7 35.8001 45.7 37.0001H57.8Z" fill="#EE3961"/>
<path d="M39.7002 17.1001C40.4002 16.0001 41.6002 15.2001 43.0002 14.9001C43.8002 14.8001 44.6002 14.8001 45.3002 15.1001" stroke="#3E357F" stroke-width="5" stroke-miterlimit="10" stroke-linecap="round" stroke-linejoin="round"/>
<path d="M58.6006 14.9998C59.9006 14.5998 61.3006 14.7998 62.5006 15.4998C63.2006 15.8998 63.8006 16.4998 64.2006 17.1998" stroke="#EE3961" stroke-width="3" stroke-miterlimit="10" stroke-linecap="round" stroke-linejoin="round"/>
<path d="M10.1006 12C10.1006 12 7.20063 13.3 7.40063 16C7.60063 18.8 2.90063 60.2 26.9006 58.7C50.9006 57.2 47.7006 32.3 47.7006 32.3L47.9006 12H10.1006Z" fill="white"/>
<path d="M47.1 43.7C46.8 52.2 38.7 59.2 28.3 59.2C17.9 59.2 9.8 52.2 9.4 43.7C9.1 35.8 7 12 7 12H49.5C49.5 12 47.4 35.8 47.1 43.7Z" stroke="white" stroke-miterlimit="10"/>
<path d="M46.1 44.0002C45.8 52.5002 37.7 59.5002 27.3 59.5002C16.9 59.5002 8.7 52.5002 8.4 44.0002C8.1 36.0002 6 12.2002 6 12.2002H48.5C48.5 12.2002 46.4 36.0002 46.1 44.0002Z" fill="white" stroke="white" stroke-width="12" stroke-miterlimit="10" stroke-linecap="round" stroke-linejoin="round"/>
<path d="M15.0002 8.5998C15.0002 8.9998 14.7002 9.2998 14.3002 9.2998H12.5002C12.6002 9.3998 12.6002 9.4998 12.6002 9.6998C12.6002 9.8998 12.5002 9.9998 12.4002 10.1998H13.4002C13.8002 10.1998 14.1002 10.4998 14.1002 10.8998C14.1002 11.2998 13.8002 11.5998 13.4002 11.5998H4.6002C4.2002 11.5998 3.9002 11.2998 3.9002 10.8998C3.9002 10.4998 4.2002 10.1998 4.6002 10.1998H9.2002C9.2002 9.9998 9.1002 9.8998 9.1002 9.6998C9.1002 9.5998 9.10019 9.3998 9.2002 9.2998H1.4002C1.0002 9.2998 0.700195 8.9998 0.700195 8.5998C0.700195 8.2998 1.0002 7.9998 1.4002 7.9998H3.2002C3.1002 7.8998 3.1002 7.6998 3.1002 7.5998C3.1002 7.3998 3.2002 7.2998 3.3002 7.1998H2.9002C2.5002 7.1998 2.2002 6.8998 2.2002 6.4998C2.2002 6.0998 2.5002 5.7998 2.9002 5.7998H11.7002C12.1002 5.7998 12.4002 6.0998 12.4002 6.4998C12.4002 6.8998 12.1002 7.1998 11.7002 7.1998H6.5002C6.6002 7.2998 6.7002 7.4998 6.7002 7.5998C6.7002 7.6998 6.7002 7.8998 6.6002 7.9998H14.4002C14.7002 7.9998 15.0002 8.2998 15.0002 8.5998Z" fill="#F1F2F2"/>
<path d="M6.70039 60.9999C7.41836 60.9999 8.00039 60.4179 8.00039 59.6999C8.00039 58.9819 7.41836 58.3999 6.70039 58.3999C5.98242 58.3999 5.40039 58.9819 5.40039 59.6999C5.40039 60.4179 5.98242 60.9999 6.70039 60.9999Z" stroke="#1C75BC" stroke-miterlimit="10"/>
<path d="M18.6006 4.7L22.2006 1L23.6006 6L18.6006 4.7Z" stroke="#56BC77" stroke-width="2" stroke-miterlimit="10" stroke-linecap="round" stroke-linejoin="round"/>
<path d="M46.1 44.0002C45.8 52.5002 37.7 59.5002 27.3 59.5002C16.9 59.5002 8.7 52.5002 8.4 44.0002C8.1 36.0002 6 12.2002 6 12.2002H48.5C48.5 12.2002 46.4 36.0002 46.1 44.0002Z" fill="white" stroke="#3E357F" stroke-width="3" stroke-miterlimit="10" stroke-linecap="round" stroke-linejoin="round"/>
<path d="M15.2998 26.2002C15.9998 25.1002 17.1998 24.3002 18.5998 24.0002C19.3998 23.9002 20.1998 23.9002 20.8998 24.2002" stroke="#EE3961" stroke-width="3" stroke-miterlimit="10" stroke-linecap="round" stroke-linejoin="round"/>
<path d="M34.1006 24.0999C35.4006 23.6999 36.8006 23.8999 38.0006 24.5999C38.7006 24.9999 39.3006 25.5999 39.7006 26.2999" stroke="#EE3961" stroke-width="3" stroke-miterlimit="10" stroke-linecap="round" stroke-linejoin="round"/>
<path d="M27.3003 50.7998C24.1003 50.7998 21.7003 49.7998 20.1003 47.8998C17.4003 44.5998 18.3002 39.7998 18.3002 39.5998C18.4002 38.8998 19.1002 38.2998 19.9002 38.2998H34.9003C35.7003 38.2998 36.3002 38.8998 36.5002 39.5998C36.5002 39.7998 37.4002 44.4998 34.6002 47.7998C33.0002 49.7998 30.5002 50.7998 27.3003 50.7998ZM21.3002 41.4998C21.3002 42.6998 21.4003 44.4998 22.5003 45.7998C23.5003 46.9998 25.1003 47.5998 27.3003 47.5998C29.5002 47.5998 31.1002 46.9998 32.1002 45.7998C33.2002 44.4998 33.4003 42.6998 33.4003 41.4998H21.3002Z" fill="#EE3961"/>
<path d="M41.2002 53.9001C41.2002 54.4001 41.6002 54.8001 42.1002 54.8001H44.3002C44.2002 54.9001 44.2002 55.1001 44.2002 55.3001C44.2002 55.5001 44.3002 55.7001 44.4002 55.9001H43.1002C42.6002 55.9001 42.2002 56.3001 42.2002 56.8001C42.2002 57.3001 42.6002 57.7001 43.1002 57.7001H54.2002C54.7002 57.7001 55.1002 57.3001 55.1002 56.8001C55.1002 56.3001 54.7002 55.9001 54.2002 55.9001H48.4002C48.5002 55.7001 48.6002 55.5001 48.6002 55.3001C48.6002 55.1001 48.6002 55.0001 48.5002 54.8001H58.3002C58.8002 54.8001 59.2002 54.4001 59.2002 53.9001C59.2002 53.4001 58.8002 53.0001 58.3002 53.0001H56.0002C56.1002 52.9001 56.2002 52.7001 56.2002 52.5001C56.2002 52.3001 56.1002 52.1001 56.0002 51.9001H56.5002C57.0002 51.9001 57.4002 51.5001 57.4002 51.0001C57.4002 50.5001 57.0002 50.1001 56.5002 50.1001H45.4002C44.9002 50.1001 44.5002 50.5001 44.5002 51.0001C44.5002 51.5001 44.9002 51.9001 45.4002 51.9001H52.0002C51.9002 52.0001 51.8002 52.2001 51.8002 52.5001C51.8002 52.7001 51.9002 52.9001 52.0002 53.0001H42.2002C41.6002 53.1001 41.2002 53.5001 41.2002 53.9001Z" fill="#F1F2F2"/>
<path d="M74.1353 20.3939C74.9581 19.9417 75.2584 18.9081 74.8061 18.0853C74.3539 17.2626 73.3203 16.9622 72.4975 17.4145C71.6748 17.8668 71.3744 18.9004 71.8267 19.7231C72.279 20.5459 73.3126 20.8462 74.1353 20.3939Z" fill="#F7941E"/>
</svg>
