<svg width="73" height="65" viewBox="0 0 73 65" fill="none" xmlns="http://www.w3.org/2000/svg">
<path d="M0 58.1003C0 58.5003 0.4 58.9003 0.8 58.9003H2.9C2.8 59.0003 2.8 59.2003 2.8 59.3003C2.8 59.5003 2.9 59.7003 3 59.8003H1.8C1.4 59.8003 1 60.2003 1 60.6003C1 61.0003 1.4 61.4003 1.8 61.4003H12.2C12.6 61.4003 13 61.0003 13 60.6003C13 60.2003 12.6 59.8003 12.2 59.8003H6.8C6.9 59.8003 7 59.6003 7 59.4003C7 59.2003 7 59.1003 6.9 59.0003H16.1C16.5 59.0003 16.9 58.6003 16.9 58.2003C16.9 57.8003 16.5 57.4003 16.1 57.4003H13.9C14 57.3003 14.1 57.1003 14.1 56.9003C14.1 56.7003 14 56.5003 13.9 56.4003H14.3C14.7 56.4003 15.1 56.0003 15.1 55.6003C15.1 55.2003 14.7 54.8003 14.3 54.8003H3.9C3.5 54.8003 3.1 55.2003 3.1 55.6003C3.1 56.0003 3.5 56.4003 3.9 56.4003H10C9.9 56.5003 9.8 56.7003 9.8 56.9003C9.8 57.1003 9.9 57.2003 10 57.4003H0.8C0.4 57.3003 0 57.7003 0 58.1003Z" fill="#F1F2F2"/>
<path d="M6.2002 35.3003V62.6003" stroke="#EE3961" stroke-width="3" stroke-miterlimit="10" stroke-linecap="round" stroke-linejoin="round"/>
<path d="M53.8004 6.80029C50.9004 6.80029 48.5004 7.40029 46.5004 8.20029C44.5004 9.00029 42.8004 10.0003 41.3004 10.9003C39.6004 11.9003 38.2004 12.8003 37.0004 12.8003C35.9004 12.8003 34.4004 11.9003 32.7004 10.9003C29.8004 9.20029 25.9004 6.80029 20.2004 6.80029C19.7004 6.80029 19.2004 6.80029 18.7004 6.90029C18.6004 6.90029 18.5004 6.90029 18.4004 6.90029C18.2004 7.00029 17.9004 7.00029 17.6004 7.00029C17.5004 7.00029 17.4004 7.00029 17.4004 7.00029C16.9004 7.10029 16.3004 7.20029 15.8004 7.30029C15.5004 7.40029 15.2004 7.40029 14.9004 7.50029C14.2004 7.70029 13.5004 8.00029 12.9004 8.30029C12.2004 8.60029 11.6004 8.90029 11.0004 9.30029C10.8004 9.50029 10.5004 9.60029 10.3004 9.80029C10.1004 10.0003 9.80039 10.1003 9.60039 10.3003C8.90039 10.8003 8.30039 11.4003 7.70039 12.0003L7.60039 12.1003C6.60039 13.1003 5.70039 14.3003 4.90039 15.6003C4.80039 15.8003 4.70039 16.0003 4.60039 16.1003C4.50039 16.4003 4.30039 16.6003 4.20039 16.9003C4.10039 17.2003 4.00039 17.4003 3.80039 17.7003C3.70039 17.9003 3.60039 18.1003 3.50039 18.4003C3.50039 18.5003 3.40039 18.6003 3.40039 18.7003C3.30039 18.9003 3.20039 19.1003 3.20039 19.4003C3.10039 19.7003 3.00039 20.0003 2.90039 20.3003C2.80039 20.8003 2.70039 21.3003 2.60039 21.8003C2.60039 21.9003 2.60039 22.0003 2.50039 22.1003C2.50039 22.3003 2.50039 22.4003 2.40039 22.6003C2.40039 22.7003 2.40039 22.8003 2.40039 22.9003C2.40039 23.0003 2.40039 23.0003 2.40039 23.1003C2.40039 23.3003 2.40039 23.5003 2.40039 23.8003C2.40039 24.1003 2.40039 24.4003 2.40039 24.7003C2.40039 29.8003 4.50039 34.3003 7.90039 37.6003C9.70039 39.3003 11.8004 40.7003 14.2004 41.5003C16.1004 42.2003 18.2004 42.6003 20.3004 42.6003C26.0004 42.6003 29.9004 40.2003 32.8004 38.5003C34.5004 37.5003 35.9004 36.6003 37.1004 36.6003C38.2004 36.6003 39.7004 37.5003 41.4004 38.5003C41.5004 38.5003 41.6004 38.6003 41.7004 38.7003C44.6004 40.4003 48.5004 42.6003 53.9004 42.6003C63.8004 42.6003 71.8004 34.6003 71.8004 24.7003C71.8004 24.4003 71.8004 24.1003 71.8004 23.8003C71.8004 23.6003 71.8004 23.4003 71.8004 23.1003C71.8004 23.0003 71.8004 23.0003 71.8004 22.9003C71.8004 22.8003 71.8004 22.7003 71.8004 22.6003C71.8004 22.4003 71.8004 22.3003 71.7004 22.1003C71.7004 22.0003 71.7004 21.9003 71.6004 21.8003C71.5004 21.3003 71.4004 20.8003 71.3004 20.3003C71.2004 20.0003 71.1004 19.7003 71.0004 19.4003C70.9004 19.2003 70.9004 19.0003 70.8004 18.7003C70.6004 18.0003 70.3004 17.4003 70.0004 16.8003C69.9004 16.6003 69.8004 16.4003 69.7004 16.2003C69.6004 16.0003 69.5004 15.8003 69.4004 15.7003C68.6004 14.4003 67.7004 13.2003 66.6004 12.1003C66.2004 11.7003 65.8004 11.3003 65.3004 11.0003C65.1004 10.8003 64.9004 10.6003 64.6004 10.5003C64.4004 10.3003 64.1004 10.2003 63.9004 10.0003C63.7004 9.80029 63.4004 9.70029 63.2004 9.50029C62.6004 9.10029 61.9004 8.80029 61.3004 8.50029C60.6004 8.20029 60.0004 8.00029 59.3004 7.70029C59.0004 7.60029 58.7004 7.50029 58.4004 7.50029C57.9004 7.40029 57.3004 7.20029 56.7004 7.20029C56.6004 7.20029 56.6004 7.20029 56.5004 7.20029C56.2004 7.20029 56.0004 7.10029 55.7004 7.10029C55.6004 7.10029 55.5004 7.10029 55.4004 7.10029C54.8004 6.90029 54.3004 6.80029 53.8004 6.80029ZM37.0004 15.0003C38.8004 15.0003 40.5004 14.0003 42.4004 12.8003C43.8004 12.0003 45.4004 11.0003 47.3004 10.3003C49.1004 9.60029 51.3004 9.10029 53.8004 9.10029C54.3004 9.10029 54.8004 9.10029 55.4004 9.20029C55.6004 9.20029 55.8004 9.20029 56.0004 9.30029C56.3004 9.30029 56.6004 9.40029 57.0004 9.50029C57.3004 9.50029 57.5004 9.60029 57.8004 9.70029C58.1004 9.80029 58.3004 9.80029 58.5004 9.90029C58.7004 10.0003 59.0004 10.1003 59.2004 10.1003C59.4004 10.2003 59.7004 10.3003 59.9004 10.4003C60.4004 10.6003 60.8004 10.8003 61.3004 11.1003C61.5004 11.2003 61.7004 11.4003 62.0004 11.5003C62.6004 11.9003 63.3004 12.3003 63.8004 12.8003C64.2004 13.1003 64.6004 13.4003 64.9004 13.8003C65.9004 14.8003 66.8004 16.0003 67.5004 17.2003C67.6004 17.4003 67.7004 17.5003 67.8004 17.7003C67.9004 17.8003 67.9004 18.0003 68.0004 18.1003C68.2004 18.4003 68.3004 18.7003 68.4004 19.0003C68.5004 19.3003 68.6004 19.5003 68.7004 19.8003V19.9003C68.8004 20.2003 68.9004 20.5003 69.0004 20.8003C69.1004 21.1003 69.2004 21.4003 69.2004 21.7003C69.2004 21.8003 69.2004 21.8003 69.2004 21.9003C69.3004 22.2003 69.3004 22.5003 69.4004 22.8003C69.4004 22.9003 69.4004 22.9003 69.4004 23.0003C69.4004 23.3003 69.5004 23.6003 69.5004 23.9003C69.5004 24.2003 69.5004 24.6003 69.5004 24.9003C69.5004 33.5003 62.5004 40.6003 53.8004 40.6003C49.1004 40.6003 45.8004 38.8003 43.1004 37.2003C42.9004 37.1003 42.7004 37.0003 42.5004 36.8003C40.5004 35.6003 38.8004 34.6003 37.1004 34.6003C35.4004 34.6003 33.6004 35.6003 31.7004 36.8003C28.9004 38.5003 25.4004 40.6003 20.3004 40.6003C18.1004 40.6003 16.1004 40.2003 14.2004 39.4003C12.0004 38.5003 10.0004 37.0003 8.50039 35.2003C6.00039 32.2003 4.60039 28.7003 4.60039 24.7003C4.60039 24.4003 4.60039 24.0003 4.60039 23.7003C4.60039 23.4003 4.60039 23.1003 4.70039 22.8003C4.70039 22.7003 4.70039 22.7003 4.70039 22.6003C4.70039 22.3003 4.80039 22.0003 4.90039 21.7003C4.90039 21.6003 4.90039 21.6003 4.90039 21.5003C4.90039 21.3003 5.00039 21.0003 5.10039 20.7003C5.20039 20.4003 5.30039 20.1003 5.40039 19.8003V19.7003C5.50039 19.4003 5.60039 19.2003 5.70039 18.9003C5.80039 18.6003 6.00039 18.3003 6.10039 18.0003C6.20039 17.9003 6.20039 17.7003 6.30039 17.6003C6.40039 17.4003 6.50039 17.3003 6.60039 17.1003C6.60039 17.1003 6.60039 17.0003 6.70039 17.0003C7.40039 15.8003 8.20039 14.7003 9.20039 13.8003C9.80039 13.2003 10.3004 12.7003 11.0004 12.3003C11.4004 12.0003 11.8004 11.7003 12.2004 11.5003C12.4004 11.4003 12.6004 11.2003 12.9004 11.1003C13.6004 10.7003 14.3004 10.4003 15.0004 10.2003C15.2004 10.1003 15.5004 10.0003 15.7004 10.0003C16.0004 9.90029 16.2004 9.80029 16.4004 9.80029C16.6004 9.80029 16.9004 9.70029 17.2004 9.60029C17.5004 9.50029 17.9004 9.50029 18.2004 9.40029C18.4004 9.40029 18.6004 9.40029 18.8004 9.30029C19.3004 9.20029 19.8004 9.20029 20.4004 9.20029C25.5004 9.20029 29.0004 11.3003 31.8004 13.0003C33.6004 14.0003 35.3004 15.0003 37.0004 15.0003Z" fill="#3E357F" stroke="#3E357F" stroke-miterlimit="10"/>
<path d="M21.6 17.7002C18.1 17.7002 14.7 19.7002 12.3 23.3002C11.9 23.9002 11.9 24.7002 12.3 25.3002C14.7 28.8002 18.1 30.9002 21.6 30.9002C25.1 30.9002 28.5 28.9002 30.9 25.3002C31.3 24.7002 31.3 23.9002 30.9 23.3002C28.6 19.7002 25.2 17.7002 21.6 17.7002ZM21.6 27.8002C19 27.8002 16.6 26.5002 14.7 24.2002C16.6 21.9002 19.1 20.6002 21.6 20.6002C24.1 20.6002 26.6 21.9002 28.5 24.2002C26.7 26.5002 24.2 27.8002 21.6 27.8002Z" fill="#EE3961"/>
<path d="M51.5004 17.7002C48.0004 17.7002 44.6004 19.7002 42.2004 23.3002C41.8004 23.9002 41.8004 24.7002 42.2004 25.3002C44.6004 28.8002 48.0004 30.9002 51.5004 30.9002C55.0004 30.9002 58.4004 28.9002 60.8004 25.3002C61.2004 24.7002 61.2004 23.9002 60.8004 23.3002C58.5004 19.7002 55.1004 17.7002 51.5004 17.7002ZM51.5004 27.8002C48.9004 27.8002 46.5004 26.5002 44.6004 24.2002C46.5004 21.9002 49.0004 20.6002 51.5004 20.6002C54.0004 20.6002 56.5004 21.9002 58.4004 24.2002C56.6004 26.5002 54.1004 27.8002 51.5004 27.8002Z" fill="#EE3961"/>
<path d="M52.2002 9.6C52.2002 9.1 52.6002 8.8 53.0002 8.8H55.2002C55.1002 8.7 55.1002 8.5 55.1002 8.3C55.1002 8.1 55.2002 7.9 55.3002 7.7H54.0002C53.5002 7.7 53.2002 7.3 53.2002 6.8C53.2002 6.4 53.6002 6 54.0002 6H65.0002C65.5002 6 65.8002 6.4 65.8002 6.8C65.8002 7.3 65.4002 7.7 65.0002 7.7H59.3002C59.4002 7.9 59.5002 8.1 59.5002 8.3C59.5002 8.5 59.5002 8.6 59.4002 8.8H69.1002C69.6002 8.8 69.9002 9.2 69.9002 9.6C69.9002 10.1 69.5002 10.4 69.1002 10.4H66.8002C66.9002 10.5 67.0002 10.7 67.0002 10.9C67.0002 11.1 66.9002 11.3 66.8002 11.4H67.3002C67.8002 11.4 68.1002 11.8 68.1002 12.2C68.1002 12.7 67.7002 13 67.3002 13H56.3002C55.8002 13 55.4002 12.6 55.4002 12.2C55.4002 11.7 55.8002 11.4 56.3002 11.4H62.8002C62.7002 11.3 62.6002 11.1 62.6002 10.9C62.6002 10.7 62.7002 10.5 62.8002 10.4H53.0002C52.5002 10.4 52.2002 10 52.2002 9.6Z" fill="#F1F2F2"/>
<path d="M14.2585 4.78179C15.1867 4.08637 15.3754 2.77018 14.68 1.842C13.9846 0.913811 12.6684 0.725112 11.7402 1.42053C10.812 2.11594 10.6233 3.43213 11.3187 4.36032C12.0141 5.2885 13.3303 5.4772 14.2585 4.78179Z" stroke="#F7941E" stroke-width="2" stroke-miterlimit="10" stroke-linecap="round" stroke-linejoin="round"/>
<path d="M32.4004 51.4004L28.9004 53.6004" stroke="#56BC77" stroke-width="2" stroke-miterlimit="10" stroke-linecap="round" stroke-linejoin="round"/>
<path d="M29.5 50.7002L31.7 54.2002" stroke="#56BC77" stroke-width="2" stroke-miterlimit="10" stroke-linecap="round" stroke-linejoin="round"/>
<path d="M59.8 40.9004L55.5 43.6004L60 45.9004L59.8 40.9004Z" stroke="#F7941E" stroke-width="2" stroke-miterlimit="10" stroke-linecap="round" stroke-linejoin="round"/>
</svg>
