<svg xmlns="http://www.w3.org/2000/svg" xmlns:xlink="http://www.w3.org/1999/xlink" width="0" height="0" style="position:absolute">
	
		<symbol id="close" viewBox="0 0 24 24">
			<path d="M19 6.41L17.59 5 12 10.59 6.41 5 5 6.41 10.59 12 5 17.59 6.41 19 12 13.41 17.59 19 19 17.59 13.41 12z"></path>
		</symbol>
	
		<symbol id="fb" viewBox="0 0 12.9 24">
			<path d="M12.5 0H9.3C5.8 0 3.6 2.3 3.6 5.9v2.8H.5c-.3 0-.5.2-.5.4v4c0 .2.2.4.5.4h3.1v9.9c0 .3.2.5.5.5h4c.3 0 .5-.2.5-.5v-9.9h3.7c.2 0 .4-.2.4-.4v-4c0-.1 0-.2-.1-.3-.1-.1-.2-.1-.3-.1H8.7V6.4c0-1.1.2-1.7 1.7-1.7h2.1c.2 0 .4-.1.4-.4V.5c0-.3-.2-.4-.4-.5z"></path>
		</symbol>
	
		<symbol id="in" viewBox="0 0 24 24">
			<path d="M17.4 0H6.6C3 0 0 3 0 6.6v10.7C0 21 3 24 6.6 24h10.7c3.7 0 6.6-3 6.6-6.6V6.6C24 3 21 0 17.4 0zm4.5 17.4c0 2.5-2 4.5-4.5 4.5H6.6c-2.5 0-4.5-2-4.5-4.5V6.6c0-2.5 2-4.5 4.5-4.5h10.7c2.5 0 4.5 2 4.5 4.5v10.8zM12 5.8c-3.4 0-6.2 2.8-6.2 6.2s2.8 6.2 6.2 6.2 6.2-2.8 6.2-6.2-2.8-6.2-6.2-6.2zM12 16c-2.3 0-4-1.8-4-4s1.8-4 4-4 4 1.8 4 4c0 2.3-1.8 4-4 4zm6.4-12c-.4 0-.8.2-1.1.5-.3.3-.4.7-.4 1.1s.2.8.4 1.1c.3.3.7.4 1.1.4.4 0 .8-.2 1.1-.5.3-.2.5-.6.5-1s-.2-.8-.5-1.1c-.3-.3-.6-.5-1.1-.5z"></path>
		</symbol>
	
		<symbol id="like" viewBox="0 0 15.02 13.62">
			<path d="M0 4.52A4.43 4.43 0 0 1 6.15.34a1.8 1.8 0 0 1 .71.38c.51.64.92.28 1.41 0a4.43 4.43 0 0 1 6.67 2.9 4.5 4.5 0 0 1-1.24 4c-1.15 1.22-2.42 2.34-3.62 3.52-.76.74-1.51 1.49-2.23 2.26-.24.25-.38.31-.65 0-.9-.9-1.82-1.78-2.73-2.67S2.66 8.92 1.73 8A4.76 4.76 0 0 1 0 4.52z"></path>
		</symbol>
	
		<symbol id="like-box" viewBox="0 0 50 35.81">
			<path d="M4.68 26.36A5 5 0 0 1 .3 22.85a11 11 0 0 1-.3-3.47V6.32a7 7 0 0 1 .52-3.26A5.37 5.37 0 0 1 4.54 0h38.87a10.36 10.36 0 0 1 3.19.3A5.54 5.54 0 0 1 49.94 5c.06 5.16.08 11.9 0 16.19a5.24 5.24 0 0 1-4.91 5.2H33.16c-1.27-.05-1.64.51-2.09 1.39-.72 1.38-3.33 5.88-3.91 6.73A2.44 2.44 0 0 1 24 35.55a3.9 3.9 0 0 1-1.58-1.66c-1.34-2.36-2.7-4.7-4-7.07a1.1 1.1 0 0 0-1-.46"></path>
		</symbol>
	
		<symbol id="logo" viewBox="0 0 79.6 70">
			<path d="M49.4 14.2h2.5c.2 0 .6-.2.6-.6 0-.2-.2-.6-.6-.6h-2.5c-.2 0-.6.2-.6.6.2.4.4.6.6.6zm0 1.8h2.5c.2 0 .6-.2.6-.6 0-.2-.2-.6-.6-.6h-2.5c-.2 0-.6.2-.6.6.2.4.4.6.6.6zm0 1.7h2.5c.2 0 .6-.2.6-.6 0-.2-.2-.6-.6-.6h-2.5c-.2 0-.6.2-.6.6.2.2.4.6.6.6zm-4 5.8h11.2v1.2c0 .2.2.4.4.4h.2c.2 0 .2 0 .4-.2l.6-.6.6.6c0 .1.2.1.4.1s.4-.2.4-.4v-1.2h2.9c.2 0 .6-.2.6-.6v-10c0-.2-.2-.6-.6-.6h-1.2v-1.9c0-.2-.2-.6-.6-.6h-5c-.6 0-1.3.4-1.7.8-.4-.6-1-.8-1.7-.8h-5c-.2 0-.6.2-.6.6v1.9h-1.2c-.2 0-.6.2-.6.6v10c-.1.3.3.7.5.7zm8.8-1c.2-.4.6-.8 1.2-.8h1.2v.8h-2.4zm3.9 1s-.2-.2-.4-.2-.2 0-.4.2v-1.7h.8v1.7zm3.2-10v9H59v-.8h1.2c.2 0 .6-.2.6-.6v-7.7h.5zM47.5 11h4.4c.6 0 1.2.6 1.2 1.2 0 .2.2.6.6.6.2 0 .6-.2.6-.6 0-.6.6-1.2 1.2-1.2h4.4v9.8h-4.4c-.6 0-1.3.4-1.7.8-.4-.6-1-.8-1.7-.8h-4.4V11zm-1.7 2.5h.8v7.7c0 .2.2.6.6.6H52c.4 0 1 .2 1.2.8H46v-9h-.2zM34.2 47.1c-.2-.4-.4-.4-.8-.2l-1.7 1h-1.2s-.4-.2-.6-.2c-.8-.4-1.2-.6-1.5-.6s-.8.2-1.2.4c-1.5.4-3.1.2-3.7.2-.2-.2-1.9-1.2-1.9-1.2h-.4c-.2 0-.2.2-.4.4l-2.1 5.8v.4c0 .2.2.2.2.2s2.1.7 2.3.7.2 0 .4-.2l.4.2v.4c0 .4.2.6.4.8.2.2.4.4.8.4 0 .2.2.4.4.6.2.2.8.4 1.2.4.2.4 1 .8 1.3.6.2.4 1 .8 1.5.4l.2.2c.2.2.6.4 1 .4s.6-.2 1-.4c.2-.2.2-.2.2-.4h.4c.4 0 .6-.2 1-.4 0 0 .2-.2.2-.4h.4c.4 0 .6-.2 1-.4.2-.2.2-.2.2-.4h.2c.4 0 .6-.2 1-.4.4-.4.4-1.2 0-1.7h.2c0 .2.2.2.4.2s1.9-.6 2.1-.8c.4-.2.4-.4.2-.6l-3.1-5.4zm-12.9.4s1 .6 1.2.8c-.2.8-.8 2.9-1.7 4.4l-1.2-.4 1.7-4.8zm5 8.8s-.2-.2 0-.2c0-.2 0-.4-.2-.6h-.6l-.2.2h-.2v-.2c.2-.2.2-.6 0-.6-.2-.2-.4-.2-.6 0l-.2.2h-.2V55c.2-.2.2-.4 0-.6s-.6-.2-.8 0h-.2v-.2l.6-.6h.3c.2.2.4.2.6 0 0 0 0 .2.2.2.2.2.6.2.8 0h.2s.2 0 .2.2c-.2.2-.2.6 0 .6.2.2.6.2.8 0h.2v.2c0 .2 0 .4.2.6s.4.2.6 0h.4v.4l-.8.8c-.9-.3-1.1-.1-1.1-.3zm2 .6c-.2.2-.2.2-.4 0l-.2-.2.4-.4.2.2c.2.2.2.2 0 .4zm4.4-2.1c-.2.2-.2.2-.4 0l-2.1-2.1c-.2-.2-.6-.2-.8 0-.2.2-.2.6 0 .8l1.9 1.9s.2.2 0 .4h-.4l-2.1-2.3c-.2-.2-.6-.2-.8 0-.2.2-.2.6 0 .8l1.7 1.7c.2.2 0 .4 0 .4h-.4l-1-1c0-.2-.2-.4-.4-.6-.2-.2-.6-.4-.8-.4 0-.2-.2-.4-.4-.6-.2-.2-.6-.4-1-.4 0-.2 0-.4-.2-.4-.4-.4-1.2-.4-1.5 0 0 0 0-.2-.2-.2-.4-.4-1.2-.4-1.7 0l-.4.4-.4-.2c1-1.7 1.5-3.5 1.7-4.2.4 0 1.9.2 1.9.2.1.2.1 1 .1 1s-.6 1-.8 1.2c0 .4 0 .6.4 1 .2.2.6.4 1 .4s.6 0 1-.4c.8-.4 1-1 1.2-1.3h.6l4.2 4.2c.1-.5.1-.3.1-.3zm0-1.5L29 49.6s-.2-.2-.4-.2h-1.3c-.2 0-.4.2-.4.6 0 0 0 .6-.6 1-.4.2-.8.2-.8.2.2-.2.6-.8.6-1 .2-.2.2-.6.2-1 1.5-1.2 2.1-1.2 2.1-1.2.2 0 .8.4 1.2.4.4.2.6.4.8.4h1.2c.2.8.6 2.5 1.5 4.2l-.4.3zm1.5-.2c-1.2-1.7-1.5-3.7-1.7-4.4l1.2-.6 1.7 4.6c-.6 0-1 .2-1.2.4zM18.3 12.9c.4 0 1.3-.6 2.1-.6v10.6c0 .2 0 .4.2.4s.4.2.4 0l4-1.5 4 1.5h.4c.2 0 .2-.2.2-.4V12.3c2.7.4 4.4 1.7 5 2.1 0 0 .2.2.4.2s.2 0 .4-.2c0 0 1-1.2 1-2.9s-1-2.7-1-2.9-.2-.1-.4-.1-.2 0-.4.2c-.8.8-3.3 2.3-7.1 2.3h-5.8c-.8 0-3.1-.8-3.3-.8-.8.2-1.5.4-1.5 1.3s.6 1.4 1.4 1.4zm2.9 5.8l7.3-3.1v.6l-7.3 3.1v-.6zm7.5-4.3l-7.5 3.1v-4.4c.8.8 1.9 1.3 3.7 1.3 1.7 0 2.9-.8 3.7-1.3l.1 1.3zm-3.5 6.4h-.4l-3.7 1.3v-1.7l7.5-3.1v4.8l-3.4-1.3zm9.6-11c.2.4.4 1 .4 1.7s-.2 1.3-.4 1.7c-.8-.4-2.1-1.2-3.7-1.7 1.6-.3 2.9-1.1 3.7-1.7zm-6.5 2.3c-.6.6-1.5 1.5-3.3 1.5-1.7 0-2.9-1-3.5-1.5h6.8zm-10.2-.8l.8.2c-.2.2-.6.4-.8.4-.2 0-.2-.2-.2-.4 0 0 0-.2.2-.2zm34 43.3h.4m-.2-.4v.4"></path><path d="M14.2 27.5v-20C23.3 5 31 3.8 38.1 3.7v23.8h1V3.7h1.8v24h1v-24c6.9.1 14.4 1.3 23.7 3.8v20h1V7.1c0-.2-.2-.4-.4-.4-10.4-2.9-18.5-4.2-26.4-4.2-7.7 0-16.2 1.3-26.3 4.2-.2 0-.4.2-.4.4v20.4h1.1zm51.2 15c0 13.3-10.4 23.1-23.8 23.8V42.5h-1v24h-1.8v-24h-1v23.8C24.4 65.4 14 55.6 14 42.5h-.8c.2 14.2 11.7 25 26.7 25 14.8 0 26.3-10.6 26.5-25h-1zm9.8-5.2l4.4-8.1h-7.5v-2.1H69V4.6c0-.2-.2-.4-.4-.4C58.7 1.3 49 0 39.8 0S20.8 1.3 11 4c-.2 0-.4.2-.4.4v22.5H7.5V29H0l4.4 8.1L0 45.2h10.8C12.3 59.4 24.4 70 39.8 70s27.5-10.8 29-24.8h10.8l-4.4-7.9zM11.5 4.8c9.6-2.7 19.2-4 28.3-4s18.5 1.3 28.1 4v22.1H11.5V4.8zm-3 23.3h62.7v14H8.5v-14zm-7 16.1l3.8-7.1L1.5 30h5.8v12.9h3.1v1.2H1.5v.1zM39.8 69c-15.6 0-27.9-11.3-28.3-26h56.3c-.1 14.7-12.4 26-28 26zM69 43.1h3.1V30.2h5.8L74 37.3l3.8 7.1h-9c0-.6 0-.9.2-1.3zM48.8 30.6h6v2.3H54c-.2-.6-.2-1-.2-1.3H51v3.1h2.7v1H51V39h3c0-.6.2-1 .4-1.3h.8V40h-6.3v-1c.2-.2.6-.4 1-.4v-6.9c-.2 0-.8-.2-1-.4l-.1-.7zm-9.6 0h3.1v.8c-.2.2-.6.4-1 .4v2.9h1.3l2.1-3.1-1 .2v-1h3.1v.8c-.4.2-1 .4-1 .4l-2.3 3.5L46 39h1v.8c-.3.2-.7.2-1 .2-.8 0-1-.4-1.3-1l-1.9-3.3h-1.3V39c.2-.2.8-.2 1-.2v1h-3.1V39c.2-.2.6-.4 1-.4v-7.1c-.2.2-.8.2-1 .2v-1.1h-.2zm-4 1.1v7.1c.4-.2.8-.2 1-.2v1h-3.1v-.8c.2-.2.6-.4 1-.4v-7.1c-.2.2-.8.2-1 .2v-1h3.1v.8c-.4.2-.8.2-1 .4m-9.8 7v-7.1c-.2.2-.8.2-1 .2v-1h3.1v.8c-.2.2-.6.4-1 .4v7h2.7c0-.6 0-1 .4-1.5h.8V40h-6v-.8c.2-.4.6-.5 1-.5"></path><path d="M68.1 25.4h1v.8h-1z"></path><circle cx="48.3" cy="51.9" r="1"></circle><circle cx="53.3" cy="47.1" r="1"></circle><circle cx="56" cy="51.5" r=".4"></circle><circle cx="46.2" cy="55.2" r=".4"></circle><circle cx="53.1" cy="57.5" r=".4"></circle><circle cx="49.4" cy="59.4" r="1.2"></circle><circle cx="57.3" cy="56.2" r=".8"></circle><path d="M52.5 55.8c-1.2 0-2.1-1-2.1-2.1s1-2.1 2.1-2.1 2.1 1 2.1 2.1-.9 2.1-2.1 2.1zm0-3.5c-.8 0-1.3.6-1.3 1.3s.6 1.3 1.3 1.3 1.3-.6 1.3-1.3-.5-1.3-1.3-1.3zm-3.618 6.601l2.243-4.016.698.39-2.243 4.016zM57.5 56.9l-3.8-2.5.3-.6 3.9 2.5zm-9.614-4.294l.225-.768 2.783.815-.225.768zM53.1 52.1l-.8-.2.6-5h.8zm.635.691l2.242-1.504.446.664-2.242 1.504zM52.7 57.7l-.2-2.3.8-.2.2 2.3zm-6.737-2.825l4.502-.945.164.783-4.502.945z"></path>
		</symbol>
	
		<symbol id="mask" viewBox="0 0 1124.79 237.66">
			<path d="M150.33 88q20.8 0 20.8-31.2t-20.8-31.2q-20.79 0-20.8 31.2t20.8 31.2zM258.33 88q20.81 0 20.8-31.2t-20.8-31.2q-20.79 0-20.8 31.2t20.8 31.2zM366.33 88q20.81 0 20.8-31.2t-20.8-31.2q-20.81 0-20.8 31.2t20.8 31.2zM502.33 88q20.79 0 20.8-31.2t-20.8-31.2q-20.81 0-20.8 31.2t20.8 31.2zM610.33 88q20.79 0 20.8-31.2t-20.8-31.2q-20.8 0-20.8 31.2t20.8 31.2zM718.33 88q20.79 0 20.8-31.2t-20.8-31.2q-20.8 0-20.8 31.2t20.8 31.2zM854.32 88q20.8 0 20.8-31.2t-20.8-31.2q-20.79 0-20.8 31.2t20.8 31.2zM962.32 88q20.8 0 20.8-31.2t-20.8-31.2q-20.79 0-20.8 31.2t20.8 31.2zM1070.32 88q20.81 0 20.8-31.2t-20.8-31.2q-20.8 0-20.8 31.2t20.8 31.2z"></path><path d="M963.46 0q25.27 0 37.84 15.92t12.56 40.88q0 25-12.56 40.88t-37.84 15.92q-25.29 0-37.84-15.92T913.06 56.8q0-25 12.56-40.88T963.46 0h-108q25.27 0 37.84 15.92t12.56 40.88q0 25-12.56 40.88t-37.84 15.92q-25.29 0-37.84-15.92T805.06 56.8q0-25 12.56-40.88T855.46 0h-136q25.27 0 37.84 15.92t12.56 40.88q0 25-12.56 40.88t-37.84 15.92q-25.28 0-37.84-15.92T669.06 56.8q0-25 12.56-40.88T719.46 0h-108q25.27 0 37.84 15.92t12.56 40.88q0 25-12.56 40.88t-37.84 15.92q-25.28 0-37.84-15.92T561.06 56.8q0-25 12.56-40.88T611.46 0h-108q25.29 0 37.84 15.92t12.56 40.88q0 25-12.56 40.88t-37.84 15.92q-25.27 0-37.84-15.92T453.06 56.8q0-25 12.56-40.88T503.46 0h-136q25.27 0 37.84 15.92t12.57 40.88q0 25-12.56 40.88t-37.84 15.92q-25.29 0-37.84-15.92T317.07 56.8q0-25 12.56-40.88T367.47 0h-108q25.27 0 37.84 15.92t12.56 40.88q0 25-12.56 40.88t-37.84 15.92q-25.29 0-37.84-15.92T209.07 56.8q0-25 12.56-40.88T259.47 0h-108q25.28 0 37.84 15.92t12.56 40.88q0 25-12.56 40.88t-37.84 15.92q-25.29 0-37.84-15.92T101.07 56.8q0-25 12.56-40.88T151.47 0H0v237.66h544.44a40.15 40.15 0 0 1-9.5-1.41v-15.12a30.48 30.48 0 0 0 7 .87q7.13 0 10.8-8.21l-24.41-53.14h19.44l12.64 30.89L571 160.65h18.9l-21.7 57.24q-7.56 19.77-23.76 19.77h580.35V0zM3.63 86.4H21.7V31.68L3.63 38.46v-26L30 2.4h21.6v84h17v24.8h-65zM89.77 212a25.14 25.14 0 0 1-9.29 1.62q-8.64 0-12.31-5.72a28.52 28.52 0 0 1-18 6.26 19.4 19.4 0 0 1-12.85-4.32 14.41 14.41 0 0 1-5.18-11.66 15.85 15.85 0 0 1 2-8.16 13.9 13.9 0 0 1 5.45-5.34 28.15 28.15 0 0 1 7.13-2.7 34.35 34.35 0 0 1 7.83-.87 52.23 52.23 0 0 1 11.23 1.19v-1.83a5.38 5.38 0 0 0-2.75-4.7q-2.76-1.78-8-1.78a49.13 49.13 0 0 0-18.14 4v-15.5A64.92 64.92 0 0 1 57.05 159q13.28 0 20.19 5.51t6.91 18.68v14.51q0 3.24 3.57 3.24a6.34 6.34 0 0 0 2-.33zm105.84-36.18h-15.12v36.72h-18.36v-36.77H147v-13.48l-15.77 23.85 17.93 26.35h-20.4L116 192.83h-3.89v19.66H93.76v-51.84h18.36v18.14h4.11l11.34-18.14h68zm56.48 36.72h-18.36V188l-18.47 24.51h-16.09v-51.86h18.36v24.52L236 160.65h16.09zm54.22-3.94q-4.11 3.94-13.72 3.94h-33v-51.89h32.19q9.5 0 13.55 4a13 13 0 0 1 4.05 9.45q0 9-8.42 12.21 9.49 3 9.5 12.31a13.15 13.15 0 0 1-4.15 9.93zm62.1 3.94h-18.36v-18.41h-16.2v18.36h-18.36v-51.84h18.36V179h16.2v-18.35h18.36zm51.51-5.18q-5.61 5.17-15.77 5.18h-28.29v-51.89h18.36v15.12h9.93q10.16 0 15.77 5.19a18.25 18.25 0 0 1 0 26.35zm31.54 5.18H433.1v-51.89h18.36zm41.25 0l-9.5-13.39-9.51 13.39H453l19.55-25.81-18.58-26h20.74l8.53 13.61 8.53-13.61h20.74l-18.58 26 19.55 25.81zm148.28 0h-18.36v-15.28a36 36 0 0 1-12.09 2 21.42 21.42 0 0 1-14.47-5q-5.84-5-5.84-14.86v-18.75h18.36v17q0 6.48 6.92 6.48a18.87 18.87 0 0 0 7.12-1.3v-22.18H641zm62.1-.54a25.09 25.09 0 0 1-9.28 1.62q-8.65 0-12.32-5.72a28.51 28.51 0 0 1-18 6.26 19.37 19.37 0 0 1-12.85-4.32 14.39 14.39 0 0 1-5.19-11.66 15.85 15.85 0 0 1 2.05-8.16 13.86 13.86 0 0 1 5.46-5.34 28 28 0 0 1 7.13-2.7 34.29 34.29 0 0 1 7.83-.87 52.3 52.3 0 0 1 11.23 1.19v-1.83a5.39 5.39 0 0 0-2.76-4.7c-1.83-1.19-4.52-1.78-8-1.78a49.18 49.18 0 0 0-18.15 4v-15.5a64.92 64.92 0 0 1 20.2-3.46q13.29 0 20.2 5.51t6.91 18.68v14.48c0 2.16 1.18 3.24 3.56 3.24a6.29 6.29 0 0 0 2.05-.33zm47.85-1.29a46.08 46.08 0 0 1-17.82 3.45q-11.88 0-20.25-6.75t-8.37-19.71q0-14.25 8.8-21.49a32.18 32.18 0 0 1 21.11-7.24 36.55 36.55 0 0 1 16 3.57v15.66a25.87 25.87 0 0 0-13.18-3.57 16.17 16.17 0 0 0-9.94 2.92q-3.88 2.91-3.88 9.07 0 5.84 3.88 8.86a15.25 15.25 0 0 0 9.62 3 27.88 27.88 0 0 0 14-3.45zm50.43-34.89h-15.12v36.72h-18.36v-36.77h-15.12v-15.12h48.6zm56.48 36.72h-18.36v-18.41h-16.2v18.36h-18.36v-51.84h18.36V179h16.2v-18.35h18.36zm60.38 0h-18.36V188l-18.47 24.49h-16.09v-51.84h18.36v24.52l18.46-24.52h16.1zm42.44 0l-12.75-19.66H944v19.66h-18.32v-51.89H944v18.14h4.1l11.34-18.14H980l-16.85 25.49 17.93 26.35zm69.5-5.56q-8.37 7.19-20.79 7.18t-20.79-7.18q-8.37-7.19-8.37-20.36t8.37-20.36Q997 159 1009.38 159t20.79 7.18q8.37 7.18 8.37 20.36t-8.37 20.39zm60 1.62q-4.11 3.94-13.72 3.94h-33v-51.89h32.18q9.51 0 13.55 4a13 13 0 0 1 4 9.45q0 9-8.42 12.21 9.51 3 9.5 12.31a13.11 13.11 0 0 1-4.1 9.93zm19.13-110.92c-7.85 11-21 15.92-37.84 15.92s-29.47-5.3-37.84-15.92-12.56-24.24-12.56-40.88 4.18-30.26 12.56-40.88S1054.32.13 1070.89 0q24.84.18 37.27 15.91c8.37 10.62 12.56 24.52 12.56 40.88 0 16.91-3.49 29.76-11.42 40.89z"></path><path d="M289.84 177.07q0-4.75-5.73-4.75h-7.34v9.28h7.45c3.78 0 5.62-1.51 5.62-4.53zM49.86 196.62a4.54 4.54 0 0 0 1.73 3.61 6.77 6.77 0 0 0 4.54 1.46 14 14 0 0 0 8.53-2.7v-7a20.71 20.71 0 0 0-6.59-1q-8.2.01-8.21 5.63zM285.19 191.54h-8.31v9.29h8.42c3.74 0 5.62-1.51 5.62-4.54s-1.92-4.75-5.73-4.75zM403.56 189.81a8.38 8.38 0 0 0-5.51-1.62h-5v11.88h5a8.38 8.38 0 0 0 5.51-1.62 5.78 5.78 0 0 0 0-8.64zM663.19 196.62a4.51 4.51 0 0 0 1.73 3.61 6.74 6.74 0 0 0 4.53 1.46A14 14 0 0 0 678 199v-7a20.69 20.69 0 0 0-6.58-1q-8.24 0-8.23 5.62zM1073.69 177.07q0-4.75-5.72-4.75h-7.35v9.28h7.45q5.63 0 5.62-4.53zM1008.24 175.23q-5.29 0-7.77 3.24a14.42 14.42 0 0 0 0 16.2q2.47 3.24 7.77 3.24t7.78-3.24a14.47 14.47 0 0 0 0-16.2q-2.49-3.24-7.78-3.24zM1069.05 191.54h-8.32v9.29h8.42q5.63 0 5.62-4.54 0-4.75-5.72-4.75zM150.33 88q20.8 0 20.8-31.2t-20.8-31.2q-20.79 0-20.8 31.2t20.8 31.2zM258.33 88q20.81 0 20.8-31.2t-20.8-31.2q-20.79 0-20.8 31.2t20.8 31.2zM366.33 88q20.81 0 20.8-31.2t-20.8-31.2q-20.81 0-20.8 31.2t20.8 31.2zM502.33 88q20.79 0 20.8-31.2t-20.8-31.2q-20.81 0-20.8 31.2t20.8 31.2zM610.33 88q20.79 0 20.8-31.2t-20.8-31.2q-20.8 0-20.8 31.2t20.8 31.2zM718.33 88q20.79 0 20.8-31.2t-20.8-31.2q-20.8 0-20.8 31.2t20.8 31.2zM854.32 88q20.8 0 20.8-31.2t-20.8-31.2q-20.79 0-20.8 31.2t20.8 31.2zM962.32 88q20.8 0 20.8-31.2t-20.8-31.2q-20.79 0-20.8 31.2t20.8 31.2zM1070.32 88q20.81 0 20.8-31.2t-20.8-31.2q-20.8 0-20.8 31.2t20.8 31.2z"></path><path d="M963.46 0q25.27 0 37.84 15.92t12.56 40.88q0 25-12.56 40.88t-37.84 15.92q-25.29 0-37.84-15.92T913.06 56.8q0-25 12.56-40.88T963.46 0h-108q25.27 0 37.84 15.92t12.56 40.88q0 25-12.56 40.88t-37.84 15.92q-25.29 0-37.84-15.92T805.06 56.8q0-25 12.56-40.88T855.46 0h-136q25.27 0 37.84 15.92t12.56 40.88q0 25-12.56 40.88t-37.84 15.92q-25.28 0-37.84-15.92T669.06 56.8q0-25 12.56-40.88T719.46 0h-108q25.27 0 37.84 15.92t12.56 40.88q0 25-12.56 40.88t-37.84 15.92q-25.28 0-37.84-15.92T561.06 56.8q0-25 12.56-40.88T611.46 0h-108q25.29 0 37.84 15.92t12.56 40.88q0 25-12.56 40.88t-37.84 15.92q-25.27 0-37.84-15.92T453.06 56.8q0-25 12.56-40.88T503.46 0h-136q25.27 0 37.84 15.92t12.57 40.88q0 25-12.56 40.88t-37.84 15.92q-25.29 0-37.84-15.92T317.07 56.8q0-25 12.56-40.88T367.47 0h-108q25.27 0 37.84 15.92t12.56 40.88q0 25-12.56 40.88t-37.84 15.92q-25.29 0-37.84-15.92T209.07 56.8q0-25 12.56-40.88T259.47 0h-108q25.28 0 37.84 15.92t12.56 40.88q0 25-12.56 40.88t-37.84 15.92q-25.29 0-37.84-15.92T101.07 56.8q0-25 12.56-40.88T151.47 0H0v237.66h544.44a40.15 40.15 0 0 1-9.5-1.41v-15.12a30.48 30.48 0 0 0 7 .87q7.13 0 10.8-8.21l-24.41-53.14h19.44l12.64 30.89L571 160.65h18.9l-21.7 57.24q-7.56 19.77-23.76 19.77h580.35V0zM3.63 86.4H21.7V31.68L3.63 38.46v-26L30 2.4h21.6v84h17v24.8h-65zM89.77 212a25.14 25.14 0 0 1-9.29 1.62q-8.64 0-12.31-5.72a28.52 28.52 0 0 1-18 6.26 19.4 19.4 0 0 1-12.85-4.32 14.41 14.41 0 0 1-5.18-11.66 15.85 15.85 0 0 1 2-8.16 13.9 13.9 0 0 1 5.45-5.34 28.15 28.15 0 0 1 7.13-2.7 34.35 34.35 0 0 1 7.83-.87 52.23 52.23 0 0 1 11.23 1.19v-1.83a5.38 5.38 0 0 0-2.75-4.7q-2.76-1.78-8-1.78a49.13 49.13 0 0 0-18.14 4v-15.5A64.92 64.92 0 0 1 57.05 159q13.28 0 20.19 5.51t6.91 18.68v14.51q0 3.24 3.57 3.24a6.34 6.34 0 0 0 2-.33zm105.84-36.18h-15.12v36.72h-18.36v-36.77H147v-13.48l-15.77 23.85 17.93 26.35h-20.4L116 192.83h-3.89v19.66H93.76v-51.84h18.36v18.14h4.11l11.34-18.14h68zm56.48 36.72h-18.36V188l-18.47 24.51h-16.09v-51.86h18.36v24.52L236 160.65h16.09zm54.22-3.94q-4.11 3.94-13.72 3.94h-33v-51.89h32.19q9.5 0 13.55 4a13 13 0 0 1 4.05 9.45q0 9-8.42 12.21 9.49 3 9.5 12.31a13.15 13.15 0 0 1-4.15 9.93zm62.1 3.94h-18.36v-18.41h-16.2v18.36h-18.36v-51.84h18.36V179h16.2v-18.35h18.36zm51.51-5.18q-5.61 5.17-15.77 5.18h-28.29v-51.89h18.36v15.12h9.93q10.16 0 15.77 5.19a18.25 18.25 0 0 1 0 26.35zm31.54 5.18H433.1v-51.89h18.36zm41.25 0l-9.5-13.39-9.51 13.39H453l19.55-25.81-18.58-26h20.74l8.53 13.61 8.53-13.61h20.74l-18.58 26 19.55 25.81zm148.28 0h-18.36v-15.28a36 36 0 0 1-12.09 2 21.42 21.42 0 0 1-14.47-5q-5.84-5-5.84-14.86v-18.75h18.36v17q0 6.48 6.92 6.48a18.87 18.87 0 0 0 7.12-1.3v-22.18H641zm62.1-.54a25.09 25.09 0 0 1-9.28 1.62q-8.65 0-12.32-5.72a28.51 28.51 0 0 1-18 6.26 19.37 19.37 0 0 1-12.85-4.32 14.39 14.39 0 0 1-5.19-11.66 15.85 15.85 0 0 1 2.05-8.16 13.86 13.86 0 0 1 5.46-5.34 28 28 0 0 1 7.13-2.7 34.29 34.29 0 0 1 7.83-.87 52.3 52.3 0 0 1 11.23 1.19v-1.83a5.39 5.39 0 0 0-2.76-4.7c-1.83-1.19-4.52-1.78-8-1.78a49.18 49.18 0 0 0-18.15 4v-15.5a64.92 64.92 0 0 1 20.2-3.46q13.29 0 20.2 5.51t6.91 18.68v14.48c0 2.16 1.18 3.24 3.56 3.24a6.29 6.29 0 0 0 2.05-.33zm47.85-1.29a46.08 46.08 0 0 1-17.82 3.45q-11.88 0-20.25-6.75t-8.37-19.71q0-14.25 8.8-21.49a32.18 32.18 0 0 1 21.11-7.24 36.55 36.55 0 0 1 16 3.57v15.66a25.87 25.87 0 0 0-13.18-3.57 16.17 16.17 0 0 0-9.94 2.92q-3.88 2.91-3.88 9.07 0 5.84 3.88 8.86a15.25 15.25 0 0 0 9.62 3 27.88 27.88 0 0 0 14-3.45zm50.43-34.89h-15.12v36.72h-18.36v-36.77h-15.12v-15.12h48.6zm56.48 36.72h-18.36v-18.41h-16.2v18.36h-18.36v-51.84h18.36V179h16.2v-18.35h18.36zm60.38 0h-18.36V188l-18.47 24.49h-16.09v-51.84h18.36v24.52l18.46-24.52h16.1zm42.44 0l-12.75-19.66H944v19.66h-18.32v-51.89H944v18.14h4.1l11.34-18.14H980l-16.85 25.49 17.93 26.35zm69.5-5.56q-8.37 7.19-20.79 7.18t-20.79-7.18q-8.37-7.19-8.37-20.36t8.37-20.36Q997 159 1009.38 159t20.79 7.18q8.37 7.18 8.37 20.36t-8.37 20.39zm60 1.62q-4.11 3.94-13.72 3.94h-33v-51.89h32.18q9.51 0 13.55 4a13 13 0 0 1 4 9.45q0 9-8.42 12.21 9.51 3 9.5 12.31a13.11 13.11 0 0 1-4.1 9.93zm19.13-110.92c-7.85 11-21 15.92-37.84 15.92s-29.47-5.3-37.84-15.92-12.56-24.24-12.56-40.88 4.18-30.26 12.56-40.88S1054.32.13 1070.89 0q24.84.18 37.27 15.91c8.37 10.62 12.56 24.52 12.56 40.88 0 16.91-3.49 29.76-11.42 40.89z"></path><path d="M289.84 177.07q0-4.75-5.73-4.75h-7.34v9.28h7.45c3.78 0 5.62-1.51 5.62-4.53zM49.86 196.62a4.54 4.54 0 0 0 1.73 3.61 6.77 6.77 0 0 0 4.54 1.46 14 14 0 0 0 8.53-2.7v-7a20.71 20.71 0 0 0-6.59-1q-8.2.01-8.21 5.63zM285.19 191.54h-8.31v9.29h8.42c3.74 0 5.62-1.51 5.62-4.54s-1.92-4.75-5.73-4.75zM403.56 189.81a8.38 8.38 0 0 0-5.51-1.62h-5v11.88h5a8.38 8.38 0 0 0 5.51-1.62 5.78 5.78 0 0 0 0-8.64zM663.19 196.62a4.51 4.51 0 0 0 1.73 3.61 6.74 6.74 0 0 0 4.53 1.46A14 14 0 0 0 678 199v-7a20.69 20.69 0 0 0-6.58-1q-8.24 0-8.23 5.62zM1073.69 177.07q0-4.75-5.72-4.75h-7.35v9.28h7.45q5.63 0 5.62-4.53zM1008.24 175.23q-5.29 0-7.77 3.24a14.42 14.42 0 0 0 0 16.2q2.47 3.24 7.77 3.24t7.78-3.24a14.47 14.47 0 0 0 0-16.2q-2.49-3.24-7.78-3.24zM1069.05 191.54h-8.32v9.29h8.42q5.63 0 5.62-4.54 0-4.75-5.72-4.75z"></path>
		</symbol>
	
		<symbol id="right-arrow" viewBox="0 0 23 16.17">
			<path d="M15.49.24a.82.82 0 0 0-1.16 1.15l5.88 5.88H.81a.81.81 0 0 0-.81.81.82.82 0 0 0 .81.82h19.4l-5.88 5.87a.84.84 0 0 0 0 1.16.82.82 0 0 0 1.16 0l7.27-7.27a.81.81 0 0 0 0-1.15z"></path>
		</symbol>
	
		<symbol id="vk" viewBox="0 0 24 13.7">
			<path d="M23.9 12.4s0-.1-.1-.1c-.4-.8-1.2-1.7-2.4-2.8-.6-.5-.9-.9-1-1.1-.3-.3-.3-.6-.2-1 .1-.2.5-.8 1.1-1.6.4-.5.6-.8.8-1.1C23.5 2.8 24.2 1.5 24 1l-.1-.1-.4-.2c-.2-.1-.5-.1-.8 0h-4s-.1 0-.1.1c0 0-.1.1-.1.2-.4 1-.8 1.9-1.3 2.8-.3.5-.6 1-.8 1.3-.3.4-.5.6-.7.8-.1.2-.3.3-.5.4-.1.1-.2.2-.3.1h-.2c-.1 0-.2-.1-.3-.3 0-.1-.1-.3-.1-.5V.7s0-.3-.1-.4c0-.1-.1-.2-.2-.3l-.4-.2c-.5-.1-1-.1-1.7-.2h-.4C9.8 0 9 .1 8.6.3c-.2.1-.4.3-.5.4-.2.2-.2.3-.1.3.5 0 .9.2 1.1.5l.1.2c0 .1.1.3.2.6s.1.6.1.9v1.6c0 .4 0 .8-.1 1s-.2.4-.2.5c-.1.2-.2.3-.2.3h-.4c-.1 0-.2 0-.4-.2-.2 0-.3-.1-.5-.3-.2-.2-.4-.5-.7-.9-.1-.4-.4-.8-.7-1.3l-.1-.4c-.2-.2-.4-.5-.5-1-.3-.4-.5-.8-.6-1.3 0-.2-.1-.3-.3-.4h-.1S4.6.7 4.5.7s-.2 0-.3-.1H.7C.4.6.1.7 0 .8v.4c0 .1 0 .2.1.3.5 1.2 1 2.3 1.6 3.4.6 1.1 1.1 2 1.5 2.7.5.6.9 1.3 1.3 1.9.5.6.7 1 .9 1.1.1.2.2.3.3.4l.3.3c.3.1.6.4 1 .7.4.3.8.6 1.3.8.5.2 1 .5 1.7.6.6.2 1.2.2 1.8.2h1.5c.3 0 .5-.1.6-.3 0 0 0-.1.1-.2v-.3c0-.4 0-.7.1-1 0-.3.1-.5.2-.7.1-.1.2-.2.3-.4.1-.1.2-.1.2-.1h.1c.2-.1.4 0 .7.2.3.2.6.4.8.7.2.3.5.6.8 1l.9.8.2.1.6.3c.3.1.5.1.7.1l3.2-.1c.3 0 .6 0 .7-.1s.3-.2.3-.3v-.5c.1-.2.1-.3.1-.4z"></path>
		</symbol>
	
		<symbol id="yt" viewBox="0 0 24 16.7">
			<path d="M22.9 1.4C22 .4 20.5 0 17.4 0H6.5C3.4 0 1.7.4.8 1.5S0 4.2 0 6.3v4.1c0 4.2 1 6.3 6.5 6.3h11.1c2.7 0 4.1-.4 5.1-1.3 1-1 1.4-2.4 1.4-5.1v-4c-.2-2.2-.2-3.8-1.2-4.9zM15.3 9l-5.1 2.7-.4.1c-.1 0-.3 0-.4-.1-.1-.3-.3-.4-.3-.7V5.8c0-.3.1-.6.4-.7s.6-.1.7 0l5.1 2.7c.3.1.4.4.4.7 0 .1-.1.3-.4.5z"></path>
		</symbol>
	
</svg>
