<svg xmlns="http://www.w3.org/2000/svg" xmlns:xlink="http://www.w3.org/1999/xlink" viewBox="0 0 388.19 129.94">
  <defs>
    <style>
      .cls-1 {
        fill: url(#radial-gradient);
      }

      .cls-2 {
        fill: url(#radial-gradient-2);
      }

      .cls-3 {
        fill: url(#radial-gradient-3);
      }

      .cls-4 {
        fill: url(#radial-gradient-4);
      }

      .cls-5 {
        fill: url(#radial-gradient-5);
      }

      .cls-6 {
        fill: url(#radial-gradient-6);
      }

      .cls-7 {
        fill: url(#radial-gradient-7);
      }

      .cls-8 {
        fill: url(#radial-gradient-8);
      }

      .cls-9 {
        fill: url(#radial-gradient-9);
      }
    </style>
    <radialGradient id="radial-gradient" cx="-183.75" cy="218.5" r="565.42" gradientUnits="userSpaceOnUse">
      <stop offset="0" stop-color="#fec053" />
      <stop offset="0.33" stop-color="#f2203e" />
      <stop offset="0.65" stop-color="#b729a8" />
      <stop offset="1" stop-color="#5342d6" />
    </radialGradient>
    <radialGradient id="radial-gradient-2" cx="-183.75" cy="218.5" r="565.42" xlink:href="#radial-gradient" />
    <radialGradient id="radial-gradient-3" cx="-183.75" cy="218.5" r="565.42" xlink:href="#radial-gradient" />
    <radialGradient id="radial-gradient-4" cx="-183.75" cy="218.5" r="565.42" xlink:href="#radial-gradient" />
    <radialGradient id="radial-gradient-5" cx="-183.75" cy="218.5" r="565.42" xlink:href="#radial-gradient" />
    <radialGradient id="radial-gradient-6" cx="-183.75" cy="218.5" r="565.41" xlink:href="#radial-gradient" />
    <radialGradient id="radial-gradient-7" cx="-183.75" cy="218.5" r="565.41" xlink:href="#radial-gradient" />
    <radialGradient id="radial-gradient-8" cx="-183.75" cy="218.5" r="565.41" xlink:href="#radial-gradient" />
    <radialGradient id="radial-gradient-9" cx="-183.75" cy="218.5" r="565.42" xlink:href="#radial-gradient" />
  </defs>
  <g data-name="Слой 2">
    <g id="objects">
      <path class="cls-1" d="M51.5,3.35a2,2,0,0,0-.3.62A5.36,5.36,0,0,0,51,5.71a11.36,11.36,0,0,0,.49,3.35V50.14A58.11,58.11,0,0,1,50.26,62.3,29.13,29.13,0,0,1,46,72.66a21.41,21.41,0,0,1-8.31,7.2q-5.28,2.67-13.47,2.67H22.59a29,29,0,0,1-11.48-1.92A18.28,18.28,0,0,1,4.22,75.7,16.15,16.15,0,0,1,.87,69.19,28.33,28.33,0,0,1,0,62.42a20.53,20.53,0,0,1,.68-5.27,14.83,14.83,0,0,1,2-4.47,10.84,10.84,0,0,1,3.16-3.1,7.71,7.71,0,0,1,4.22-1.18c1.49,0,2.44.39,2.86,1.18A5.18,5.18,0,0,1,13.53,52a8.41,8.41,0,0,1-1.12,4.53A18.53,18.53,0,0,1,10,59.69c-.87.92-1.67,1.83-2.42,2.73a5.18,5.18,0,0,0-1.12,3.36q0,6,4,8.56a17.67,17.67,0,0,0,9.92,2.6,18.6,18.6,0,0,0,9.06-2.1,20.78,20.78,0,0,0,6.4-5.34,23.68,23.68,0,0,0,5-14.15L39,55.47a14.42,14.42,0,0,1-7.76-2,18.65,18.65,0,0,1-5.46-5.15,22.76,22.76,0,0,1-3.22-6.7,23.74,23.74,0,0,1-1.06-6.71V30.53A29.51,29.51,0,0,1,22.09,25a54.15,54.15,0,0,1,1.74-6.58,50.08,50.08,0,0,1,2.73-6.7A40.8,40.8,0,0,1,30,5.83a19.7,19.7,0,0,1,4-4.22A7.13,7.13,0,0,1,38.35,0a6.55,6.55,0,0,1,2,.37L49,1a4.52,4.52,0,0,1,1.68.62A1.87,1.87,0,0,1,51.5,3.35ZM40.83,18.24c.17-.66.33-1.28.5-1.86a7.44,7.44,0,0,0,.25-2,5.42,5.42,0,0,0-.81-2.92,3.15,3.15,0,0,0-2.92-1.3,5.38,5.38,0,0,0-4.46,2.23,16.12,16.12,0,0,0-2.67,5.34,36.49,36.49,0,0,0-1.31,6.45A50.82,50.82,0,0,0,29,29.66c0,1.08.08,2.63.25,4.65a27.3,27.3,0,0,0,1.18,6,16.87,16.87,0,0,0,2.61,5.21,5.33,5.33,0,0,0,4.53,2.24c.16,0,.64,0,1.42-.12a7.08,7.08,0,0,0,1.8-.38Z" />
      <path class="cls-2" d="M79.92,50.51a25,25,0,0,0-3,5.77,63.08,63.08,0,0,0-2,6.58q-.87,3.42-1.43,6.82C73,72,72.64,74.13,72.23,76.2q-.26.75-1.92,1a18.18,18.18,0,0,1-2.42.25,21.65,21.65,0,0,1-3.67-.25A3.39,3.39,0,0,1,62.05,76a6.58,6.58,0,0,1-1.11-2.85A45.72,45.72,0,0,1,60.32,68l1.61-36.86c0-1.07.58-1.61,1.74-1.61a11.6,11.6,0,0,1,1.73.18,20,20,0,0,1,2.36.56,8.42,8.42,0,0,1,2.11.93,1.59,1.59,0,0,1,.87,1.31V57.71a3.42,3.42,0,0,0,.37-1c.58-1.49,1.29-3.33,2.11-5.53A67.45,67.45,0,0,1,76,44.93a29.33,29.33,0,0,1,3.17-5.09c1.11-1.41,2.25-2.11,3.41-2.11a5,5,0,0,1,3.41,1.05,6.79,6.79,0,0,1,1.8,2.67,12.18,12.18,0,0,1,.75,3.48q.12,1.86.12,3.6c0,.82-.08,2.19-.25,4.09s-.24,4.76-.24,8.56A25.49,25.49,0,0,0,88.73,67c.42,1.73,1.24,2.6,2.49,2.6a3.29,3.29,0,0,0,2.48-1.24,14.5,14.5,0,0,0,2-3.1,24.44,24.44,0,0,0,1.55-4,18.56,18.56,0,0,0,.74-4c.08-1.57.71-2.36,1.86-2.36a1.51,1.51,0,0,1,1.49.74,3.84,3.84,0,0,1,.38,1.74v.25a29.18,29.18,0,0,1-.93,5.58,24.24,24.24,0,0,1-2.36,5.84,14.85,14.85,0,0,1-4,4.59,9.84,9.84,0,0,1-6.08,1.86c-3.72,0-6.1-1.34-7.13-4s-1.55-6.67-1.55-12Z" />
      <path class="cls-3" d="M128.32,69.87a5.57,5.57,0,0,1-2,4.59,12.9,12.9,0,0,1-4.53,2.36,23.94,23.94,0,0,1-5.09.93c-1.69.13-2.92.19-3.66.19a30.2,30.2,0,0,1-4.28-.38,28.06,28.06,0,0,1-5-1.17,11.71,11.71,0,0,1-4.09-2.3A4.76,4.76,0,0,1,98,70.37a2,2,0,0,1,1.06-1.93,4,4,0,0,1,4.71.44c.87.66,1.78,1.36,2.73,2.11a26.44,26.44,0,0,0,3.17,2.11,7.88,7.88,0,0,0,4,1,7.5,7.5,0,0,0,2.67-.68A2.44,2.44,0,0,0,118,71a5.05,5.05,0,0,0-1.42-3.35,30,30,0,0,0-3.6-3.35q-2.18-1.74-4.66-3.6a43.71,43.71,0,0,1-4.65-4,20.85,20.85,0,0,1-3.6-4.77,11.72,11.72,0,0,1-1.43-5.71,10.33,10.33,0,0,1,2.79-7.33A21.08,21.08,0,0,1,108,34.13a32.91,32.91,0,0,1,7.76-2.48A35.8,35.8,0,0,1,122,30.9a11,11,0,0,1,4.21.87,3.29,3.29,0,0,1,2.11,3.35,10.84,10.84,0,0,1-.31,2.17,11.7,11.7,0,0,1-1,2.8,8.68,8.68,0,0,1-1.8,2.42,4,4,0,0,1-2.85,1.05,1.52,1.52,0,0,1-1-.43c-.33-.29-.7-.62-1.11-1a10.24,10.24,0,0,0-1.31-1,2.8,2.8,0,0,0-1.55-.43c-2.9,0-4.92.84-6.08,2.54a9.42,9.42,0,0,0-1.74,5.4c0,1.65,1,3.39,2.92,5.21s4.1,3.64,6.45,5.46,4.51,3.62,6.46,5.4S128.32,68.22,128.32,69.87Z" />
      <path class="cls-4" d="M131.05,55.1q.13-6.33.38-12.9T131.92,30c0-.66-.66-1.11-2-1.36s-2.82-.5-4.47-.75A19.72,19.72,0,0,1,121,26.74a2.75,2.75,0,0,1-2-2.66c0-1.08,1.07-1.7,3.22-1.87s5.34-.24,9.56-.24c.33,0,.56-.5.68-1.49s.21-2.26.25-3.79.08-3.16.12-4.9.11-3.37.19-4.9a26.68,26.68,0,0,1,.43-3.79c.21-1,.48-1.49.81-1.49a18.76,18.76,0,0,1,2.24.25c1.07.17,2.18.4,3.35.68a16.81,16.81,0,0,1,3,1.06c.86.41,1.3.87,1.3,1.36L142.85,21.1c0,.49.43.85,1.3,1a17.44,17.44,0,0,0,3.35.38c1.36,0,2.81.06,4.34.06a24.22,24.22,0,0,1,4.35.37,9.66,9.66,0,0,1,3.35,1.18,2.67,2.67,0,0,1,1.3,2.42,2.35,2.35,0,0,1-.25.81c-.16.37-.37.55-.62.55a1.21,1.21,0,0,1-.68-.37,4.26,4.26,0,0,0-2.3-.37q-.5,0-2.73.12c-1.49.09-3.06.21-4.71.37s-3.17.36-4.53.56-2.14.48-2.3.81a19.91,19.91,0,0,0-.31,2.92c-.12,1.78-.25,4.11-.37,7s-.23,6.23-.31,10-.13,7.72-.13,11.85a40.48,40.48,0,0,0,.25,4.59,26.8,26.8,0,0,0,.74,4,9.16,9.16,0,0,0,1.31,2.91,2.33,2.33,0,0,0,1.92,1.12,4.14,4.14,0,0,0,3-1.36,13.21,13.21,0,0,0,2.48-3.73,35.37,35.37,0,0,0,2-5.34c.58-2,1.07-4,1.49-6.08a8.5,8.5,0,0,1,.87-2.67,1.64,1.64,0,0,1,1.49-.8,2.37,2.37,0,0,1,1.55.56c.45.37.68,1.22.68,2.54a6.7,6.7,0,0,1-.12,1.62q-.37,2.22-1.43,6.14A45.82,45.82,0,0,1,154.94,72a26.37,26.37,0,0,1-4.4,6.64,8,8,0,0,1-6.08,2.86,9.22,9.22,0,0,1-5.84-1.93,14.86,14.86,0,0,1-4.15-5.33,31.38,31.38,0,0,1-2.55-8.07,54.33,54.33,0,0,1-.87-10Z" />
      <path class="cls-5" d="M204.65,64a17.31,17.31,0,0,1-1.24,4.09,23.1,23.1,0,0,1-2.55,4.53,15.65,15.65,0,0,1-3.6,3.66,7.46,7.46,0,0,1-4.53,1.49A8.83,8.83,0,0,1,186.22,75a13.47,13.47,0,0,1-3.42-8.07q-.74,2-1.73,4.59a24.51,24.51,0,0,1-2.48,4.84,17.14,17.14,0,0,1-3.42,3.79,7,7,0,0,1-4.53,1.55,3.82,3.82,0,0,1-1.11-.12c-.25-.08-.52-.19-.81-.31a5,5,0,0,0-1-.31,7,7,0,0,0-1.55-.13,7.08,7.08,0,0,1-5-1.92,14.12,14.12,0,0,1-3.29-4.9,28.23,28.23,0,0,1-1.8-6.52,43,43,0,0,1-.56-6.64,118.11,118.11,0,0,1,.81-14.15A54.25,54.25,0,0,1,159,34.81a22.38,22.38,0,0,1,4.84-8.19,9.68,9.68,0,0,1,7.2-3,13,13,0,0,1,3.78.43,17.73,17.73,0,0,1,2.42,1l2.42,1.18a14.05,14.05,0,0,0,3.66,1A8.82,8.82,0,0,1,187,30.72a13.45,13.45,0,0,1,1.37,4.4,28.23,28.23,0,0,1,.19,4.9,25.52,25.52,0,0,0,.24,5c0,.08.19.21.56.37s.81.35,1.3.56a4.06,4.06,0,0,1,1.31.87,1.94,1.94,0,0,1,.56,1.43v.49A22.28,22.28,0,0,0,191,54.48c-.17,1.66-.25,3.64-.25,6q0,1.74.18,3.78a26,26,0,0,0,.63,3.85,8.08,8.08,0,0,0,1.3,3,2.65,2.65,0,0,0,2.23,1.18,3.4,3.4,0,0,0,2.67-1.49,15.12,15.12,0,0,0,2-3.41,35.52,35.52,0,0,0,1.36-3.91,22.6,22.6,0,0,0,.68-3c.17-1,.58-1.49,1.25-1.49a1.55,1.55,0,0,1,1.17.68,3.87,3.87,0,0,1,.56,2.42V63A5.8,5.8,0,0,1,204.65,64Zm-23-20.11a25.81,25.81,0,0,0-.25-3.22,15.83,15.83,0,0,0-.87-3.48,7,7,0,0,0-1.86-2.73,4.86,4.86,0,0,0-3.35-1.12,6.59,6.59,0,0,0-5.65,3.17A25.67,25.67,0,0,0,166.3,44a43.91,43.91,0,0,0-1.61,8.8q-.37,4.55-.38,7.14c0,1.33.07,2.92.19,4.78a40.42,40.42,0,0,0,.68,5.28,15.15,15.15,0,0,0,1.43,4.21A2.76,2.76,0,0,0,169,76a6.29,6.29,0,0,0,5.52-2.79,20.6,20.6,0,0,0,2.92-7,63.32,63.32,0,0,0,1.43-8.94c.29-3.18.55-6.1.8-8.74.17-1.41.54-2.3,1.12-2.67s.87-.65.87-.81Z" />
      <path class="cls-6" d="M242.12,80.79A1.76,1.76,0,0,1,241,82.53a5.26,5.26,0,0,1-2.11.5l-2.48-.25c-.42,0-.62.25-.62.74L235.67,85q.14,3.36.13,8.44v9.81c0,3.3-.11,6.55-.31,9.74a39.78,39.78,0,0,1-1.43,8.56,15.68,15.68,0,0,1-3.17,6.08,7.16,7.16,0,0,1-5.64,2.3c-2.07,0-4.24-.11-6.52-.31a19.81,19.81,0,0,1-6.2-1.55,11.31,11.31,0,0,1-4.59-3.67,10.59,10.59,0,0,1-1.8-6.51,39.47,39.47,0,0,1,.93-8.38,45,45,0,0,1,2.69-8.31,49,49,0,0,1,4.18-7.7A41.65,41.65,0,0,1,219.25,87c1-1,2.1-2,3.31-3s2.27-1.89,3.18-2.55v-.12c.17-1.74.3-3.48.38-5.21s.12-3.52.12-5.34c-.42.74-.91,1.76-1.5,3a23.82,23.82,0,0,1-2.05,3.66,16.12,16.12,0,0,1-2.69,3,5,5,0,0,1-3.36,1.31,3.86,3.86,0,0,1-1.75-.38,4.83,4.83,0,0,0-2.12-.37,11.43,11.43,0,0,1-5.8-1.86,10.74,10.74,0,0,1-3.61-4.47A23,23,0,0,1,201.55,68a68.31,68.31,0,0,1-.5-8.75,108.94,108.94,0,0,1,.68-12,54.23,54.23,0,0,1,2.43-11.36,24.13,24.13,0,0,1,4.67-8.43,9.48,9.48,0,0,1,7.41-3.29,3.28,3.28,0,0,1,1.31.37l1.75.81,1.87.87a8.29,8.29,0,0,0,1.43.55,34.62,34.62,0,0,1,4.61,1.24,12.5,12.5,0,0,1,3.61,1.93,8.18,8.18,0,0,1,2.37,3.1,11.57,11.57,0,0,1,.87,4.78,18.94,18.94,0,0,1-.31,3.6,22,22,0,0,0-.31,4.09,1.41,1.41,0,0,0,.7,1.37,8,8,0,0,0,1.62.62,12.24,12.24,0,0,1,1.65.56,1.25,1.25,0,0,1,.75,1.3,3.63,3.63,0,0,1-.56,1.18c-.38.62-.61,1-.69,1.18a15.35,15.35,0,0,0-.62,3.16c-.16,1.45-.29,3-.37,4.72s-.14,3.43-.18,5.21-.07,3.37-.07,4.78v4.28c0,1.78,0,3.25.13,4.41h.49a2.15,2.15,0,0,0,.5-.07,1.71,1.71,0,0,1,.37-.06,9.84,9.84,0,0,1,3,.68C241.48,79.2,242.12,79.88,242.12,80.79ZM226.37,42.44a23.19,23.19,0,0,0-.25-3.1,14.76,14.76,0,0,0-.88-3.29,6.89,6.89,0,0,0-1.81-2.6,4.23,4.23,0,0,0-2.94-1.06,6.54,6.54,0,0,0-4.44,1.86,16,16,0,0,0-3.62,5.28,35.81,35.81,0,0,0-2.5,8.31A59.06,59.06,0,0,0,209,59c0,1.74.06,3.54.19,5.4a40.18,40.18,0,0,0,.62,5,11,11,0,0,0,1.36,3.72,2.78,2.78,0,0,0,2.42,1.49,6,6,0,0,0,4.6-2.24,18.57,18.57,0,0,0,3.28-5.52,38.32,38.32,0,0,0,2-6.83,44.14,44.14,0,0,0,.8-6.14,35.64,35.64,0,0,1,.4-4.9,5.23,5.23,0,0,1,.53-1.68,4.74,4.74,0,0,0,1-2.35A17.79,17.79,0,0,0,226.37,42.44Zm-.5,43.07a22.5,22.5,0,0,0-5.45,5.58A45.54,45.54,0,0,0,216,98.91a51,51,0,0,0-2.94,8.56,33.76,33.76,0,0,0-1.06,7.82,16.19,16.19,0,0,0,.25,2.73,12,12,0,0,0,.81,2.8,5.76,5.76,0,0,0,1.63,2.17,3.92,3.92,0,0,0,2.57.87,5.25,5.25,0,0,0,4.32-2.18,16.4,16.4,0,0,0,2.63-5.14,30.92,30.92,0,0,0,1.25-6.09c.21-2.07.31-3.72.31-5v-1.12c0-.49,0-1.45.07-2.85s.06-3.37.06-5.9Z" />
      <path class="cls-7" d="M279.23,60.07a34.39,34.39,0,0,1-.55,4.15,36.18,36.18,0,0,1-2,7,22.69,22.69,0,0,1-3.85,6.52,7.7,7.7,0,0,1-6.14,2.85,7.86,7.86,0,0,1-6.33-2.79,19.16,19.16,0,0,1-3.6-6.7,37.26,37.26,0,0,1-1.61-8.19c-.25-2.86-.37-5.23-.37-7.14a57.35,57.35,0,0,1,.37-6.51c.24-2.19.41-4.37.49-6.52a1.18,1.18,0,0,0-1-1.24,8,8,0,0,0-1.86-.25,2.9,2.9,0,0,0-1.86.38,1.75,1.75,0,0,0-.5.86l-.49,4q-.51,4-1.06,7.64c-.37,2.44-.79,4.59-1.24,6.45A18.18,18.18,0,0,1,246,65c-.62,1.12-1.34,1.67-2.17,1.67h-.12a1.8,1.8,0,0,1-.93-.25c-.29-.16-.44-.57-.44-1.24a7.27,7.27,0,0,1,.25-1.49,54.1,54.1,0,0,0,1.24-7.19c.17-1.91.29-3.6.37-5.09v-.87c0-.41,0-.91.07-1.49s.06-1.28.06-2.11V40.83a22.36,22.36,0,0,0-.25-3.23l-.37-7.32a1.87,1.87,0,0,1,.62-1.36A5.94,5.94,0,0,1,246,27.8a9.45,9.45,0,0,1,2.11-.75,9.65,9.65,0,0,1,2-.24c1.4,0,2.11.91,2.11,2.73v.62l-.13,2.73v.74c0,.58.13.93.38,1.06a7.41,7.41,0,0,0,1.48.43h.38c.66.09,1.73.17,3.23.25a40,40,0,0,1,4.46.5A14.75,14.75,0,0,1,265.89,37a2.52,2.52,0,0,1,1.68,2.3,6.37,6.37,0,0,1-.25,1.43,16.9,16.9,0,0,1-.62,1.86c-.25.62-.46,1.18-.62,1.67a3.9,3.9,0,0,0-.25,1,70.45,70.45,0,0,0-2.23,17.87c0,.49,0,1.41.12,2.73a38.37,38.37,0,0,0,.49,4.1,15.65,15.65,0,0,0,1.12,3.72c.5,1.07,1.12,1.61,1.86,1.61,1.25,0,2.36-.76,3.36-2.29a26.8,26.8,0,0,0,2.6-5.34,45.81,45.81,0,0,0,1.8-6.15c.46-2.06.76-3.59.93-4.59s.44-1.46.81-1.67a2.13,2.13,0,0,1,1.05-.31c1.16,0,1.74.74,1.74,2.23,0,.17,0,.6-.06,1.31A10.55,10.55,0,0,1,279.23,60.07Z" />
      <path class="cls-8" d="M324.78,64a17.31,17.31,0,0,1-1.24,4.09A23.1,23.1,0,0,1,321,72.66a15.65,15.65,0,0,1-3.6,3.66,7.46,7.46,0,0,1-4.53,1.49A8.83,8.83,0,0,1,306.35,75a13.41,13.41,0,0,1-3.41-8.07q-.75,2-1.74,4.59a24,24,0,0,1-2.48,4.84,17.14,17.14,0,0,1-3.42,3.79,7,7,0,0,1-4.52,1.55,3.86,3.86,0,0,1-1.12-.12c-.25-.08-.52-.19-.81-.31a5,5,0,0,0-1-.31,7,7,0,0,0-1.55-.13,7.07,7.07,0,0,1-5-1.92A14,14,0,0,1,278,74a28.23,28.23,0,0,1-1.8-6.52,43,43,0,0,1-.56-6.64,118.11,118.11,0,0,1,.81-14.15,54.25,54.25,0,0,1,2.67-11.85A22.38,22.38,0,0,1,284,26.62a9.68,9.68,0,0,1,7.2-3,13,13,0,0,1,3.78.43,17.22,17.22,0,0,1,2.42,1l2.42,1.18a14.05,14.05,0,0,0,3.66,1,8.82,8.82,0,0,1,3.66,3.54,13.45,13.45,0,0,1,1.37,4.4,28.23,28.23,0,0,1,.19,4.9,25.52,25.52,0,0,0,.24,5c0,.08.19.21.56.37s.81.35,1.3.56a4.06,4.06,0,0,1,1.31.87,1.94,1.94,0,0,1,.56,1.43v.49a22.28,22.28,0,0,0-1.49,5.71c-.17,1.66-.25,3.64-.25,6q0,1.74.18,3.78a26,26,0,0,0,.63,3.85,8.08,8.08,0,0,0,1.3,3,2.65,2.65,0,0,0,2.23,1.18,3.4,3.4,0,0,0,2.67-1.49,14.41,14.41,0,0,0,2-3.41,35.52,35.52,0,0,0,1.36-3.91,21.06,21.06,0,0,0,.68-3c.17-1,.58-1.49,1.25-1.49a1.55,1.55,0,0,1,1.17.68,3.87,3.87,0,0,1,.56,2.42V63A5.8,5.8,0,0,1,324.78,64Zm-23-20.11a25.81,25.81,0,0,0-.25-3.22,15.29,15.29,0,0,0-.87-3.48,7,7,0,0,0-1.86-2.73,4.86,4.86,0,0,0-3.35-1.12,6.59,6.59,0,0,0-5.65,3.17A25.67,25.67,0,0,0,286.43,44a43.91,43.91,0,0,0-1.61,8.8q-.37,4.55-.37,7.14c0,1.33.06,2.92.18,4.78a40.42,40.42,0,0,0,.68,5.28,15.15,15.15,0,0,0,1.43,4.21A2.76,2.76,0,0,0,289.16,76a6.29,6.29,0,0,0,5.52-2.79,20.6,20.6,0,0,0,2.92-7A63.32,63.32,0,0,0,299,57.27c.29-3.18.55-6.1.8-8.74.17-1.41.54-2.3,1.12-2.67s.87-.65.87-.81Z" />
      <path class="cls-9" d="M362.75,47q-1.74,3.35-3.22,7.07c-1,2.48-1.74,4.43-2.24,5.83-.08.42-.31,1.28-.68,2.61s-.79,2.79-1.24,4.41-.85,3.2-1.18,4.77a19.66,19.66,0,0,0-.5,3.85c0,.41-.37.79-1.11,1.12a7.13,7.13,0,0,1-2.86.49,10.59,10.59,0,0,1-4.34-.74A5,5,0,0,1,343,74a12.08,12.08,0,0,1-1-4.41q-.2-2.73-.19-6.58v-9.3c0-.67,0-1.33-.06-2s-.19-1.07-.44-1.24c-.41.17-.93,1.24-1.55,3.23A65.26,65.26,0,0,0,338,61q-.81,4.28-1.42,9a64.12,64.12,0,0,0-.62,8.43,1.52,1.52,0,0,1-1.43,1.62,19.14,19.14,0,0,1-3.17.25,13.21,13.21,0,0,1-1.67-.19c-.79-.12-1.57-.27-2.36-.44a10.6,10.6,0,0,1-2.17-.68,2.16,2.16,0,0,1-1.24-1A20.79,20.79,0,0,1,323,72.6q-.32-3.72-.31-11.54,0-4.59.18-10.67t.44-14.27c0-.75-.05-1.72-.13-2.92s-.12-1.88-.12-2.05a1,1,0,0,1,.81-1.18,6,6,0,0,1,1.18-.18,13.76,13.76,0,0,1,2,.18c.79.12,1.57.27,2.36.43s1.51.36,2.17.56a6.46,6.46,0,0,1,1.37.56V61.43c.41-1.65.89-3.58,1.42-5.77s1.16-4.36,1.87-6.52a57.34,57.34,0,0,1,2.29-6,12.14,12.14,0,0,1,2.61-4,4.2,4.2,0,0,1,1.86-.56,18,18,0,0,1,2.24-.19,9.61,9.61,0,0,1,3.35.75,6.86,6.86,0,0,1,1.55.93,2.12,2.12,0,0,1,.8,1.3V62.67c0,.5.08.75.25.75s.64-1.12,1.42-3.35l2.77-7.94q1.61-4.6,3.46-9.44A75.93,75.93,0,0,1,362.19,35c.16-.33.72-.52,1.67-.56s1.78-.06,2.52-.06a7.16,7.16,0,0,1,2.35.55,13.45,13.45,0,0,1,2.9,1.56,13,13,0,0,1,2.48,2.23,4,4,0,0,1,1.05,2.61,4.76,4.76,0,0,1-.74,1.42,7,7,0,0,0-1,2.42A44.65,44.65,0,0,0,372.25,52c-.21,2.23-.31,5.09-.31,8.56q0,2.23.18,4.47a27.17,27.17,0,0,0,.62,4A9.24,9.24,0,0,0,373.92,72a2.28,2.28,0,0,0,2,1.12,4.61,4.61,0,0,0,3.1-1.18,10,10,0,0,0,2.36-3.17,26.39,26.39,0,0,0,1.74-4.65c.49-1.78.91-3.62,1.24-5.52s1.16-3,2.23-3a1.42,1.42,0,0,1,1.3.5,5,5,0,0,1,.31,2.23,5.08,5.08,0,0,1-.12,1.36,29.82,29.82,0,0,1-1.05,5,38.62,38.62,0,0,1-2.61,6.82,22.7,22.7,0,0,1-4.16,6,7.75,7.75,0,0,1-5.71,2.55,10.34,10.34,0,0,1-6.28-1.8,11.81,11.81,0,0,1-3.8-4.84,26.24,26.24,0,0,1-1.9-7,59.88,59.88,0,0,1-.55-8.31v-.87Z" />
    </g>
  </g>
</svg>