<svg xmlns="http://www.w3.org/2000/svg" viewBox="0 0 49 18.01"><defs><style>.cls-1{fill:#ff8c00;}</style></defs><title>qiwi</title><g id="Слой_2" data-name="Слой 2"><g id="Слой_1-2" data-name="Слой 1"><path class="cls-1" d="M32.57,3.8v8.41a.26.26,0,0,1-.07.17.23.23,0,0,1-.16.06H30.63a.23.23,0,0,1-.16-.06.26.26,0,0,1-.07-.17V3.8a.24.24,0,0,1,.23-.23h1.71a.24.24,0,0,1,.23.23ZM45.9,3.57H44a.21.21,0,0,0-.13.05.2.2,0,0,0-.08.12l-1.52,5-1.66-5a.21.21,0,0,0-.08-.11.22.22,0,0,0-.13,0H39.05a.2.2,0,0,0-.13,0,.31.31,0,0,0-.09.11l-1.65,5-1.54-5a.2.2,0,0,0-.08-.12.21.21,0,0,0-.13-.05H33.51a.17.17,0,0,0-.1,0s-.06,0-.09.07a.36.36,0,0,0,0,.09.37.37,0,0,0,0,.11l2.82,8.42a.24.24,0,0,0,.08.11.24.24,0,0,0,.14,0h1.52a.24.24,0,0,0,.13,0,.15.15,0,0,0,.08-.11l1.65-4.92,1.65,4.92a.15.15,0,0,0,.08.11.24.24,0,0,0,.13,0h1.52a.24.24,0,0,0,.14,0,.24.24,0,0,0,.08-.11l2.82-8.42a.37.37,0,0,0,0-.11.36.36,0,0,0,0-.09A.32.32,0,0,0,46,3.59Zm2.88,0H47.07a.24.24,0,0,0-.16.07.2.2,0,0,0-.07.16v8.42a.2.2,0,0,0,.07.16.23.23,0,0,0,.16.06h1.71a.25.25,0,0,0,.16-.06.23.23,0,0,0,.06-.16V3.8a.23.23,0,0,0-.06-.16A.26.26,0,0,0,48.78,3.57ZM29.41,12.15a.18.18,0,0,1,0,.09.16.16,0,0,1,0,.1.18.18,0,0,1-.07.08.1.1,0,0,1-.09,0H27.19a.25.25,0,0,1-.12,0,.39.39,0,0,1-.1-.08l-.35-.43a4.61,4.61,0,0,1-5.36-.23,4.68,4.68,0,0,1,.61-7.78,4.56,4.56,0,0,1,3-.51,4.64,4.64,0,0,1,2.66,1.42A4.69,4.69,0,0,1,28,10.52Zm-4.15-1.87-.92-1.11a.36.36,0,0,1,0-.09.16.16,0,0,1,0-.1.16.16,0,0,1,.06-.08l.1,0H26.4A2.88,2.88,0,0,0,26.54,8a2.44,2.44,0,1,0-4.88,0,2.49,2.49,0,0,0,2.44,2.57A2.36,2.36,0,0,0,25.26,10.28Zm-11,1.83c0,.35-.06.5-.17.5s-.27-.14-.45-.42a.85.85,0,0,1-.15-.76.26.26,0,0,1,.14-.11.25.25,0,0,1,.19,0C14.07,11.45,14.19,11.9,14.22,12.11Zm-1.64.77c.36.3.47.66.28.91a.54.54,0,0,1-.21.16.52.52,0,0,1-.27.05.89.89,0,0,1-.54-.19.77.77,0,0,1-.21-1,.52.52,0,0,1,.17-.13.52.52,0,0,1,.21,0A.87.87,0,0,1,12.58,12.88ZM12,15.78A7.36,7.36,0,0,1,17,18c.18.16.43,0,.26-.24a7.7,7.7,0,0,0-5.12-3.09,5.55,5.55,0,0,1-3.82-2.86c-.14-.26-.21-.21-.22.11a6.84,6.84,0,0,0,.1,1.43H8A5.23,5.23,0,0,1,5,12.41a5.31,5.31,0,0,1-.8-8.14A5.24,5.24,0,0,1,10,3.12,5.31,5.31,0,0,1,13.23,8a4.4,4.4,0,0,1,0,.62,7.17,7.17,0,0,0-1.67,0c-.2,0-.17.11,0,.14a3.69,3.69,0,0,1,3.21,3.37,0,0,0,0,0,0,0h.06l0,0a8,8,0,0,0-1.14-9.71A7.94,7.94,0,0,0,4,1a8,8,0,0,0-.93,13.31A7.92,7.92,0,0,0,8,16C9.14,16,10.29,15.78,12,15.78Z"/></g></g></svg>