<svg xmlns="http://www.w3.org/2000/svg" viewBox="0 0 74 18.12"><defs><style>.cls-1{fill:#2394bc;}.cls-2{fill:#efc75e;}.cls-3{fill:#e2574c;}.cls-4{fill:#f4b459;}</style></defs><title>visa-mc</title><g id="Слой_2" data-name="Слой 2"><g id="Слой_1-2" data-name="Слой 1"><path class="cls-1" d="M15.53,3.27l-1.9,11.56h3L18.58,3.27ZM24.73,8C23.66,7.47,23,7.12,23,6.6s.55-1,1.76-1A5.61,5.61,0,0,1,27,6.06l.27.12.42-2.42A8.07,8.07,0,0,0,25,3.29c-3,0-5.13,1.52-5.14,3.7,0,1.61,1.52,2.5,2.67,3s1.58.9,1.58,1.39c0,.75-1,1.1-1.83,1.1a6.29,6.29,0,0,1-2.86-.6l-.4-.18-.43,2.51a9.65,9.65,0,0,0,3.4.6c3.2,0,5.28-1.5,5.31-3.82C27.3,9.75,26.49,8.78,24.73,8ZM35.54,3.31H33.18a1.51,1.51,0,0,0-1.59.93L27.06,14.83h3.2l.88-2.29h3.58l.46,2.3H38ZM32,10.22c.06,0,1.23-3.74,1.23-3.74l.93,3.74Zm-21-7-3,7.85L7.77,9.57A8.79,8.79,0,0,0,3.55,4.88l2.74,9.94H9.51L14.3,3.27Z"/><path class="cls-2" d="M6.76,4.76a2,2,0,0,0-2-1.49H.05l0,.22c3.69.88,6.79,3.61,7.79,6.17Z"/><path class="cls-3" d="M63.12,9.06A9.06,9.06,0,1,1,54.06,0,9.06,9.06,0,0,1,63.12,9.06Z"/><path class="cls-4" d="M64.94,0a9,9,0,0,0-5.41,1.81h0a7.62,7.62,0,0,1,.88.82l-1.88,0a8.31,8.31,0,0,0-.82,1H61a7.73,7.73,0,0,1,.7.9H57.11a9.59,9.59,0,0,0-.47.9h5.62a8.7,8.7,0,0,1,.39.88H56.31a7.51,7.51,0,0,0-.25,1h6.85c.07.31.12.6.16.9H55.92a8.9,8.9,0,0,0,0,.9h7.24a6.62,6.62,0,0,1-.06.91H55.92a8.46,8.46,0,0,0,.14.9H62.9c-.07.3-.15.59-.25.9H56.29a8.79,8.79,0,0,0,.34.9h5.63a10.28,10.28,0,0,1-.53.91H57.09a8.93,8.93,0,0,0,.6.91l3.34,0a8.84,8.84,0,0,1-1,.84s-.53,0-1.61,0A9.06,9.06,0,1,0,64.94,0Z"/></g></g></svg>