<svg xmlns="http://www.w3.org/2000/svg" viewBox="0 0 73.75 17.17"><defs><style>.cls-1{fill:#036cb5;}.cls-2{fill:#b6b6b6;}</style></defs><title>Ресурс 1</title><g id="Слой_2" data-name="Слой 2"><g id="Слой_1-2" data-name="Слой 1"><path class="cls-1" d="M65.12,0a8.82,8.82,0,0,1,3.76.83c.18.08.36.18.54.27l-.78.68L67.47.6l-2,1.72L64.25,1.08,60.52,4.3,62.9,6.82,62,7.6l2.36,2.53-.93.78,3.36,3.59,2-1.75,1.74,1.88a9,9,0,0,1-1.13.72,8.85,8.85,0,0,1-4.22,1.07,8.4,8.4,0,0,1-8.56-8.21A8.39,8.39,0,0,1,65.12,0ZM63.55,7.7l2-1.76,1.83,2-2,1.76ZM65,11.08l2-1.77,1.84,2-2,1.76Zm-2.9-6.72,2-1.76,1.83,2L63.93,6.32Zm3.74-.94L67.37,2.1l1.37,1.46L67.22,4.89Zm2.71,6,1.52-1.32,1.37,1.47-1.52,1.32Zm1.34,3,1.52-1.32,1.37,1.46-1.52,1.33Zm.62-6.77,1-.88.92,1-1,.88Zm-1.31-2.9,1-.89.92,1-1,.88Zm2.6,5.8,1-.88.93,1-1,.88ZM67.25,6.37l1.52-1.31,1.37,1.45L68.62,7.83Z"/><path class="cls-1" d="M4.48,5.66H4.4L3,11H1.77L0,3.41H1.23L2.45,9.07h.08L4,3.41h1L6.45,9.07h.08L7.65,3.41H8.93L7.15,11H6Z"/><path class="cls-1" d="M10.49,7.76H13c-.05-1.12-.61-1.57-1.2-1.57s-1.18.5-1.3,1.57Zm3.38,2v.81a4,4,0,0,1-1.94.5c-1.84,0-2.6-1.12-2.6-2.8s.85-2.8,2.49-2.8c1.37,0,2.21.86,2.21,2.6v.4H10.46c0,1.28.54,1.85,1.67,1.85a3.43,3.43,0,0,0,1.74-.56"/><path class="cls-1" d="M16.58,10.22a2.68,2.68,0,0,0,1,.17c.81,0,1.42-.49,1.42-2.22,0-1.36-.5-1.8-1.23-1.8a2.32,2.32,0,0,0-1.2.36Zm0-4.28a3.39,3.39,0,0,1,1.48-.4c1.36,0,2.09.92,2.09,2.63,0,2-1,3-2.57,3a5.31,5.31,0,0,1-2.14-.52V3.16l1.14-.27Z"/><path class="cls-1" d="M25.1,9.38h0l2.34-6h1.36V11H27.67V5.49h-.1L25.34,11h-.7L22.4,5.62h-.1V11h-1V3.41h1.32Z"/><path class="cls-1" d="M33.69,8.28c0-1.44-.6-2-1.35-2S31,6.84,31,8.28s.57,2.05,1.35,2.05S33.69,9.75,33.69,8.28Zm-3.85,0c0-1.87,1.06-2.8,2.5-2.8s2.5.93,2.5,2.8-1,2.8-2.5,2.8S29.84,10.1,29.84,8.28Z"/><path class="cls-1" d="M35.71,6.27a5.66,5.66,0,0,1,2.79-.79c1.31,0,1.81.5,1.81,1.6V11H39.17V7.33c0-.85-.43-1-1-1a3,3,0,0,0-1.33.39V11H35.71Z"/><path class="cls-1" d="M42.71,7.76h2.51c0-1.12-.61-1.57-1.2-1.57s-1.18.5-1.3,1.57Zm3.39,2v.81a4,4,0,0,1-1.94.5c-1.84,0-2.59-1.12-2.59-2.8s.84-2.8,2.49-2.8c1.37,0,2.21.86,2.21,2.6v.4H42.7c0,1.28.54,1.85,1.66,1.85a3.46,3.46,0,0,0,1.75-.56"/><path class="cls-1" d="M50.82,5.48H52l-2,5.34c-.55,1.47-1.21,2.24-2.47,2.24v-.87c.74,0,1.2-.58,1.47-1.37L46.89,5.48h1.2L49.5,9.41h.06Z"/><path class="cls-2" d="M11.83,15.92v-.47a2.64,2.64,0,0,0,1.16.31,1.22,1.22,0,0,0,.7-.17.48.48,0,0,0,.25-.44.52.52,0,0,0,0-.24.43.43,0,0,0-.15-.18,3.6,3.6,0,0,0-.75-.34l-.25-.09-.21-.09-.21-.09a.64.64,0,0,0-.16-.1A.48.48,0,0,1,12,13.9a.81.81,0,0,1-.11-.13.31.31,0,0,1-.1-.15,1.16,1.16,0,0,1,0-.18.83.83,0,0,1,0-.22,1,1,0,0,1,.09-.41.9.9,0,0,1,.26-.32,1.44,1.44,0,0,1,.95-.28,3,3,0,0,1,1.07.19v.49a2.41,2.41,0,0,0-1-.25.83.83,0,0,0-.54.15.49.49,0,0,0-.14.18.54.54,0,0,0,0,.22.43.43,0,0,0,0,.22.49.49,0,0,0,.14.18,2.5,2.5,0,0,0,.64.3,4.2,4.2,0,0,1,1.1.52.8.8,0,0,1,.3.68,1,1,0,0,1-.11.44.92.92,0,0,1-.31.34,1.8,1.8,0,0,1-1.12.31A2.86,2.86,0,0,1,11.83,15.92Zm5.54.17h-.51l0-.31a1.52,1.52,0,0,1-.94.38.85.85,0,0,1-.61-.21.78.78,0,0,1-.16-.24.66.66,0,0,1,0-.28.87.87,0,0,1,.06-.32,1,1,0,0,1,.21-.3,1,1,0,0,1,.43-.23,2.11,2.11,0,0,1,.7-.09h.34v-.15a.69.69,0,0,0-.13-.49.72.72,0,0,0-.46-.13,2.11,2.11,0,0,0-1,.32v-.43a2.69,2.69,0,0,1,1.15-.26,1,1,0,0,1,.76.22.92.92,0,0,1,.21.66v1.86Zm-.56-1.23h-.29c-.6,0-.9.18-.9.52a.33.33,0,0,0,0,.15.27.27,0,0,0,.09.12.47.47,0,0,0,.3.08,1,1,0,0,0,.42-.09,1.1,1.1,0,0,0,.35-.26Zm1.45,2.31V13.74a2,2,0,0,1,.56-.29,2.32,2.32,0,0,1,.64-.11q1.14,0,1.14,1.35a1.66,1.66,0,0,1-.3,1.07,1,1,0,0,1-.84.37,1,1,0,0,1-.64-.19v1.23Zm.56-3.25v1.62a.65.65,0,0,0,.27.15.71.71,0,0,0,.29.05.52.52,0,0,0,.27-.05.55.55,0,0,0,.2-.17,1.42,1.42,0,0,0,.17-.84,1.14,1.14,0,0,0-.17-.71.45.45,0,0,0-.2-.16.58.58,0,0,0-.26-.06A1,1,0,0,0,18.82,13.92Zm3.07-.55v2.72h-.56V13.5Zm-.65-.79a.39.39,0,0,1,0-.14.44.44,0,0,1,.08-.11.42.42,0,0,1,.12-.08.34.34,0,0,1,.28,0,.42.42,0,0,1,.12.08.44.44,0,0,1,.08.11.39.39,0,0,1,0,.14.32.32,0,0,1,0,.14.36.36,0,0,1-.08.12l-.12.08a.34.34,0,0,1-.28,0l-.12-.08a.36.36,0,0,1-.08-.12A.32.32,0,0,1,21.24,12.58ZM24,15.78a1.73,1.73,0,0,0,.87-.28v.41a2,2,0,0,1-1,.25,1.23,1.23,0,0,1-1-.37,1.61,1.61,0,0,1-.32-1,1.58,1.58,0,0,1,.32-1,1.13,1.13,0,0,1,.92-.39,1,1,0,0,1,.81.34,1.44,1.44,0,0,1,.29,1v.2H23.19a1,1,0,0,0,.2.7A.79.79,0,0,0,24,15.78Zm-.17-2.08a.53.53,0,0,0-.24.06.52.52,0,0,0-.19.14,1.11,1.11,0,0,0-.21.59h1.24a1,1,0,0,0-.19-.59.49.49,0,0,0-.18-.14.46.46,0,0,0-.23-.06Zm1.84,2.39V13.74a2.81,2.81,0,0,1,1.39-.4,1,1,0,0,1,.69.2.79.79,0,0,1,.21.61v1.94H27.4V14.27a.46.46,0,0,0-.13-.39.57.57,0,0,0-.36-.11,1.35,1.35,0,0,0-.66.2v2.12Zm3.71-2.62h.86l-.14.37h-.72v1.41c0,.36.15.54.46.54a1.16,1.16,0,0,0,.37-.07v.34a1.81,1.81,0,0,1-.61.1.75.75,0,0,1-.6-.23.88.88,0,0,1-.19-.6V13.12l.56-.4Zm2-.1v2.72h-.57V13.51Zm-.66-.79a.39.39,0,0,1,0-.14.44.44,0,0,1,.08-.11.42.42,0,0,1,.12-.08.35.35,0,0,1,.14,0,.32.32,0,0,1,.14,0,.25.25,0,0,1,.12.08.44.44,0,0,1,.08.11.39.39,0,0,1,0,.14.32.32,0,0,1,0,.14.37.37,0,0,1-.2.2.32.32,0,0,1-.14,0,.35.35,0,0,1-.14,0l-.12-.08a.5.5,0,0,1-.08-.12.32.32,0,0,1,0-.14Zm4.51,1V14a1.52,1.52,0,0,0-.83-.27.72.72,0,0,0-.35.08.35.35,0,0,0-.1.11.21.21,0,0,0,0,.15.26.26,0,0,0,0,.15.25.25,0,0,0,.11.12,2.22,2.22,0,0,0,.47.2l.27.09.23.11a.48.48,0,0,1,.22.15.62.62,0,0,1,.2.47.64.64,0,0,1-.08.33.78.78,0,0,1-.22.26,1.43,1.43,0,0,1-.81.22,1.77,1.77,0,0,1-.95-.24V15.5a1.73,1.73,0,0,0,.88.28c.4,0,.6-.13.6-.38a.23.23,0,0,0,0-.14.28.28,0,0,0-.08-.11l-.15-.09L34.42,15l-.22-.08-.36-.14a1.28,1.28,0,0,1-.25-.15.62.62,0,0,1-.25-.53.67.67,0,0,1,.1-.39.66.66,0,0,1,.29-.23,1.68,1.68,0,0,1,.32-.09,1.33,1.33,0,0,1,.28,0,1.9,1.9,0,0,1,.88.21Zm3,2.53H37.7l0-.31a1.42,1.42,0,0,1-.93.37.83.83,0,0,1-.61-.2.81.81,0,0,1-.17-.24.92.92,0,0,1-.05-.28.71.71,0,0,1,.07-.32.75.75,0,0,1,.2-.3,1.1,1.1,0,0,1,.44-.23,2,2,0,0,1,.7-.09h.34v-.15a.68.68,0,0,0-.14-.49.62.62,0,0,0-.45-.13,2.11,2.11,0,0,0-1,.32v-.43a2.9,2.9,0,0,1,1.16-.27,1.08,1.08,0,0,1,.76.22.94.94,0,0,1,.21.67v1.86Zm-.56-1.23h-.29c-.6,0-.89.18-.89.52a.26.26,0,0,0,0,.15.29.29,0,0,0,.1.12.46.46,0,0,0,.3.08,1.07,1.07,0,0,0,.76-.35v-.52Zm2-1.39h.86l-.14.37h-.72v1.41c0,.36.15.54.46.54a1.16,1.16,0,0,0,.37-.07v.34a1.81,1.81,0,0,1-.61.1.75.75,0,0,1-.6-.23.88.88,0,0,1-.19-.6V13.12l.56-.4Z"/></g></g></svg>