<svg width="58" height="11" viewBox="0 0 58 11" fill="none" xmlns="http://www.w3.org/2000/svg">
<path d="M2.7935 5.8168L1.17482 9.4303H0L1.77327 5.566C0.939633 5.1436 0.383141 4.3791 0.383141 2.97C0.383141 0.99 1.64077 0 3.1369 0H4.65952V9.4303H3.64039V5.8168H2.7935ZM3.64039 0.8569H3.09715C2.27897 0.8569 1.48288 1.3981 1.48288 2.97C1.48288 4.4869 2.21051 4.9742 3.09715 4.9742H3.64039V0.8569Z" fill="#FF0000"/>
<path d="M9.57287 2.78282V9.43012H8.55374V6.44912H7.01786V9.43012H5.98438V2.78282H7.01786V5.60982H8.55374V2.78282H9.57287ZM14.8816 10.7358H13.9552V9.43012H11.0955V10.7358H10.1691V8.58642H10.5788C11.1882 7.17512 11.2545 5.11702 11.2545 3.35042V2.78282H14.3527V8.58642H14.8816V10.7358ZM13.3358 3.61332H12.1809V3.73212C12.1809 5.13022 12.1146 7.17512 11.5581 8.58642H13.3325L13.3358 3.61332ZM17.7314 9.52252C16.3546 9.52252 15.5077 8.42802 15.5077 6.38422C15.5077 4.24692 16.1028 2.69042 17.5195 2.69042C18.6313 2.69042 19.3601 3.52092 19.3601 5.77702V6.34352H16.5765C16.5765 7.84722 16.9994 8.63922 17.8209 8.63922C18.2935 8.62665 18.751 8.47001 19.1315 8.19042L19.37 8.98132C18.8996 9.34102 18.321 9.53174 17.7281 9.52252H17.7314ZM16.5898 5.49982H18.2979C18.2979 4.36572 18.1124 3.53412 17.5161 3.53412C16.8813 3.53412 16.656 4.31292 16.5898 5.49982ZM21.448 6.11912V9.43012H20.4156V2.78282H21.448V5.85622L23.0501 2.78282H24.0958L22.4396 5.90902L24.3321 9.42902H23.2091L21.448 6.11912ZM24.4723 6.10702C24.4723 4.02252 25.2805 2.69042 26.8418 2.69042C27.2784 2.6742 27.7092 2.79418 28.074 3.03362L27.9283 4.00932C27.65 3.77172 27.2526 3.54732 26.8241 3.54732C26.0833 3.54732 25.5533 4.37892 25.5533 6.05422C25.5533 7.72952 25.9508 8.66562 26.7844 8.66562C27.1974 8.67117 27.5982 8.52557 27.9106 8.25642L28.148 9.02642C27.7651 9.36285 27.2683 9.54211 26.7579 9.52802C25.3269 9.52252 24.4723 8.37522 24.4723 6.10702Z" fill="black"/>
<path d="M35.1693 9.4303H31.1182L31.0254 11H30.5098V8.8902H30.788C31.2507 8.5074 31.4759 7.4525 31.6084 6.1072C31.7409 4.7091 31.7806 2.6246 31.8204 0H35.1328V8.8902H35.7821V11H35.2653L35.1726 9.4303H35.1693ZM34.4715 0.5412H32.4222C32.3813 2.9282 32.3117 4.7487 32.2091 6.1072C32.0909 7.5174 31.8778 8.4546 31.5212 8.8902H34.4737L34.4715 0.5412Z" fill="black"/>
<path d="M38.5204 9.01988C38.7856 9.01432 39.0458 8.94707 39.2803 8.8235C39.5147 8.69993 39.717 8.52346 39.8708 8.30818L40.0695 8.80868C39.8863 9.04703 39.6495 9.23925 39.3781 9.36991C39.1068 9.50058 38.8085 9.56605 38.5071 9.56108C37.0905 9.56108 36.4424 8.28178 36.4424 6.10598C36.4424 3.93018 37.2628 2.65088 38.3846 2.65088C39.5362 2.65088 40.2782 3.85098 40.0662 6.21268H37.0508C37.0773 8.02988 37.5543 9.01988 38.5204 9.01988ZM37.0596 5.71988H39.4887C39.5936 3.95218 39.0647 3.16128 38.3846 3.16128C37.6868 3.16568 37.117 4.06218 37.0596 5.71988Z" fill="black"/>
<path d="M44.1485 6.2251H41.8718V9.4305H41.249V2.7832H41.8718V5.7246H44.1485V2.7832H44.7713V9.4305H44.1485V6.2251Z" fill="black"/>
<path d="M46.2412 2.7832H46.864V5.2494H47.3542C48.6251 5.2494 49.4455 5.9358 49.4455 7.3207C49.4455 8.732 48.5721 9.4305 47.3133 9.4305H46.2412V2.7832ZM46.864 5.7378V8.9421H47.2614C48.2011 8.9421 48.836 8.4812 48.836 7.3339C48.836 6.213 48.2839 5.7378 47.3266 5.7378H46.864Z" fill="black"/>
<path d="M51.128 3.298V9.4305H50.5186V2.7832H53.3386V3.298H51.128Z" fill="black"/>
<path d="M57.4036 4.8006C57.4056 4.49666 57.4233 4.19303 57.4566 3.8909H57.4169C57.3204 4.18582 57.2008 4.4727 57.0592 4.7489L54.8884 9.4305H54.3584V2.7832H54.9469V7.4032C54.9469 7.7596 54.9193 8.05 54.8939 8.3404H54.9337C55.033 8.03957 55.1521 7.74559 55.2903 7.4604L57.4566 2.7832H57.9988V9.4305H57.4036V4.8006Z" fill="black"/>
</svg>
