<svg xmlns="http://www.w3.org/2000/svg">
	<symbol id="logo" viewBox="0 0 120 65.2">
		<path d="M98 44.8v-8.4c.4-.1.8-.3 1.1-.5v-.9h-3.7v1.3c.4.1.8 0 1.1-.2v3.5h-5.4v-3.2c.4-.1.8-.3 1.1-.5v-.9h-3.7v1.3c.4.1.8 0 1.1-.2v8.4c-.4.1-.8.3-1.1.5v.9h3.9v-1.3c-.4-.1-.9 0-1.3.2v-4h5.4v3.7c-.4.1-.8.3-1.1.5v.9h3.9v-1.3c-.5-.1-.9 0-1.3.2zM74.8 44.6v-8.3c.4-.1.7-.3 1.1-.5v-.8h-3.5v1.3c.3.1.7 0 1-.1v8.5h-2.9c-1.2 0-2.1-.3-2.5-1.6-.2-.6-.2-1.3-.2-2v-4.7c.4-.1.8-.3 1.1-.5v-.9h-3.7v1.2c.4.1.8 0 1.1-.2v5.3c0 1.8.4 3.6 2.2 4.2.6.2 1.2.3 1.9.2h4.8c0 .5.1 1.1.4 1.6h1v-2.8l-1.8.1zM85 44.7h-3.8v-3.9h3.8v-1.2h-3.7v-3.4h3.5c0 .5.1 1.1.4 1.6h1v-2.8h-7.5v.9c.4.2.7.4 1.2.5v8.2c-.4.1-.8.3-1.2.5v.9h7.7v-3h-1c-.2.5-.4 1.1-.4 1.7zM101 37.8h1c.2-.5.4-1 .4-1.6h2.2v8.3c-.4.1-.8.3-1.1.5v.9h3.9v-1.3c-.4-.1-.9 0-1.3.2v-8.5h2.2c0 .5.2 1.1.4 1.6h1v-2.9h-8.7v2.8zM115.8 35h-3.8v.9c.3.2.7.4 1.1.5v8.2c-.4.1-.8.3-1.1.5v.9h4.1v-1.3c-.5-.1-1 0-1.5.2v-3.3c.7 0 1.4 0 2-.1 1.7-.2 3-1.6 3-3.3 0-2.5-1.6-3.2-3.8-3.2zm2.1 4.1c-.5 1.4-2.1 1.2-3.4 1.2v-4.1h.2c1 0 2.4-.1 3 .7.4.7.5 1.5.2 2.2zM108.8 13.3h10.8v4h-1.5c-.3-.7-.5-1.5-.5-2.3h-5.1v5.4h4.9v1.7h-4.9v5.7h5.5c0-.8.2-1.7.6-2.4h1.4v4.1h-11.3v-1.2c.5-.3 1.1-.6 1.7-.7v-12.4c-.6-.1-1.2-.4-1.7-.7v-1.2h.1zm-17.1 0h5.2v1.2c-.5.3-1.1.6-1.7.7v5.3h2.6l3.6-5.6c-.4.1-1.3.4-1.7.2v-1.9h5.4v1.2c-.5.3-1.1.6-1.7.7l-4 6 4.1 6.5h1.7v1.4c-.5.4-1.1.6-1.7.5-1.2 0-1.8-.6-2.4-1.6l-3.6-5.8h-2.4v5.7c.5-.2 1.4-.5 1.9-.3v1.9h-5.6v-1.2c.5-.3 1.1-.5 1.7-.7v-12.6c-.4.2-1.2.5-1.7.2v-1.9l.3.1zm-7.4 2v12.7c.6-.3 1.2-.4 1.9-.3v1.9h-5.6v-1.2c.5-.3 1.1-.5 1.7-.7v-12.7c-.4.2-1.2.5-1.7.2v-1.9h5.4v1.2c-.6.4-1.1.6-1.7.8m-17.4 12.3v-12.7c-.5.2-1.2.5-1.7.2v-1.9h5.4v1.2c-.5.3-1.1.6-1.7.7v12.6h4.8c0-.9.2-1.8.6-2.6h1.5v4.4h-10.6v-1.2c.6-.4 1.1-.6 1.7-.7"/>
		<path d="M54.1 3.8c-17.6-5.1-36.2-5.1-53.8 0-.2 0-.3.2-.3.4v35.2c0 14.5 12 25.8 27.3 25.8s27.1-11.3 27.1-25.8v-35.2c0-.2-.1-.4-.3-.4zm-.5 35.6c0 14-11.5 24.9-26.2 24.9s-26.5-10.9-26.5-24.9v-34.8c17.2-4.9 35.4-4.9 52.7 0v34.8zM2.7 6.2c-.2.1-.3.2-.3.4v32.2c0 13.4 10.9 23.9 24.9 23.9s24.8-10.5 24.8-23.9v-32.2c0-.2-.1-.4-.3-.4-9.6-2.6-17.1-3.8-24.4-3.8s-15.2 1.2-24.7 3.8zm22.9-2.9v27.6h-22.3v-23.9c8.5-2.3 15.7-3.5 22.3-3.7zm-22.3 35.6v-4.6h22.3v27.6c-12.6-.9-22.3-10.7-22.3-23zm23.2 23v-28c0-.2-.2-.4-.4-.4h-22.8v-1.5h22.7c.2 0 .4-.2.4-.4v-28.3h1.6v28.1c0 .2.2.4.4.4h22.7v1.5h-22.7c-.2 0-.4.2-.4.4v28.1h-.7c-.3.1-.5.1-.8.1zm2.4-.1v-27.6h22.3v4.7c-.1 12.4-9.7 22.2-22.3 22.9zm22.3-30.9h-22.3v-27.6c6.6.2 13.5 1.3 22.2 3.7l.1 23.9zM37 15.6h2.3c.2 0 .5-.2.5-.5 0-.2-.2-.5-.5-.5h-2.3c-.2 0-.5.2-.5.5s.2.5.5.5zM37 17.2h2.3c.2 0 .5-.2.5-.5 0-.2-.2-.5-.5-.5h-2.3c-.2 0-.5.2-.5.5s.2.5.5.5zM37 18.7h2.3c.2 0 .5-.2.5-.5 0-.2-.2-.5-.5-.5h-2.3c-.2 0-.5.2-.5.5s.2.5.5.5zM33.1 24.1h10.3v1.1c0 .2.2.5.5.5.1 0 .2 0 .3-.1l.5-.5.4.5c.2.2.5.2.6 0 .1-.1.1-.2.1-.3v-1.1h2.6c.2 0 .5-.2.5-.5v-9.3c0-.2-.2-.5-.5-.5h-1.1v-1.9c0-.2-.2-.5-.5-.5h-4.6c-.6 0-1.2.3-1.5.7-.4-.5-.9-.7-1.5-.7h-4.6c-.2 0-.5.2-.5.5v1.9h-1.1c-.2 0-.5.2-.5.5v9.3c.2.2.4.4.6.4zm8.3-.9c.2-.4.6-.6 1-.6h1.1v.6h-2.1zm3.6.9c-.2-.2-.4-.2-.6 0v-1.6h.6v1.6zm3.1-9.3v8.4h-2.2v-.6h1.1c.2 0 .5-.2.5-.5v-7.3h.6zm-13-2.3h4.2c.6 0 1.1.5 1.1 1.1 0 .2.2.5.5.5.2 0 .5-.2.5-.5 0-.6.5-1.1 1.1-1.1h4.2v9.2h-4.2c-.6 0-1.2.3-1.5.7-.4-.5-.9-.7-1.5-.7h-4.2l-.2-9.2zm-1.5 2.3h.6v7.3c0 .2.2.5.5.5h4.6c.4 0 .8.2 1 .6h-6.7v-8.4zM45.9 41.2c0-.2-.3-.4-.5-.3-.1 0-.1 0-.2.1l-1.6.9h-1.1s-.3-.1-.5-.2c-.4-.3-.9-.5-1.5-.5-.4 0-.8.2-1.1.4-1.1.3-2.3.3-3.5.1-.1-.1-1.9-1.1-1.9-1.1-.2-.1-.5-.1-.6.2v.1l-2.1 5.5c-.1.2 0 .5.3.6l1.9.7c.1 0 .2 0 .3-.1l.3.2c-.2.6.2 1.2.7 1.4h.2c0 .2.1.3.3.5.3.3.7.4 1 .3.3.4.8.6 1.3.5.3.5.9.7 1.5.4l.2.2c.7-.3 1.4-.4 2.1-.3.3-.5.9-.8 1.4-.5.5 0 .9-.3 1.1-.7.6.1 1.2-.3 1.3-.9.1-.4 0-.7-.3-1 0 0 .1 0 .1-.1.1.1.2.2.4.2l1.9-.6c.2-.1.4-.3.3-.6l-1.7-5.4zm-11.8.4s.8.6 1 .7c-.3 1.5-.9 2.9-1.7 4.2l-1-.4 1.7-4.5zm4.5 8.2c-.1-.1-.1-.2-.1-.3.1-.2 0-.5-.3-.6-.2-.1-.4 0-.5.1l-.2.2c-.1.1-.2.1-.3 0-.1-.1-.1-.2 0-.2.2-.2.1-.5-.1-.6-.2-.2-.5-.1-.6.1l-.3.3c-.1.1-.2.1-.3 0-.1-.1-.1-.2 0-.2.1-.2.1-.5-.1-.6-.2-.1-.4-.1-.6 0-.1.1-.2.1-.3 0-.1-.1-.1-.2 0-.3l.6-.6c.1-.1.2-.1.3 0 .2-.1.5-.1.6.1v.1c.2.2.4.2.6 0 .1-.1.2-.1.3 0 .2.1.3.4.2.6 0 .1-.1.1-.1.1.2.2.4.2.6 0 .1-.1.2-.1.3 0 .1.1.1.1 0 .2-.1.2 0 .5.3.6h.4c.1-.1.2-.1.3 0 .1.1.1.2 0 .3l-.7.7c.3 0 .1.1 0 0zm1.9.5c-.1.1-.2.1-.3 0l-.2-.2.3-.3.2.2c.1.1.1.2 0 .3zm4-1.9c-.1.1-.2.1-.3 0l-2-2c-.2-.1-.5-.1-.6.2-.1.1-.1.3 0 .5l1.7 1.7c.1.1.1.2 0 .3-.1.1-.2.1-.3 0l-2-2c-.1-.2-.4-.3-.6-.2-.2.1-.3.4-.2.6 0 .1.1.1.2.2l1.6 1.6c.1.1.1.2 0 .3-.1.1-.2.1-.3 0l-1-.9c0-.2-.1-.4-.3-.5-.2-.2-.5-.3-.7-.3-.2-.5-.7-.9-1.2-.8 0-.1 0-.3-.1-.4-.4-.4-1-.4-1.5-.1l-.1-.2c-.4-.4-1.1-.4-1.5 0l-.3.3-.4-.2c.7-1.3 1.2-2.6 1.6-4 .4.1 1.7.1 1.9.1-.1.3-.2.6-.2.9-.3.4-.5.7-.7 1.1-.1.3 0 .6.3.8.2.2.5.3.8.3.3 0 .7-.1 1-.3.5-.2.9-.7 1-1.3h.6l3.9 3.9c-.2.2-.1.3-.3.4zm0-1.6l-3.4-3.4c-.1-.1-.2-.1-.3-.1-.3 0-1.2.1-1.2.1-.3 0-.4.3-.4.5 0 .4-.2.7-.6.8-.2.2-.5.2-.7.1.1-.2.5-.8.6-.8.1-.3.1-.5.1-.8 1.5-1.1 1.9-1.2 2-1.2l1.1.4.7.3h1.1c.3 1.3.8 2.6 1.4 3.9l-.4.2zm1.4-.1c-.8-1.3-1.3-2.7-1.6-4.1l1-.6 1.6 4.3-1 .4zM6.7 15.3c.4 0 1.2-.5 1.9-.6v9.5c0 .2.2.5.5.5h.2l3.7-1.5 3.7 1.5h.2c.2 0 .5-.2.5-.5v-9.5c1.7.2 3.3.9 4.7 2 .1.1.2.1.3.1.1 0 .2-.1.3-.2 1.2-1.5 1.2-3.7 0-5.2-.1-.1-.2-.2-.3-.2-.1 0-.3 0-.3.1-.7.7-3.1 2.2-6.7 2.2h-5.6c-.7 0-2.9-.8-3.1-.8-.7 0-1.2.5-1.2 1.1v.1c0 .6.4 1.2 1.1 1.2 0 .2.1.2.1.2zm2.8 5.3l6.9-2.9v.6l-6.9 2.9v-.6zm6.9-3.9l-6.9 2.9v-4.1c2 1.7 4.9 1.7 6.9 0v1.2zm-3.3 5.4h-.3l-3.3 1.3v-1.2l6.9-2.9v4.1l-3.3-1.3zm9-9.7c.6 1 .6 2.3 0 3.3-1-.8-2.2-1.3-3.5-1.6 1.3-.4 2.5-1 3.5-1.7zm-6 2.1c-1.5 1.7-4.2 1.9-5.9.3l-.3-.3h6.2zm-9.5-.8c.2.2.5.3.7.3-.3.1-.5.2-.7.3-.1 0-.2-.2-.2-.3 0-.1.1-.2.2-.3zM21.6 43.7c-.5-1.4-1.9-2.3-3.3-2.3-1.3 0-2.6.4-3.7 1-.7-.7-1.7-1-2.7-1-1.7 0-3.2 1.2-3.5 2.9-.6-.1-1.2-.2-1.7-.5-.2-.1-.4 0-.5.1v.1l-.4 1.1c-.1.2 0 .4.2.5.9.3 1.7.5 2.7.6v.1c.6 1.3 1.9 2.2 3.4 2.2 1.4-.1 2.7-.5 3.9-1.2.6.7 1.5 1.2 2.5 1.2 1.7 0 3.2-1.2 3.5-2.8.6.1 1.1.2 1.7.4.2.1.4 0 .5-.2l.2-.6.2-.6c.1-.2 0-.4-.2-.5-1.1-.2-1.9-.4-2.8-.5zm-5.8.3c.7-.4 1.6-.6 2.4-.6.4 0 .7.1 1 .4-1 .2-2 .6-2.9 1 0-.1-.3-.6-.5-.8zm2.5-1.8c.9 0 1.7.4 2.3 1.1h-.5c-.4-.5-1.1-.8-1.7-.8-.9 0-1.8.2-2.6.6l-.3-.3c.8-.4 1.8-.6 2.8-.6zm-11.6 2.4c.8.3 1.7.4 2.6.5 1.3 0 2.5-.4 3.7-1l.3.3c-1.2.7-2.6 1-4 1.1-.9 0-1.9-.2-2.8-.5l.2-.4zm3.8-.4c.3-.5.8-.8 1.4-.8.2 0 .4 0 .6.1-.7.3-1.3.5-2 .7zm1.3 3.6c-.9 0-1.7-.4-2.2-1.1h.5c.4.5 1.1.8 1.7.8 1 0 2-.3 3-.8l.2.3c-1 .4-2.1.7-3.2.8zm0-1.3c-.4 0-.7-.1-1-.4 1.1-.2 2.2-.7 3.2-1.2l.6.8c-.8.5-1.8.8-2.8.8zm6.5 1.3c-1.4 0-2.2-1.2-3-2.5-.8-1.3-1.7-2.7-3.4-2.7-.9 0-1.8.6-2.2 1.4h-.5c.4-1.1 1.5-1.9 2.6-1.9 1.9 0 2.9 1.5 3.8 2.9.7 1.2 1.5 2.3 2.6 2.3.9 0 1.8-.6 2.2-1.4h.5c-.4 1.1-1.5 1.9-2.6 1.9zm-.6-1.4c.6-.3 1.3-.5 1.9-.7-.3.5-.8.8-1.4.8-.1 0-.3 0-.5-.1zm5.7-1.1c-.8-.3-1.7-.4-2.6-.5-1.2 0-2.3.3-3.4.8l-.3-.3c1.1-.6 2.4-.9 3.6-.9.9 0 1.9.2 2.8.5l-.1.4z"/>
		<path d="M38.6 50.8h.4M38.8 50.4v.5"/>
	</symbol>
</svg>