<svg width="28" height="24" viewBox="0 0 28 24" fill="none" xmlns="http://www.w3.org/2000/svg">
<path d="M20.3028 20.785H6.83789V24H20.3028V20.785Z" fill="#FF9800"/>
<path d="M16.4133 9.65735H10.7266V14.1433H16.4133V9.65735Z" fill="#FFB74D"/>
<path d="M22.4884 1.10901V2.79125H25.2378C24.7561 4.27412 23.3932 6.94078 19.7978 6.94078V7.1277L19.0224 6.94078C18.9871 7.10277 18.7051 8.57318 19.5511 9.69467C20.1151 10.4423 20.9845 10.8162 22.1595 10.8162V9.14639C21.5015 9.14639 21.0433 8.98439 20.7965 8.6604C20.773 8.63548 20.7613 8.61056 20.7495 8.58564C23.4284 8.27411 24.9676 6.69156 25.8135 5.34577C26.8123 3.75075 27.0472 2.15574 27.0472 2.08097L27.1882 1.10901H22.4884Z" fill="#E57500"/>
<path d="M7.39041 7.14016V6.95324C3.80682 6.95324 2.43214 4.28658 1.95041 2.80371H4.69978V1.10901H0L0.140993 2.08097C0.152743 2.14328 0.387732 3.73829 1.37469 5.34577C2.22065 6.69156 3.75983 8.28657 6.4387 8.58564C6.42695 8.61056 6.40345 8.63548 6.3917 8.64794C6.14496 8.97193 5.68674 9.13393 5.02877 9.13393V10.8162C6.20371 10.8162 7.08492 10.4423 7.63715 9.69467C8.48311 8.57318 8.20112 7.10277 8.16587 6.94078L7.39041 7.14016Z" fill="#FF9800"/>
<path d="M22.971 0.859813C22.971 6.35514 18.7529 10.8287 13.5714 10.8287C8.38993 10.8287 4.17188 6.35514 4.17188 0.859813V0H22.9592L22.971 0.859813Z" fill="#FFDA2D"/>
<path d="M18.5887 12.4486H8.55469V20.785H18.5887V12.4486Z" fill="#9F7953"/>
<path d="M16.4137 9.65735H13.5703V14.1433H16.4137V9.65735Z" fill="#FF9800"/>
<path d="M20.3028 20.785H13.5703V24H20.3028V20.785Z" fill="#E57500"/>
<path d="M18.5873 12.4486H13.5703V20.785H18.5873V12.4486Z" fill="#715539"/>
<path d="M22.9699 0.859813C22.9699 6.35514 18.7518 10.8287 13.5703 10.8287V0H22.9581L22.9699 0.859813Z" fill="#FDBF00"/>
<path d="M14.275 17.0094L14.4395 18.0312L13.5701 17.5577L12.7006 18.0312L12.8768 17.0094L12.1719 16.2866L13.1353 16.1371L13.5701 15.2025L14.0048 16.1371L14.98 16.2866L14.275 17.0094Z" fill="#FFDA2D"/>
<path d="M14.4398 18.0312L13.5703 17.5577V15.2025L14.005 16.1371L14.9803 16.2866L14.2753 17.0094L14.4398 18.0312Z" fill="#FDBF00"/>
</svg>
