<svg width="19" height="24" viewBox="0 0 19 24" fill="none" xmlns="http://www.w3.org/2000/svg">
<path d="M3.60632 21.8394C2.50132 20.5839 1.42539 19.2701 0.727487 17.7226C0.0295875 16.0584 -0.173967 14.1606 0.174983 12.3504C0.523933 10.5401 1.30907 8.84672 2.47224 7.38686C2.385 8.64234 2.82119 9.92701 3.66448 10.8905C3.17014 8.49635 3.95527 5.89781 5.55463 3.9708C7.15398 2.0438 9.33492 0.846715 11.6322 0C10.4981 1.19708 10.3236 3.09489 10.7889 4.70073C11.2541 6.30657 12.1847 7.70803 13.028 9.16788C13.8713 10.6277 14.6855 12.1168 14.7146 13.781C15.1507 12.9343 15.6742 12.0876 15.965 11.1241C16.2558 10.1606 16.4012 9.16788 16.1685 8.23358C17.07 9.34307 17.5643 10.4234 17.826 11.8248C18.0877 13.2263 18.0296 14.6569 17.8551 16.0584C17.6516 17.6058 17.2444 19.2117 16.4012 20.5255C15.4125 22.073 13.8131 23.1825 12.0684 23.7664C8.98597 24.3212 5.96174 23.8832 3.60632 21.8394Z" fill="#ED1C24"/>
<path d="M7.388 23.6788C11.4882 25.2846 15.5011 20.4379 13.262 16.6715C13.262 16.6131 13.2038 16.6131 13.2038 16.5839C13.4074 18.6277 12.913 20.1459 11.9534 20.9927C12.4478 19.7956 12.0988 18.3941 11.5172 17.197C10.9066 16.0584 10.0633 15.0073 9.42355 13.8978C8.7838 12.7591 8.28946 11.4452 8.58025 10.1313C7.388 11.0365 6.54471 12.3795 6.19576 13.8394C5.84681 15.2992 6.05036 16.9051 6.6901 18.2481C5.93405 17.6934 5.38154 16.7883 5.35246 15.854C4.56733 16.8175 4.0439 18.0438 4.10206 19.2992C4.10206 21.2262 5.64325 22.9781 7.388 23.6788Z" fill="#FBB040"/>
</svg>
