<svg width="29" height="39" viewBox="0 0 29 39" fill="none" xmlns="http://www.w3.org/2000/svg">
<path d="M18.3512 0L13.3897 9.26531L11.127 14.9184V16.1429V17.3878H19.7006L29.0008 0H18.3512Z" fill="#3A4DE2"/>
<path d="M10.6495 0H0L9.30019 17.3878H19.9497L10.6495 0Z" fill="#0088FF"/>
<path d="M25.3691 28.3061C25.3691 34.2041 20.4906 39 14.4912 39C8.49173 39 3.61328 34.2041 3.61328 28.3061C3.61328 24.3265 5.85529 20.7143 9.38438 18.8571V16H19.5772V18.8571C23.1271 20.7143 25.3691 24.3265 25.3691 28.3061Z" fill="#FF9800"/>
<path d="M25.3681 28.3061C25.3681 34.2041 20.4897 39 14.4902 39V16H19.5763V18.8571C23.1261 20.7143 25.3681 24.3265 25.3681 28.3061Z" fill="#E47500"/>
<path d="M21.5695 28.3062C21.5695 32.1429 18.4141 35.245 14.5113 35.245C10.6085 35.245 7.45312 32.1429 7.45312 28.3062C7.45312 24.4695 10.6085 21.3674 14.5113 21.3674C18.4141 21.3674 21.5695 24.4695 21.5695 28.3062Z" fill="#FFB74D"/>
<path d="M21.9851 16H7.01758V18.2857H21.9851V16Z" fill="#FFA81F"/>
<path d="M21.5699 28.3061C21.5699 32.1428 18.4145 35.2449 14.5117 35.2449V21.3673C18.3937 21.3673 21.5699 24.4693 21.5699 28.3061Z" fill="#FF9800"/>
<path d="M21.9851 16H14.5117V18.2857H21.9851V16Z" fill="#FF9800"/>
</svg>
