<svg width="24" height="24" viewBox="0 0 24 24" fill="none" xmlns="http://www.w3.org/2000/svg">
<path d="M22.4153 5.97003C21.3353 4.12388 19.8954 2.68531 18.0474 1.60639C16.1995 0.527472 14.1835 0 12.0236 0C9.83968 0 7.82375 0.527472 5.97581 1.60639C4.12787 2.68531 2.68791 4.12388 1.60795 5.97003C0.527983 7.81618 0 9.83017 0 12.012C0 14.1938 0.527983 16.2078 1.60795 18.03C2.68791 19.8761 4.12787 21.3147 5.97581 22.3936C7.82375 23.4725 9.81568 24 11.9996 24C14.1835 24 16.1995 23.4725 18.0234 22.3936C19.8714 21.3147 21.3113 19.8761 22.3913 18.03C23.4712 16.1838 23.9992 14.1938 23.9992 12.012C24.0232 9.83017 23.4952 7.81618 22.4153 5.97003ZM21.2153 15.8961C20.6873 17.1189 19.9674 18.1978 19.0794 19.0849C18.1914 19.972 17.1354 20.6913 15.8875 21.2188C14.6635 21.7463 13.3676 22.01 11.9996 22.01C10.6557 22.01 9.3597 21.7463 8.11174 21.2188C6.86378 20.6913 5.80781 19.972 4.91984 19.0849C4.03187 18.1978 3.31189 17.1429 2.78391 15.8961C2.25593 14.6733 1.99194 13.3546 1.99194 12.012C1.99194 10.6454 2.25593 9.35065 2.78391 8.12787C3.31189 6.9051 4.03187 5.82617 4.91984 4.93906C5.80781 4.05195 6.86378 3.33267 8.11174 2.80519C9.3597 2.27772 10.6557 1.99001 12.0236 1.99001C13.3676 1.99001 14.6635 2.25375 15.9115 2.78122C17.1354 3.30869 18.2154 4.02797 19.1034 4.91509C19.9913 5.8022 20.7113 6.85714 21.2393 8.1039C21.7673 9.32667 22.0313 10.6214 22.0313 11.988C22.0313 13.3546 21.7673 14.6494 21.2153 15.8961Z" fill="#5FC95D"/>
<path d="M17.0874 13.7863C16.8234 13.7143 16.5594 13.7143 16.3194 13.8582C16.0794 13.9781 15.9114 14.1699 15.8154 14.4576C15.5514 15.2968 15.0714 15.9681 14.3755 16.4716C13.6795 16.999 12.8875 17.2388 11.9995 17.2388C11.1356 17.2388 10.3436 16.9751 9.62361 16.4716C8.92763 15.9441 8.44765 15.2728 8.18365 14.4576C8.11166 14.1939 7.94366 13.9781 7.67967 13.8582C7.43968 13.7383 7.17569 13.7143 6.9117 13.7863C6.6477 13.8582 6.43171 14.026 6.31171 14.2898C6.19172 14.5295 6.16772 14.7933 6.23972 15.057C6.6237 16.3277 7.34368 17.3347 8.39965 18.1019C9.45561 18.8692 10.6316 19.2528 11.9755 19.2528C13.2955 19.2528 14.4954 18.8692 15.5514 18.1019C16.6074 17.3347 17.3274 16.3037 17.7113 15.057C17.7833 14.7933 17.7833 14.5535 17.6393 14.2898C17.5433 14.026 17.3514 13.8822 17.0874 13.7863Z" fill="#5FC95D"/>
<path d="M8.01593 9.99797C8.56792 9.99797 9.0479 9.80616 9.43189 9.42254C9.81588 9.03892 10.0079 8.5594 10.0079 8.00796C10.0079 7.45651 9.81588 6.97699 9.43189 6.59337C9.0479 6.20975 8.56792 6.01794 8.01593 6.01794C7.46395 6.01794 6.98397 6.20975 6.59998 6.59337C6.21599 6.97699 6 7.45651 6 8.00796C6 8.5594 6.19199 9.03892 6.57598 9.42254C6.95997 9.80616 7.46395 9.99797 8.01593 9.99797Z" fill="#5FC95D"/>
<path d="M16.0076 5.99402C15.4556 5.99402 14.9756 6.18583 14.5916 6.56944C14.2076 6.95306 14.0156 7.43258 14.0156 7.98403C14.0156 8.53548 14.2076 9.015 14.5916 9.39861C14.9756 9.78223 15.4556 9.97404 16.0076 9.97404C16.5595 9.97404 17.0395 9.78223 17.4235 9.39861C17.8075 9.015 17.9995 8.53548 17.9995 7.98403C17.9995 7.43258 17.8075 6.95306 17.4235 6.56944C17.0395 6.18583 16.5595 5.99402 16.0076 5.99402Z" fill="#5FC95D"/>
</svg>
