<svg width="20" height="20" viewBox="0 0 20 20" fill="none" xmlns="http://www.w3.org/2000/svg">
<path d="M11.0742 20C6.24172 20 2.32422 15.5229 2.32422 10C2.32422 4.47714 6.24172 0 11.0742 0C15.9067 0 19.8242 4.47714 19.8242 10C19.8242 15.5229 15.9067 20 11.0742 20Z" fill="#FFD949"/>
<path d="M2.32254 10C2.32254 4.89214 5.67433 0.681429 10.0011 0.0771429C9.64969 0.0282143 9.29254 0 8.92969 0C4.09719 0 0.179688 4.47714 0.179688 10C0.179688 15.5229 4.09719 20 8.92969 20C9.29254 20 9.64969 19.9718 10.0011 19.9229C5.67433 19.3186 2.32254 15.1079 2.32254 10Z" fill="#F4BF1A"/>
<path d="M11.1022 18.0445H11.0715C10.8215 18.0445 10.5697 18.0296 10.3233 18.0003C10.1272 17.9767 9.98757 17.7992 10.0108 17.6031C10.0344 17.407 10.2133 17.2703 10.4079 17.291C10.6265 17.317 10.8497 17.3303 11.0715 17.3303C11.269 17.3303 11.444 17.4903 11.444 17.6874C11.444 17.8845 11.3001 18.0445 11.1022 18.0445ZM13.179 17.6599C13.0347 17.6599 12.8986 17.5717 12.8447 17.4285C12.7751 17.2438 12.8683 17.0378 13.0529 16.9685C13.2586 16.891 13.464 16.7999 13.6622 16.6981C13.8379 16.6074 14.0529 16.677 14.1433 16.8528C14.2333 17.0281 14.164 17.2435 13.9883 17.3335C13.7658 17.4478 13.5361 17.5492 13.3047 17.6367C13.2636 17.6524 13.2211 17.6599 13.179 17.6599ZM8.34507 17.387C8.29078 17.387 8.23542 17.3745 8.18364 17.3481C7.964 17.2363 7.7465 17.111 7.53757 16.9738C7.37257 16.866 7.3265 16.6449 7.43435 16.4795C7.54292 16.3149 7.76364 16.2685 7.929 16.3763C8.11578 16.4988 8.31042 16.6117 8.50685 16.7113C8.68257 16.8006 8.75292 17.0156 8.66364 17.1913C8.60078 17.3156 8.47507 17.387 8.34507 17.387ZM15.5272 16.1163C15.4365 16.1163 15.3454 16.0817 15.2758 16.0128C15.1358 15.8738 15.1347 15.6478 15.2736 15.5078C15.429 15.3513 15.5801 15.1828 15.7226 15.007C15.8472 14.8542 16.0722 14.831 16.2251 14.9553C16.3779 15.0795 16.4015 15.3045 16.2769 15.4578C16.1194 15.6513 15.9526 15.8374 15.7808 16.0106C15.7108 16.081 15.6186 16.1163 15.5272 16.1163ZM6.16364 15.6135C6.06042 15.6135 5.95792 15.5688 5.88721 15.4831C5.73221 15.2938 5.58328 15.0938 5.44507 14.8885C5.33471 14.7249 5.37792 14.5028 5.5415 14.3924C5.70471 14.282 5.92685 14.3249 6.03721 14.4888C6.16328 14.676 6.29864 14.8581 6.43971 15.0299C6.56471 15.1824 6.54257 15.4074 6.39007 15.5328C6.324 15.587 6.24328 15.6135 6.16364 15.6135ZM17.0972 13.7788C17.0494 13.7788 17.0011 13.7692 16.9547 13.7492C16.7736 13.6703 16.6911 13.4599 16.7697 13.2788C16.8594 13.0738 16.9411 12.861 17.0129 12.647C17.0758 12.4606 17.2783 12.3595 17.4654 12.4224C17.6522 12.4856 17.7529 12.6878 17.6901 12.8749C17.6115 13.1081 17.5222 13.3403 17.4247 13.5642C17.3658 13.6985 17.2344 13.7788 17.0972 13.7788ZM4.80221 13.1478C4.65364 13.1478 4.51471 13.0538 4.464 12.9056C4.38507 12.6742 4.31507 12.436 4.25578 12.1974C4.20792 12.006 4.32435 11.8124 4.51578 11.7649C4.7065 11.7163 4.90114 11.8335 4.94864 12.0249C5.00328 12.2438 5.06757 12.4628 5.14007 12.6749C5.20364 12.8617 5.104 13.0645 4.91757 13.1281C4.87971 13.1413 4.84042 13.1478 4.80221 13.1478ZM17.7719 11.0417C17.7626 11.0417 17.7533 11.0413 17.744 11.0406C17.5472 11.0253 17.4004 10.8535 17.4154 10.6567C17.4322 10.4403 17.4408 10.2192 17.4408 10.0003C17.4408 9.80312 17.6008 9.63169 17.7979 9.63169C17.9951 9.63169 18.1551 9.77991 18.1551 9.97705V10.0003C18.1551 10.2378 18.1458 10.477 18.1276 10.712C18.1133 10.8992 17.9565 11.0417 17.7719 11.0417ZM4.34542 10.3613C4.14828 10.3613 3.98828 10.2053 3.98828 10.0081V10.0003C3.98828 9.75669 3.99792 9.51169 4.01685 9.27276C4.03257 9.07633 4.20364 8.93062 4.40114 8.94491C4.59792 8.96062 4.74471 9.13276 4.729 9.32919C4.7115 9.54991 4.70257 9.77562 4.70257 10.0003C4.70257 10.1974 4.54257 10.3613 4.34542 10.3613ZM17.5369 8.23169C17.3772 8.23169 17.2319 8.12384 17.1911 7.96205C17.1358 7.74241 17.0711 7.52384 16.9983 7.31169C16.9344 7.12526 17.034 6.92205 17.2204 6.85812C17.4072 6.79348 17.6104 6.89348 17.674 7.08026C17.7533 7.31098 17.8236 7.54884 17.8836 7.78705C17.9319 7.97848 17.8158 8.17241 17.6247 8.22062C17.5958 8.22848 17.5665 8.23169 17.5369 8.23169ZM4.79757 7.58276C4.75935 7.58276 4.72078 7.57634 4.68257 7.56348C4.49578 7.50026 4.39578 7.29741 4.459 7.11062C4.53792 6.87848 4.62757 6.64669 4.72578 6.42205C4.80507 6.24098 5.01507 6.15919 5.19614 6.23776C5.37685 6.31669 5.45935 6.52741 5.38042 6.70812C5.29007 6.91419 5.20792 7.12705 5.13578 7.33991C5.08471 7.48884 4.9465 7.58276 4.79757 7.58276ZM16.394 5.65669C16.2794 5.65669 16.1672 5.60169 16.0979 5.49955C15.9715 5.31312 15.8358 5.13134 15.6944 4.95955C15.569 4.80741 15.5908 4.58205 15.7429 4.45669C15.8951 4.33134 16.1204 4.35312 16.2458 4.50526C16.4011 4.69419 16.5504 4.89384 16.6894 5.09919C16.8001 5.26241 16.7572 5.48455 16.594 5.59526C16.5326 5.63669 16.4633 5.65669 16.394 5.65669ZM6.15328 5.11348C6.074 5.11348 5.994 5.08705 5.92757 5.03276C5.77471 4.90812 5.75221 4.68312 5.87721 4.53026C6.03471 4.33741 6.20185 4.15169 6.374 3.97848C6.51328 3.83919 6.73935 3.83812 6.879 3.97705C7.019 4.11634 7.01971 4.34205 6.88078 4.48205C6.72507 4.63884 6.57328 4.80705 6.43007 4.98241C6.36007 5.06884 6.25721 5.11348 6.15328 5.11348ZM14.3969 3.67419C14.3301 3.67419 14.2626 3.65562 14.2026 3.61634C14.0158 3.49455 13.8208 3.38241 13.6233 3.28276C13.4476 3.19384 13.3769 2.97919 13.4658 2.80312C13.5547 2.62776 13.769 2.55598 13.9454 2.64526C14.1661 2.75634 14.3836 2.88169 14.5922 3.01776C14.7576 3.12562 14.8044 3.34705 14.6965 3.51205C14.6279 3.61741 14.514 3.67419 14.3969 3.67419ZM8.33221 3.33491C8.20221 3.33491 8.07685 3.26384 8.01364 3.13991C7.924 2.96419 7.994 2.74919 8.16971 2.65955C8.39221 2.54634 8.62221 2.44455 8.854 2.35812C9.03828 2.28884 9.24435 2.38241 9.31364 2.56741C9.38257 2.75205 9.28899 2.95776 9.10399 3.02705C8.89757 3.10419 8.69221 3.19455 8.49364 3.29598C8.44221 3.32241 8.3865 3.33491 8.33221 3.33491ZM11.7629 2.71026C11.749 2.71026 11.7351 2.70955 11.7211 2.70776C11.5061 2.68276 11.2876 2.67026 11.0715 2.67026C10.8744 2.67026 10.7069 2.51026 10.7069 2.31312C10.7069 2.11598 10.8594 1.95598 11.0565 1.95598H11.0715C11.3151 1.95598 11.5615 1.97026 11.8036 1.99848C11.9994 2.02098 12.1401 2.19812 12.1172 2.39419C12.0965 2.57634 11.9415 2.71026 11.7629 2.71026Z" fill="#F4BF1A"/>
<path d="M2.32183 10.3571H0.179688C0.18683 10.5975 0.200402 10.8357 0.222188 11.0714H2.36612C2.34397 10.8357 2.32933 10.5975 2.32183 10.3571Z" fill="#DCA815"/>
<path d="M2.40246 8.57143H0.261027C0.231384 8.80678 0.209955 9.04536 0.195312 9.28571H2.33781C2.35281 9.04536 2.37281 8.80678 2.40246 8.57143Z" fill="#DCA815"/>
<path d="M2.51821 12.1429H0.375C0.421429 12.3843 0.475 12.6225 0.536071 12.8571H2.67857C2.61786 12.6225 2.56464 12.3843 2.51821 12.1429Z" fill="#DCA815"/>
<path d="M3.01929 13.9286H0.875C0.966071 14.1721 1.06679 14.4096 1.17393 14.6429H3.31714C3.21 14.41 3.11036 14.1718 3.01929 13.9286Z" fill="#DCA815"/>
<path d="M2.7785 6.78571H0.638147C0.568505 7.02036 0.503504 7.25786 0.449219 7.5H2.59458C2.64886 7.25857 2.70922 7.01964 2.7785 6.78571Z" fill="#DCA815"/>
<path d="M3.48884 5H1.34598C1.22813 5.2325 1.11705 5.47036 1.01562 5.71429H3.15991C3.26134 5.47071 3.37098 5.2325 3.48884 5Z" fill="#DCA815"/>
<path d="M4.9473 2.85714H2.80194C2.59873 3.08428 2.40551 3.3225 2.22266 3.57143H4.3673C4.55051 3.3225 4.74409 3.08428 4.9473 2.85714Z" fill="#DCA815"/>
<path d="M7.12966 1.07143H4.98217C4.61717 1.28214 4.26717 1.52071 3.93359 1.78571H6.07967C6.41359 1.52071 6.76431 1.28214 7.12966 1.07143Z" fill="#DCA815"/>
<path d="M4.11658 16.0714H1.97266C2.13837 16.3189 2.31337 16.5571 2.49837 16.7857H4.64373C4.45873 16.5571 4.28266 16.3189 4.11658 16.0714Z" fill="#DCA815"/>
<path d="M3.51172 17.8571C3.7985 18.1154 4.09886 18.355 4.41315 18.5714H6.56101C6.24529 18.3546 5.94172 18.1164 5.65386 17.8571H3.51172Z" fill="#DCA815"/>
</svg>
