<svg width="12" height="18" viewBox="0 0 12 18" fill="none" xmlns="http://www.w3.org/2000/svg">
<path d="M5.75796 0C8.87152 0 11.9369 1.43394 11.9369 4.86379C11.9369 8.02673 8.31241 9.2431 7.53402 10.386C6.94965 11.2362 7.14483 12.4307 5.53925 12.4307C4.49336 12.4307 3.98247 11.58 3.98247 10.8016C3.98247 7.90503 8.23836 7.24948 8.23836 4.86437C8.23836 3.55155 7.36468 2.77316 5.90434 2.77316C2.79077 2.77316 4.00658 5.98316 1.64845 5.98316C0.797152 5.98316 0.0664063 5.47227 0.0664063 4.49986C0.0658323 2.11417 2.78963 0 5.75796 0ZM5.63684 14.0099C6.7298 14.0099 7.63161 14.9088 7.63161 16.0052C7.63161 17.1016 6.73152 18.0006 5.63684 18.0006C4.54215 18.0006 3.64149 17.1028 3.64149 16.0052C3.64149 14.9094 4.54215 14.0099 5.63684 14.0099Z" fill="#6BADC1"/>
</svg>
